0
SECTION
2
HEADER
9
$INSUNITS
70
4
9
$ACADVER
1
AC1014
9
$HANDSEED
5
FFFF
0
ENDSEC
0
SECTION
2
TABLES
0
TABLE
2
VPORT
5
8
100
AcDbSymbolTable
0
ENDTAB
0
TABLE
2
LTYPE
5
5
100
AcDbSymbolTable
0
LTYPE
5
14
100
AcDbSymbolTableRecord
100
AcDbLinetypeTableRecord
2
BYBLOCK
70
0
0
LTYPE
5
15
100
AcDbSymbolTableRecord
100
AcDbLinetypeTableRecord
2
BYLAYER
70
0
0
ENDTAB
0
TABLE
2
LAYER
5
2
100
AcDbSymbolTable
70
2
0
LAYER
5
50
100
AcDbSymbolTableRecord
100
AcDbLayerTableRecord
2
0
70
0
6
CONTINUOUS
0
ENDTAB
0
TABLE
2
STYLE
5
3
100
AcDbSymbolTable
70
1
0
STYLE
5
11
100
AcDbSymbolTableRecord
100
AcDbTextStyleTableRecord
2
STANDARD
70
0
0
ENDTAB
0
TABLE
2
VIEW
5
6
100
AcDbSymbolTable
70
0
0
ENDTAB
0
TABLE
2
UCS
5
7
100
AcDbSymbolTable
70
0
0
ENDTAB
0
TABLE
2
APPID
5
9
100
AcDbSymbolTable
70
2
0
APPID
5
12
100
AcDbSymbolTableRecord
100
AcDbRegAppTableRecord
2
ACAD
70
0
0
ENDTAB
0
TABLE
2
DIMSTYLE
5
A
100
AcDbSymbolTable
70
1
0
ENDTAB
0
TABLE
2
BLOCK_RECORD
5
1
100
AcDbSymbolTable
70
1
0
BLOCK_RECORD
5
1F
100
AcDbSymbolTableRecord
100
AcDbBlockTableRecord
2
*MODEL_SPACE
0
BLOCK_RECORD
5
1B
100
AcDbSymbolTableRecord
100
AcDbBlockTableRecord
2
*PAPER_SPACE
0
ENDTAB
0
ENDSEC
0
SECTION
2
BLOCKS
0
BLOCK
5
20
100
AcDbEntity
100
AcDbBlockBegin
2
*MODEL_SPACE
0
ENDBLK
5
21
100
AcDbEntity
100
AcDbBlockEnd
0
BLOCK
5
1C
100
AcDbEntity
100
AcDbBlockBegin
2
*PAPER_SPACE
0
ENDBLK
5
1D
100
AcDbEntity
100
AcDbBlockEnd
0
ENDSEC
0
SECTION
2
ENTITIES
0
LINE
5
100
100
AcDbEntity
8
0
100
AcDbLine
10
-39.000000596046448
20
-15.000000223517429
30
0
11
39.000000596046455
21
-15.000000223517418
31
0
0
ARC
5
101
100
AcDbEntity
8
0
100
AcDbCircle
10
39.000000596046448
20
-16.000000223517418
30
0
40
0.99999999999999645
210
0
220
-0
230
1
100
AcDbArc
50
0
51
89.999999999999588
0
LINE
5
102
100
AcDbEntity
8
0
100
AcDbLine
10
40.000000596046448
20
-16.000000223517418
30
0
11
40.000000596046448
21
-16.528783998121533
31
0
0
SPLINE
5
103
100
AcDbEntity
8
0
100
AcDbSpline
70
0
71
3
72
26
73
22
74
0
42
0.000000001
43
0.0000000001
44
0.0000000001
40
7.8789585251158158e-05
40
7.8789585251158158e-05
40
7.8789585251158158e-05
40
7.8789585251158158e-05
40
0.17806407465490978
40
0.17806407465490978
40
0.17806407465490978
40
0.32168374434649816
40
0.32168374434649816
40
0.32168374434649816
40
0.46493935486922322
40
0.46493935486922322
40
0.46493935486922322
40
0.61657709893955204
40
0.61657709893955204
40
0.61657709893955204
40
0.76596124473358451
40
0.76596124473358451
40
0.76596124473358451
40
0.92384891147087056
40
0.92384891147087056
40
0.92384891147087056
40
0.9262629822270394
40
0.9262629822270394
40
0.9262629822270394
40
0.9262629822270394
10
29.988680401200178
20
17.00000029802322
30
0
10
38.408196116282205
20
16.936069359939914
30
0
10
45.148889624408284
20
15.987396557551472
30
0
10
50.095779823053363
20
14.290020766891324
30
0
10
54.087518443759578
20
12.920376358918491
30
0
10
56.878547317891829
20
11.090034617426774
30
0
10
58.733883533934019
20
8.9929357387682263
30
0
10
60.584516688325785
20
6.9011527620082704
30
0
10
61.579063123112341
20
4.4976264699196591
30
0
10
61.895084545184702
20
1.9328839289425248
30
0
10
62.2295969272554
20
-0.78192613410405509
30
0
10
61.775027349389305
20
-3.6231609125581885
30
0
10
60.549835058959772
20
-6.1333889491562683
30
0
10
59.342851238003142
20
-8.6063106698956506
30
0
10
57.426497161645933
20
-10.775956765087265
30
0
10
54.377971287285291
20
-12.542808986041338
30
0
10
51.155911578521504
20
-14.410237240580878
30
0
10
46.584154763008939
20
-15.809134286614409
30
0
10
40.289898813730993
20
-16.49768874554518
30
0
10
40.193660902733946
20
-16.508216605115745
30
0
10
40.097028206000537
20
-16.518581777759408
30
0
10
40.000000596046448
20
-16.528783998121533
30
0
0
LINE
5
104
100
AcDbEntity
8
0
100
AcDbLine
10
29.988680401200178
20
17.00000029802322
30
0
11
-29.988680401200178
21
17.00000029802322
31
0
0
SPLINE
5
105
100
AcDbEntity
8
0
100
AcDbSpline
70
0
71
3
72
26
73
22
74
0
42
0.000000001
43
0.0000000001
44
0.0000000001
40
7.8789585251158158e-05
40
7.8789585251158158e-05
40
7.8789585251158158e-05
40
7.8789585251158158e-05
40
0.17806407465490978
40
0.17806407465490978
40
0.17806407465490978
40
0.32168374434649816
40
0.32168374434649816
40
0.32168374434649816
40
0.46493935486922322
40
0.46493935486922322
40
0.46493935486922322
40
0.61657709893955204
40
0.61657709893955204
40
0.61657709893955204
40
0.76596124473358451
40
0.76596124473358451
40
0.76596124473358451
40
0.92384891147087056
40
0.92384891147087056
40
0.92384891147087056
40
0.9262629822270394
40
0.9262629822270394
40
0.9262629822270394
40
0.9262629822270394
10
-29.988680401200178
20
17.00000029802322
30
0
10
-38.408196116282205
20
16.936069359939914
30
0
10
-45.148889624408284
20
15.987396557551472
30
0
10
-50.095779823053363
20
14.290020766891324
30
0
10
-54.087518443759578
20
12.920376358918491
30
0
10
-56.878547317891829
20
11.090034617426774
30
0
10
-58.733883533934019
20
8.9929357387682263
30
0
10
-60.584516688325785
20
6.9011527620082704
30
0
10
-61.579063123112341
20
4.4976264699196591
30
0
10
-61.895084545184702
20
1.9328839289425248
30
0
10
-62.2295969272554
20
-0.78192613410405509
30
0
10
-61.775027349389305
20
-3.6231609125581885
30
0
10
-60.549835058959772
20
-6.1333889491562683
30
0
10
-59.342851238003142
20
-8.6063106698956506
30
0
10
-57.426497161645933
20
-10.775956765087265
30
0
10
-54.377971287285291
20
-12.542808986041338
30
0
10
-51.155911578521504
20
-14.410237240580878
30
0
10
-46.584154763008939
20
-15.809134286614409
30
0
10
-40.289898813730993
20
-16.49768874554518
30
0
10
-40.193660902733946
20
-16.508216605115745
30
0
10
-40.097028206000537
20
-16.518581777759408
30
0
10
-40.000000596046448
20
-16.528783998121533
30
0
0
LINE
5
106
100
AcDbEntity
8
0
100
AcDbLine
10
-40.000000596046441
20
-16.528783998121533
30
0
11
-40.000000596046448
21
-16.000000223517432
31
0
0
ARC
5
107
100
AcDbEntity
8
0
100
AcDbCircle
10
-39.000000596046448
20
-16.000000223517432
30
0
40
1.0000000000000031
210
0
220
-0
230
1
100
AcDbArc
50
90
51
180
0
LWPOLYLINE
5
108
100
AcDbEntity
8
0
100
AcDbPolyline
90
4
70
1
43
0.0
10
48.50000037252903
20
-11.000000223517421
10
13.500000372529026
20
-11.000000223517421
10
13.500000372529025
20
-14.00000022351742
10
48.50000037252903
20
-14.00000022351742
0
ENDSEC
0
SECTION
2
OBJECTS
0
DICTIONARY
5
C
100
AcDbDictionary
3
ACAD_GROUP
350
D
3
ACAD_MLINESTYLE
350
17
0
DICTIONARY
5
D
100
AcDbDictionary
0
DICTIONARY
5
1A
330
C
100
AcDbDictionary
0
DICTIONARY
5
17
100
AcDbDictionary
0
ENDSEC
0
EOF
