0
SECTION
2
HEADER
9
$INSUNITS
70
4
9
$ACADVER
1
AC1014
9
$HANDSEED
5
FFFF
0
ENDSEC
0
SECTION
2
TABLES
0
TABLE
2
VPORT
5
8
100
AcDbSymbolTable
0
ENDTAB
0
TABLE
2
LTYPE
5
5
100
AcDbSymbolTable
0
LTYPE
5
14
100
AcDbSymbolTableRecord
100
AcDbLinetypeTableRecord
2
BYBLOCK
70
0
0
LTYPE
5
15
100
AcDbSymbolTableRecord
100
AcDbLinetypeTableRecord
2
BYLAYER
70
0
0
ENDTAB
0
TABLE
2
LAYER
5
2
100
AcDbSymbolTable
70
2
0
LAYER
5
50
100
AcDbSymbolTableRecord
100
AcDbLayerTableRecord
2
0
70
0
6
CONTINUOUS
0
ENDTAB
0
TABLE
2
STYLE
5
3
100
AcDbSymbolTable
70
1
0
STYLE
5
11
100
AcDbSymbolTableRecord
100
AcDbTextStyleTableRecord
2
STANDARD
70
0
0
ENDTAB
0
TABLE
2
VIEW
5
6
100
AcDbSymbolTable
70
0
0
ENDTAB
0
TABLE
2
UCS
5
7
100
AcDbSymbolTable
70
0
0
ENDTAB
0
TABLE
2
APPID
5
9
100
AcDbSymbolTable
70
2
0
APPID
5
12
100
AcDbSymbolTableRecord
100
AcDbRegAppTableRecord
2
ACAD
70
0
0
ENDTAB
0
TABLE
2
DIMSTYLE
5
A
100
AcDbSymbolTable
70
1
0
ENDTAB
0
TABLE
2
BLOCK_RECORD
5
1
100
AcDbSymbolTable
70
1
0
BLOCK_RECORD
5
1F
100
AcDbSymbolTableRecord
100
AcDbBlockTableRecord
2
*MODEL_SPACE
0
BLOCK_RECORD
5
1B
100
AcDbSymbolTableRecord
100
AcDbBlockTableRecord
2
*PAPER_SPACE
0
ENDTAB
0
ENDSEC
0
SECTION
2
BLOCKS
0
BLOCK
5
20
100
AcDbEntity
100
AcDbBlockBegin
2
*MODEL_SPACE
0
ENDBLK
5
21
100
AcDbEntity
100
AcDbBlockEnd
0
BLOCK
5
1C
100
AcDbEntity
100
AcDbBlockBegin
2
*PAPER_SPACE
0
ENDBLK
5
1D
100
AcDbEntity
100
AcDbBlockEnd
0
ENDSEC
0
SECTION
2
ENTITIES
0
LINE
5
100
100
AcDbEntity
8
0
100
AcDbLine
10
-39.000000596046448
20
-15.000000223517429
30
0
11
39.000000596046455
21
-15.000000223517418
31
0
0
ARC
5
101
100
AcDbEntity
8
0
100
AcDbCircle
10
39.000000596046448
20
-16.000000223517418
30
0
40
0.99999999999999645
210
0
220
-0
230
1
100
AcDbArc
50
0
51
89.999999999999588
0
LINE
5
102
100
AcDbEntity
8
0
100
AcDbLine
10
40.000000596046448
20
-16.000000223517418
30
0
11
40.000000596046448
21
-16.528783998121533
31
0
0
SPLINE
5
103
100
AcDbEntity
8
0
100
AcDbSpline
70
0
71
3
72
26
73
22
74
0
42
0.000000001
43
0.0000000001
44
0.0000000001
40
7.8789585251158158e-05
40
7.8789585251158158e-05
40
7.8789585251158158e-05
40
7.8789585251158158e-05
40
0.17806407465490978
40
0.17806407465490978
40
0.17806407465490978
40
0.32168374434649816
40
0.32168374434649816
40
0.32168374434649816
40
0.46493935486922322
40
0.46493935486922322
40
0.46493935486922322
40
0.61657709893955204
40
0.61657709893955204
40
0.61657709893955204
40
0.76596124473358451
40
0.76596124473358451
40
0.76596124473358451
40
0.92384891147087056
40
0.92384891147087056
40
0.92384891147087056
40
0.9262629822270394
40
0.9262629822270394
40
0.9262629822270394
40
0.9262629822270394
10
29.988680401200178
20
17.00000029802322
30
0
10
38.408196116282205
20
16.936069359939914
30
0
10
45.148889624408284
20
15.987396557551472
30
0
10
50.095779823053363
20
14.290020766891324
30
0
10
54.087518443759578
20
12.920376358918491
30
0
10
56.878547317891829
20
11.090034617426774
30
0
10
58.733883533934019
20
8.9929357387682263
30
0
10
60.584516688325785
20
6.9011527620082704
30
0
10
61.579063123112341
20
4.4976264699196591
30
0
10
61.895084545184702
20
1.9328839289425248
30
0
10
62.2295969272554
20
-0.78192613410405509
30
0
10
61.775027349389305
20
-3.6231609125581885
30
0
10
60.549835058959772
20
-6.1333889491562683
30
0
10
59.342851238003142
20
-8.6063106698956506
30
0
10
57.426497161645933
20
-10.775956765087265
30
0
10
54.377971287285291
20
-12.542808986041338
30
0
10
51.155911578521504
20
-14.410237240580878
30
0
10
46.584154763008939
20
-15.809134286614409
30
0
10
40.289898813730993
20
-16.49768874554518
30
0
10
40.193660902733946
20
-16.508216605115745
30
0
10
40.097028206000537
20
-16.518581777759408
30
0
10
40.000000596046448
20
-16.528783998121533
30
0
0
LINE
5
104
100
AcDbEntity
8
0
100
AcDbLine
10
29.988680401200178
20
17.00000029802322
30
0
11
-29.988680401200178
21
17.00000029802322
31
0
0
SPLINE
5
105
100
AcDbEntity
8
0
100
AcDbSpline
70
0
71
3
72
26
73
22
74
0
42
0.000000001
43
0.0000000001
44
0.0000000001
40
7.8789585251158158e-05
40
7.8789585251158158e-05
40
7.8789585251158158e-05
40
7.8789585251158158e-05
40
0.17806407465490978
40
0.17806407465490978
40
0.17806407465490978
40
0.32168374434649816
40
0.32168374434649816
40
0.32168374434649816
40
0.46493935486922322
40
0.46493935486922322
40
0.46493935486922322
40
0.61657709893955204
40
0.61657709893955204
40
0.61657709893955204
40
0.76596124473358451
40
0.76596124473358451
40
0.76596124473358451
40
0.92384891147087056
40
0.92384891147087056
40
0.92384891147087056
40
0.9262629822270394
40
0.9262629822270394
40
0.9262629822270394
40
0.9262629822270394
10
-29.988680401200178
20
17.00000029802322
30
0
10
-38.408196116282205
20
16.936069359939914
30
0
10
-45.148889624408284
20
15.987396557551472
30
0
10
-50.095779823053363
20
14.290020766891324
30
0
10
-54.087518443759578
20
12.920376358918491
30
0
10
-56.878547317891829
20
11.090034617426774
30
0
10
-58.733883533934019
20
8.9929357387682263
30
0
10
-60.584516688325785
20
6.9011527620082704
30
0
10
-61.579063123112341
20
4.4976264699196591
30
0
10
-61.895084545184702
20
1.9328839289425248
30
0
10
-62.2295969272554
20
-0.78192613410405509
30
0
10
-61.775027349389305
20
-3.6231609125581885
30
0
10
-60.549835058959772
20
-6.1333889491562683
30
0
10
-59.342851238003142
20
-8.6063106698956506
30
0
10
-57.426497161645933
20
-10.775956765087265
30
0
10
-54.377971287285291
20
-12.542808986041338
30
0
10
-51.155911578521504
20
-14.410237240580878
30
0
10
-46.584154763008939
20
-15.809134286614409
30
0
10
-40.289898813730993
20
-16.49768874554518
30
0
10
-40.193660902733946
20
-16.508216605115745
30
0
10
-40.097028206000537
20
-16.518581777759408
30
0
10
-40.000000596046448
20
-16.528783998121533
30
0
0
LINE
5
106
100
AcDbEntity
8
0
100
AcDbLine
10
-40.000000596046441
20
-16.528783998121533
30
0
11
-40.000000596046448
21
-16.000000223517432
31
0
0
ARC
5
107
100
AcDbEntity
8
0
100
AcDbCircle
10
-39.000000596046448
20
-16.000000223517432
30
0
40
1.0000000000000031
210
0
220
-0
230
1
100
AcDbArc
50
90
51
180
0
SPLINE
5
108
100
AcDbEntity
8
0
100
AcDbSpline
70
0
71
3
72
18
73
14
74
0
42
0.000000001
43
0.0000000001
44
0.0000000001
40
0
40
0
40
0
40
0
40
0.078128894677385305
40
0.078128894677385305
40
0.15625778935477103
40
0.15625778935477103
40
0.23438668403215673
40
0.23438668403215673
40
0.31251557870954227
40
0.31251557870954227
40
0.35820885177518913
40
0.35820885177518913
40
0.4039021248408361
40
0.4039021248408361
40
0.4039021248408361
40
0.4039021248408361
10
52.857873610946129
20
-13.340186753843961
30
0
10
52.622618478467459
20
-13.451894518486556
30
0
10
52.367793502833223
20
-13.516583737344384
30
0
10
51.847690532788341
20
-13.544642759182073
30
0
10
51.587385006249342
20
-13.50774430261982
30
0
10
51.095569505226138
20
-13.336245261487516
30
0
10
50.868761554991877
20
-13.203284301224894
30
0
10
50.478877933915392
20
-12.857907448826989
30
0
10
50.319529762993646
20
-12.648793547645559
30
0
10
50.137612883180196
20
-12.278306006693125
30
0
10
50.086318282692488
20
-12.13436517549335
30
0
10
50.01739970508681
20
-11.837641932137601
30
0
10
50.000000745058045
20
-11.685828312473248
30
0
10
50.000000745058045
20
-11.533517402254425
30
0
0
SPLINE
5
109
100
AcDbEntity
8
0
100
AcDbSpline
70
0
71
3
72
20
73
16
74
0
42
0.000000001
43
0.0000000001
44
0.0000000001
40
-4.90788538677376
40
-4.90788538677376
40
-4.90788538677376
40
-4.90788538677376
40
-4.4434652807569499
40
-4.4434652807569499
40
-3.6603572233044526
40
-3.6603572233044526
40
-2.7549188991582065
40
-2.7549188991582065
40
-1.8581888140044902
40
-1.8581888140044902
40
-1.1895860741458555
40
-1.1895860741458555
40
-0.68715910553585924
40
-0.68715910553585924
40
-0.27678114334453108
40
-0.27678114334453108
40
-0.27678114334453108
40
-0.27678114334453108
10
52.857873610946129
20
-13.340186753843961
30
0
10
53.721310654306052
20
-12.930195179984903
30
0
10
54.558896091502575
20
-12.464948969228953
30
0
10
56.701532374861507
20
-11.045683724425171
30
0
10
57.904835324192291
20
-9.992630124775852
30
0
10
60.07823191141398
20
-7.2687844705399174
30
0
10
60.932764500878072
20
-5.5889510093861858
30
0
10
61.950483848453175
20
-2.02162023984478
30
0
10
62.116514759100866
20
-0.14933588986973279
30
0
10
61.779402984810893
20
3.0527853964580376
30
0
10
61.414275763441594
20
4.6564603352302845
30
0
10
59.95675193717382
20
7.5176660501410852
30
0
10
58.972423960699572
20
8.9773450889351594
30
0
10
55.872935209725583
20
11.608406983916542
30
0
10
54.324568205885591
20
12.503109292309118
30
0
10
52.842589017760567
20
13.191534232899421
30
0
0
SPLINE
5
110
100
AcDbEntity
8
0
100
AcDbSpline
70
0
71
3
72
18
73
14
74
0
42
0.000000001
43
0.0000000001
44
0.0000000001
40
0
40
0
40
0
40
0
40
0.078128894677385541
40
0.078128894677385541
40
0.156257789354771
40
0.156257789354771
40
0.23438668403215707
40
0.23438668403215707
40
0.3125155787095425
40
0.3125155787095425
40
0.3573618319375555
40
0.3573618319375555
40
0.4022080851655675
40
0.4022080851655675
40
0.4022080851655675
40
0.4022080851655675
10
50.00000074505806
20
11.377686112823159
30
0
10
50.00000074505806
20
11.638115761747779
30
0
10
50.050868446587309
20
11.896055561283552
30
0
10
50.248612871927101
20
12.377918145847904
30
0
10
50.393599051252352
20
12.597234061932646
30
0
10
50.759477668648188
20
12.967945871143666
30
0
10
50.976872107717227
20
13.115797557320343
30
0
10
51.456098284392965
20
13.319848236674169
30
0
10
51.713348358552196
20
13.374096394140478
30
0
10
52.123230222413348
20
13.379475565234173
30
0
10
52.272454704070419
20
13.36467261405857
30
0
10
52.56480690840035
20
13.302092648283848
30
0
10
52.707015197577086
20
13.254512444640374
30
0
10
52.842589017760574
20
13.191534232899425
30
0
0
LINE
5
111
100
AcDbEntity
8
0
100
AcDbLine
10
50.00000074505806
20
11.377686112823159
30
0
11
50.00000074505806
21
7.7459668078387347
31
0
0
ARC
5
112
100
AcDbEntity
8
0
100
AcDbCircle
10
48.000000715255737
20
3.3306690738754696e-15
30
0
40
8.0000001192092896
210
0
220
0
230
1
100
AcDbArc
50
-75.522487814070075
51
75.522487814070075
0
LINE
5
113
100
AcDbEntity
8
0
100
AcDbLine
10
50.00000074505806
20
-7.7459668078387285
30
0
11
50.000000745058045
21
-11.533517402254425
31
0
0
CIRCLE
5
114
100
AcDbEntity
8
0
100
AcDbCircle
10
59.000000894069665
20
-2.980232231337976e-07
30
0
40
1.5000000000000036
210
0
220
-0
230
1
0
CIRCLE
5
115
100
AcDbEntity
8
0
100
AcDbCircle
10
47.999999999999986
20
-0.099999999999895561
30
1.1102230246251565e-15
40
6.5
210
0
220
0
230
1
0
CIRCLE
5
116
100
AcDbEntity
8
0
100
AcDbCircle
10
31.999999999999996
20
-0.10000000000003091
30
0
40
6.5
210
0
220
-0
230
1
0
CIRCLE
5
117
100
AcDbEntity
8
0
100
AcDbCircle
10
31.999999999999996
20
-0.10000000000003091
30
0
40
6.5
210
0
220
0
230
1
0
CIRCLE
5
118
100
AcDbEntity
8
0
100
AcDbCircle
10
7.9999999999999938
20
-0.10000000000005077
30
2.7755575615628914e-16
40
6.5
210
0
220
-0
230
1
0
CIRCLE
5
119
100
AcDbEntity
8
0
100
AcDbCircle
10
7.9999999999999938
20
-0.10000000000005077
30
2.7755575615628914e-16
40
6.5
210
0
220
0
230
1
0
CIRCLE
5
120
100
AcDbEntity
8
0
100
AcDbCircle
10
20.00000037252903
20
-2.9802322010219484e-07
30
0
40
2
210
0
220
-0
230
1
0
CIRCLE
5
121
100
AcDbEntity
8
0
100
AcDbCircle
10
20.00000037252903
20
-2.9802322010219484e-07
30
0
40
2
210
0
220
0
230
1
0
CIRCLE
5
122
100
AcDbEntity
8
0
100
AcDbCircle
10
-8.0000000000000036
20
-0.10000000000004411
30
-2.7755575615628914e-16
40
6.5
210
0
220
-0
230
1
0
CIRCLE
5
123
100
AcDbEntity
8
0
100
AcDbCircle
10
-8.0000000000000036
20
-0.10000000000004411
30
-2.7755575615628914e-16
40
6.5
210
0
220
0
230
1
0
CIRCLE
5
124
100
AcDbEntity
8
0
100
AcDbCircle
10
-19.99999962747097
20
-2.9802322010219484e-07
30
0
40
2
210
0
220
-0
230
1
0
CIRCLE
5
125
100
AcDbEntity
8
0
100
AcDbCircle
10
-19.99999962747097
20
-2.9802322010219484e-07
30
0
40
2
210
0
220
0
230
1
0
CIRCLE
5
126
100
AcDbEntity
8
0
100
AcDbCircle
10
-32.000000000000007
20
-0.1000000000000484
30
-2.7755575615628914e-16
40
6.5
210
0
220
-0
230
1
0
CIRCLE
5
127
100
AcDbEntity
8
0
100
AcDbCircle
10
-32.000000000000007
20
-0.1000000000000484
30
-2.7755575615628914e-16
40
6.5
210
0
220
0
230
1
0
CIRCLE
5
128
100
AcDbEntity
8
0
100
AcDbCircle
10
-48.000000000000007
20
-0.10000000000004174
30
2.7755575615628914e-16
40
6.5
210
0
220
-0
230
1
0
CIRCLE
5
129
100
AcDbEntity
8
0
100
AcDbCircle
10
-48.000000000000007
20
-0.10000000000004174
30
2.7755575615628914e-16
40
6.5
210
0
220
0
230
1
0
SPLINE
5
130
100
AcDbEntity
8
0
100
AcDbSpline
70
0
71
3
72
18
73
14
74
0
42
0.000000001
43
0.0000000001
44
0.0000000001
40
0
40
0
40
0
40
0
40
0.078128894677385541
40
0.078128894677385541
40
0.15625778935477103
40
0.15625778935477103
40
0.23438668403215701
40
0.23438668403215701
40
0.3125155787095425
40
0.3125155787095425
40
0.35820885177518907
40
0.35820885177518907
40
0.40390212484083626
40
0.40390212484083626
40
0.40390212484083626
40
0.40390212484083626
10
-50.00000074505806
20
-11.533517402254429
30
0
10
-50.00000074505806
20
-11.793947051179048
30
0
10
-50.050868446587309
20
-12.051886850714821
30
0
10
-50.248612871927101
20
-12.533749435279173
30
0
10
-50.393599051252352
20
-12.753065351363915
30
0
10
-50.759477668648188
20
-13.123777160574937
30
0
10
-50.976872107717227
20
-13.271628846751611
30
0
10
-51.456098284392965
20
-13.475679526105434
30
0
10
-51.713348358552196
20
-13.529927683571747
30
0
10
-52.126053378763956
20
-13.535343904953276
30
0
10
-52.278082245811923
20
-13.519938629565036
30
0
10
-52.575684329491217
20
-13.454919760946094
30
0
10
-52.720285884243623
20
-13.405518452371691
30
0
10
-52.857873610946143
20
-13.34018675384397
30
0
0
LINE
5
131
100
AcDbEntity
8
0
100
AcDbLine
10
-50.00000074505806
20
-11.533517402254429
30
0
11
-50.00000074505806
21
-7.7459668078387303
31
0
0
ARC
5
132
100
AcDbEntity
8
0
100
AcDbCircle
10
-48.000000715255737
20
1.6653345369377348e-15
30
0
40
8.0000001192092878
210
0
220
0
230
1
100
AcDbArc
50
104.47751218592992
51
255.52248781407008
0
LINE
5
133
100
AcDbEntity
8
0
100
AcDbLine
10
-50.00000074505806
20
7.7459668078387338
30
0
11
-50.00000074505806
21
11.377686112823159
31
0
0
SPLINE
5
134
100
AcDbEntity
8
0
100
AcDbSpline
70
0
71
3
72
18
73
14
74
0
42
0.000000001
43
0.0000000001
44
0.0000000001
40
0
40
0
40
0
40
0
40
0.078128894677385513
40
0.078128894677385513
40
0.15625778935477072
40
0.15625778935477072
40
0.23438668403215654
40
0.23438668403215654
40
0.31251557870954172
40
0.31251557870954172
40
0.35736183193755466
40
0.35736183193755466
40
0.40220808516556728
40
0.40220808516556728
40
0.40220808516556728
40
0.40220808516556728
10
-52.842589017760574
20
13.191534232899421
30
0
10
-52.606399103203557
20
13.301251716923382
30
0
10
-52.351037028579213
20
13.363787099603705
30
0
10
-51.830715690113848
20
13.387453803928661
30
0
10
-51.570730981865587
20
13.348358858980593
30
0
10
-51.080381006626673
20
13.17271344930759
30
0
10
-50.85470375266069
20
13.037842250433274
30
0
10
-50.467750103868056
20
12.68918585533622
30
0
10
-50.310173196829908
20
12.47873400428303
30
0
10
-50.132613871300549
20
12.109268493414289
30
0
10
-50.083171624759089
20
11.967696824121795
30
0
10
-50.016760631962988
20
11.676191003375841
30
0
10
-50.00000074505806
20
11.527173623583202
30
0
10
-50.00000074505806
20
11.377686112823159
30
0
0
SPLINE
5
135
100
AcDbEntity
8
0
100
AcDbSpline
70
0
71
3
72
20
73
16
74
0
42
0.000000001
43
0.0000000001
44
0.0000000001
40
-3.4024829908183238
40
-3.4024829908183238
40
-3.4024829908183238
40
-3.4024829908183238
40
-3.2428728978999306
40
-3.2428728978999306
40
-2.8767438301326331
40
-2.8767438301326331
40
-2.2917800341958294
40
-2.2917800341958294
40
-1.6663602258912735
40
-1.6663602258912735
40
-1.1407863014416553
40
-1.1407863014416553
40
-0.69120338350617139
40
-0.69120338350617139
40
-0.28447356640086024
40
-0.28447356640086024
40
-0.28447356640086024
40
-0.28447356640086024
10
-52.842589017760574
20
13.191534232899421
30
0
10
-53.668792253040969
20
12.807737403820443
30
0
10
-54.474278941106149
20
12.378300521963663
30
0
10
-56.994436323929058
20
10.80171061698733
30
0
10
-58.104479487135698
20
9.7169145408687498
30
0
10
-59.932650915020275
20
7.6160862269781271
30
0
10
-60.777047164777713
20
6.1571880912698242
30
0
10
-61.891521263226082
20
2.7944257994803312
30
0
10
-62.098512637320539
20
0.92760471963092217
30
0
10
-61.844408539830262
20
-2.4385602308690353
30
0
10
-61.469291374716938
20
-4.3117959432811013
30
0
10
-59.608696988900533
20
-8.0033379167321623
30
0
10
-58.461322734598909
20
-9.4473228554069628
30
0
10
-55.713279507895017
20
-11.805079715753555
30
0
10
-54.270188930551583
20
-12.669567644873316
30
0
10
-52.857873610946129
20
-13.340186753843975
30
0
0
CIRCLE
5
136
100
AcDbEntity
8
0
100
AcDbCircle
10
-58.999999105930343
20
-2.980232231337976e-07
30
0
40
1.5000000000000036
210
0
220
-0
230
1
0
LWPOLYLINE
5
137
100
AcDbEntity
8
0
100
AcDbPolyline
90
2
70
1
43
0.0
10
-17.499999627470977
20
16.999999776482582
10
-17.499999627470977
20
13.999999776482584
0
LWPOLYLINE
5
138
100
AcDbEntity
8
0
100
AcDbPolyline
90
2
70
1
43
0.0
10
17.500000372529026
20
16.999999776482582
10
-17.499999627470977
20
16.999999776482582
0
LWPOLYLINE
5
139
100
AcDbEntity
8
0
100
AcDbPolyline
90
2
70
1
43
0.0
10
17.500000372529026
20
13.999999776482584
10
17.500000372529026
20
16.999999776482582
0
CIRCLE
5
140
100
AcDbEntity
8
0
100
AcDbCircle
10
59.000000894069665
20
-2.9802322535424365e-07
30
0
40
1.5000000000000036
210
0
220
-0
230
1
0
SPLINE
5
141
100
AcDbEntity
8
0
100
AcDbSpline
70
0
71
3
72
18
73
14
74
0
42
0.000000001
43
0.0000000001
44
0.0000000001
40
0
40
0
40
0
40
0
40
0.078128894677385541
40
0.078128894677385541
40
0.156257789354771
40
0.156257789354771
40
0.2343866840321569
40
0.2343866840321569
40
0.31251557870954233
40
0.31251557870954233
40
0.35820885177518891
40
0.35820885177518891
40
0.4039021248408361
40
0.4039021248408361
40
0.4039021248408361
40
0.4039021248408361
10
50.000000745058053
20
-11.533517402254432
30
0
10
50.000000745058053
20
-11.79394705117905
30
0
10
50.050868446587302
20
-12.051886850714823
30
0
10
50.248612871927094
20
-12.533749435279177
30
0
10
50.393599051252345
20
-12.753065351363917
30
0
10
50.759477668648181
20
-13.123777160574939
30
0
10
50.976872107717213
20
-13.271628846751613
30
0
10
51.456098284392951
20
-13.475679526105438
30
0
10
51.713348358552189
20
-13.529927683571749
30
0
10
52.126053378763942
20
-13.53534390495328
30
0
10
52.278082245811916
20
-13.519938629565036
30
0
10
52.57568432949121
20
-13.454919760946094
30
0
10
52.720285884243616
20
-13.405518452371691
30
0
10
52.857873610946136
20
-13.34018675384397
30
0
0
LINE
5
142
100
AcDbEntity
8
0
100
AcDbLine
10
50.000000745058053
20
-11.533517402254432
30
0
11
50.00000074505806
21
-7.745966807838732
31
0
0
ARC
5
143
100
AcDbEntity
8
0
100
AcDbCircle
10
48.000000715255737
20
0
30
0
40
8.0000001192092896
210
-0
220
0
230
1
100
AcDbArc
50
-75.522487814070075
51
75.522487814070075
0
LINE
5
144
100
AcDbEntity
8
0
100
AcDbLine
10
50.00000074505806
20
7.7459668078387311
30
0
11
50.00000074505806
21
11.377686112823158
31
0
0
SPLINE
5
145
100
AcDbEntity
8
0
100
AcDbSpline
70
0
71
3
72
18
73
14
74
0
42
0.000000001
43
0.0000000001
44
0.0000000001
40
0
40
0
40
0
40
0
40
0.078128894677385458
40
0.078128894677385458
40
0.15625778935477069
40
0.15625778935477069
40
0.23438668403215651
40
0.23438668403215651
40
0.31251557870954239
40
0.31251557870954239
40
0.357361831937555
40
0.357361831937555
40
0.40220808516556766
40
0.40220808516556766
40
0.40220808516556766
40
0.40220808516556766
10
52.842589017760574
20
13.191534232899421
30
0
10
52.606399103203557
20
13.301251716923382
30
0
10
52.351037028579213
20
13.363787099603703
30
0
10
51.830715690113848
20
13.387453803928659
30
0
10
51.570730981865587
20
13.348358858980591
30
0
10
51.080381006626673
20
13.172713449307587
30
0
10
50.85470375266069
20
13.037842250433272
30
0
10
50.467750103868056
20
12.689185855336216
30
0
10
50.310173196829908
20
12.47873400428303
30
0
10
50.132613871300542
20
12.109268493414287
30
0
10
50.083171624759089
20
11.967696824121791
30
0
10
50.016760631962988
20
11.676191003375839
30
0
10
50.00000074505806
20
11.527173623583201
30
0
10
50.00000074505806
20
11.377686112823158
30
0
0
SPLINE
5
146
100
AcDbEntity
8
0
100
AcDbSpline
70
0
71
3
72
20
73
16
74
0
42
0.000000001
43
0.0000000001
44
0.0000000001
40
0.21360402891544605
40
0.21360402891544605
40
0.21360402891544605
40
0.21360402891544605
40
0.32168374434649816
40
0.32168374434649816
40
0.32168374434649816
40
0.46493935486922322
40
0.46493935486922322
40
0.46493935486922322
40
0.61657709893955204
40
0.61657709893955204
40
0.61657709893955204
40
0.76596124473358451
40
0.76596124473358451
40
0.76596124473358451
40
0.78932286772227866
40
0.78932286772227866
40
0.78932286772227866
40
0.78932286772227866
10
52.842589017760574
20
13.191534232899418
30
0
10
55.411549925214516
20
11.998172831967519
30
0
10
57.337666632103122
20
10.571088999550089
30
0
10
58.733883533934019
20
8.9929357387682263
30
0
10
60.584516688325785
20
6.9011527620082704
30
0
10
61.579063123112341
20
4.4976264699196591
30
0
10
61.895084545184702
20
1.9328839289425248
30
0
10
62.2295969272554
20
-0.78192613410405509
30
0
10
61.775027349389305
20
-3.6231609125581885
30
0
10
60.549835058959772
20
-6.1333889491562683
30
0
10
59.342851238003142
20
-8.6063106698956506
30
0
10
57.426497161645933
20
-10.775956765087265
30
0
10
54.377971287285291
20
-12.542808986041338
30
0
10
53.901223826773062
20
-12.819120339185714
30
0
10
53.394927152802282
20
-13.085174036280506
30
0
10
52.857873610946143
20
-13.34018675384397
30
0
0
CIRCLE
5
147
100
AcDbEntity
8
0
100
AcDbCircle
10
-58.999999105930343
20
-2.9802322535424365e-07
30
0
40
1.5000000000000036
210
0
220
-0
230
1
0
SPLINE
5
148
100
AcDbEntity
8
0
100
AcDbSpline
70
0
71
3
72
18
73
14
74
0
42
0.000000001
43
0.0000000001
44
0.0000000001
40
0
40
0
40
0
40
0
40
0.078128894677385305
40
0.078128894677385305
40
0.15625778935477114
40
0.15625778935477114
40
0.23438668403215585
40
0.23438668403215585
40
0.31251557870954128
40
0.31251557870954128
40
0.35820885177518819
40
0.35820885177518819
40
0.40390212484083504
40
0.40390212484083504
40
0.40390212484083504
40
0.40390212484083504
10
-52.857873610946136
20
-13.340186753843962
30
0
10
-52.622618478467473
20
-13.451894518486558
30
0
10
-52.367793502833237
20
-13.516583737344384
30
0
10
-51.847690532788349
20
-13.544642759182073
30
0
10
-51.587385006249349
20
-13.50774430261982
30
0
10
-51.095569505226152
20
-13.336245261487518
30
0
10
-50.868761554991899
20
-13.203284301224894
30
0
10
-50.478877933915413
20
-12.857907448826991
30
0
10
-50.31952976299366
20
-12.648793547645562
30
0
10
-50.137612883180218
20
-12.278306006693128
30
0
10
-50.086318282692503
20
-12.134365175493357
30
0
10
-50.017399705086817
20
-11.837641932137608
30
0
10
-50.00000074505806
20
-11.685828312473255
30
0
10
-50.00000074505806
20
-11.533517402254432
30
0
0
SPLINE
5
149
100
AcDbEntity
8
0
100
AcDbSpline
70
0
71
3
72
20
73
16
74
0
42
0.000000001
43
0.0000000001
44
0.0000000001
40
0.213604028915446
40
0.213604028915446
40
0.213604028915446
40
0.213604028915446
40
0.32168374434649816
40
0.32168374434649816
40
0.32168374434649816
40
0.46493935486922322
40
0.46493935486922322
40
0.46493935486922322
40
0.61657709893955204
40
0.61657709893955204
40
0.61657709893955204
40
0.76596124473358451
40
0.76596124473358451
40
0.76596124473358451
40
0.78932286772227866
40
0.78932286772227866
40
0.78932286772227866
40
0.78932286772227866
10
-52.842589017760574
20
13.191534232899421
30
0
10
-55.411549925214523
20
11.998172831967524
30
0
10
-57.337666632103137
20
10.571088999550092
30
0
10
-58.733883533934019
20
8.9929357387682263
30
0
10
-60.584516688325785
20
6.9011527620082704
30
0
10
-61.579063123112341
20
4.4976264699196591
30
0
10
-61.895084545184702
20
1.9328839289425248
30
0
10
-62.2295969272554
20
-0.78192613410405509
30
0
10
-61.775027349389305
20
-3.6231609125581885
30
0
10
-60.549835058959772
20
-6.1333889491562683
30
0
10
-59.342851238003142
20
-8.6063106698956506
30
0
10
-57.426497161645933
20
-10.775956765087265
30
0
10
-54.377971287285291
20
-12.542808986041338
30
0
10
-53.901223826773062
20
-12.819120339185714
30
0
10
-53.394927152802282
20
-13.085174036280506
30
0
10
-52.857873610946143
20
-13.34018675384397
30
0
0
SPLINE
5
150
100
AcDbEntity
8
0
100
AcDbSpline
70
0
71
3
72
18
73
14
74
0
42
0.000000001
43
0.0000000001
44
0.0000000001
40
0
40
0
40
0
40
0
40
0.078128894677385527
40
0.078128894677385527
40
0.156257789354771
40
0.156257789354771
40
0.2343866840321569
40
0.2343866840321569
40
0.31251557870954233
40
0.31251557870954233
40
0.35736183193755422
40
0.35736183193755422
40
0.40220808516556733
40
0.40220808516556733
40
0.40220808516556733
40
0.40220808516556733
10
-50.00000074505806
20
11.377686112823158
30
0
10
-50.00000074505806
20
11.638115761747777
30
0
10
-50.050868446587309
20
11.89605556128355
30
0
10
-50.248612871927101
20
12.377918145847902
30
0
10
-50.393599051252352
20
12.597234061932642
30
0
10
-50.759477668648188
20
12.967945871143664
30
0
10
-50.976872107717227
20
13.115797557320338
30
0
10
-51.456098284392965
20
13.319848236674163
30
0
10
-51.713348358552196
20
13.374096394140476
30
0
10
-52.123230222413341
20
13.379475565234172
30
0
10
-52.272454704070412
20
13.364672614058563
30
0
10
-52.564806908400342
20
13.302092648283843
30
0
10
-52.707015197577086
20
13.254512444640373
30
0
10
-52.842589017760574
20
13.19153423289942
30
0
0
LINE
5
151
100
AcDbEntity
8
0
100
AcDbLine
10
-50.00000074505806
20
11.377686112823158
30
0
11
-50.00000074505806
21
7.745966807838732
31
0
0
ARC
5
152
100
AcDbEntity
8
0
100
AcDbCircle
10
-48.000000715255737
20
0
30
0
40
8.0000001192092896
210
0
220
0
230
1
100
AcDbArc
50
104.47751218592992
51
255.52248781407008
0
LINE
5
153
100
AcDbEntity
8
0
100
AcDbLine
10
-50.00000074505806
20
-7.7459668078387311
30
0
11
-50.00000074505806
21
-11.533517402254432
31
0
0
ENDSEC
0
SECTION
2
OBJECTS
0
DICTIONARY
5
C
100
AcDbDictionary
3
ACAD_GROUP
350
D
3
ACAD_MLINESTYLE
350
17
0
DICTIONARY
5
D
100
AcDbDictionary
0
DICTIONARY
5
1A
330
C
100
AcDbDictionary
0
DICTIONARY
5
17
100
AcDbDictionary
0
ENDSEC
0
EOF
