0
SECTION
2
HEADER
9
$INSUNITS
70
4
9
$ACADVER
1
AC1014
9
$HANDSEED
5
FFFF
0
ENDSEC
0
SECTION
2
TABLES
0
TABLE
2
VPORT
5
8
100
AcDbSymbolTable
0
ENDTAB
0
TABLE
2
LTYPE
5
5
100
AcDbSymbolTable
0
LTYPE
5
14
100
AcDbSymbolTableRecord
100
AcDbLinetypeTableRecord
2
BYBLOCK
70
0
0
LTYPE
5
15
100
AcDbSymbolTableRecord
100
AcDbLinetypeTableRecord
2
BYLAYER
70
0
0
ENDTAB
0
TABLE
2
LAYER
5
2
100
AcDbSymbolTable
70
2
0
LAYER
5
50
100
AcDbSymbolTableRecord
100
AcDbLayerTableRecord
2
0
70
0
6
CONTINUOUS
0
ENDTAB
0
TABLE
2
STYLE
5
3
100
AcDbSymbolTable
70
1
0
STYLE
5
11
100
AcDbSymbolTableRecord
100
AcDbTextStyleTableRecord
2
STANDARD
70
0
0
ENDTAB
0
TABLE
2
VIEW
5
6
100
AcDbSymbolTable
70
0
0
ENDTAB
0
TABLE
2
UCS
5
7
100
AcDbSymbolTable
70
0
0
ENDTAB
0
TABLE
2
APPID
5
9
100
AcDbSymbolTable
70
2
0
APPID
5
12
100
AcDbSymbolTableRecord
100
AcDbRegAppTableRecord
2
ACAD
70
0
0
ENDTAB
0
TABLE
2
DIMSTYLE
5
A
100
AcDbSymbolTable
70
1
0
ENDTAB
0
TABLE
2
BLOCK_RECORD
5
1
100
AcDbSymbolTable
70
1
0
BLOCK_RECORD
5
1F
100
AcDbSymbolTableRecord
100
AcDbBlockTableRecord
2
*MODEL_SPACE
0
BLOCK_RECORD
5
1B
100
AcDbSymbolTableRecord
100
AcDbBlockTableRecord
2
*PAPER_SPACE
0
ENDTAB
0
ENDSEC
0
SECTION
2
BLOCKS
0
BLOCK
5
20
100
AcDbEntity
100
AcDbBlockBegin
2
*MODEL_SPACE
0
ENDBLK
5
21
100
AcDbEntity
100
AcDbBlockEnd
0
BLOCK
5
1C
100
AcDbEntity
100
AcDbBlockBegin
2
*PAPER_SPACE
0
ENDBLK
5
1D
100
AcDbEntity
100
AcDbBlockEnd
0
ENDSEC
0
SECTION
2
ENTITIES
0
SPLINE
5
100
100
AcDbEntity
8
0
100
AcDbSpline
70
0
71
3
72
18
73
14
74
0
42
0.000000001
43
0.0000000001
44
0.0000000001
40
0
40
0
40
0
40
0
40
0.078128894677379448
40
0.078128894677379448
40
0.15625778935476478
40
0.15625778935476478
40
0.23438668403214996
40
0.23438668403214996
40
0.31251557870953584
40
0.31251557870953584
40
0.35721025616939861
40
0.35721025616939861
40
0.40190493362926061
40
0.40190493362926061
40
0.40190493362926061
40
0.40190493362926061
10
52.839847252907674
20
-13.902075582540199
30
0
10
52.6034918201293
20
-14.011436048135113
30
0
10
52.348035543366109
20
-14.073585496287965
30
0
10
51.827679037499898
20
-14.096465945555686
30
0
10
51.567753700209167
20
-14.056978197104751
30
0
10
51.077669692574887
20
-13.880592047940157
30
0
10
50.85219649246072
20
-13.745379994950394
30
0
10
50.465770120311902
20
-13.396139294195313
30
0
10
50.308511395013625
20
-13.185449577880103
30
0
10
50.131728716899993
20
-12.816171912140602
30
0
10
50.082614546889673
20
-12.675025967901771
30
0
10
50.016647530001769
20
-12.384455484686685
30
0
10
50.00000074505806
20
-12.235938604090872
30
0
10
50.00000074505806
20
-12.086956345891334
30
0
0
SPLINE
5
101
100
AcDbEntity
8
0
100
AcDbSpline
70
0
71
3
72
29
73
25
74
0
42
0.000000001
43
0.0000000001
44
0.0000000001
40
-0.79251305558961427
40
-0.79251305558961427
40
-0.79251305558961427
40
-0.79251305558961427
40
-0.76596124473358451
40
-0.76596124473358451
40
-0.76596124473358451
40
-0.73993349972402711
40
-0.73993349972402711
40
-0.73993349972402711
40
-0.61657709893955204
40
-0.61657709893955204
40
-0.61657709893955204
40
-0.46493935486922322
40
-0.46493935486922322
40
-0.46493935486922322
40
-0.45219957213060169
40
-0.45219957213060169
40
-0.45219957213060169
40
-0.32168374434649816
40
-0.32168374434649816
40
-0.32168374434649816
40
-0.31261442262259787
40
-0.31261442262259787
40
-0.31261442262259787
40
-0.21049165317994037
40
-0.21049165317994037
40
-0.21049165317994037
40
-0.21049165317994037
10
52.839847252907724
20
-13.90207558254019
30
0
10
53.473815219317942
20
-13.608741804831372
30
0
10
54.069359819488469
20
-13.299580252876709
30
0
10
54.628693047513778
20
-12.975404176661772
30
0
10
55.17283099263021
20
-12.660034920681298
30
0
10
55.683146916045757
20
-12.331315203057141
30
0
10
56.161114955963612
20
-11.990033372487929
30
0
10
58.395707487086092
20
-10.394475163765804
30
0
10
59.987890612618017
20
-8.4246556041357863
30
0
10
60.99917054505709
20
-6.3527006472794891
30
0
10
62.274445393596082
20
-3.7398612553105366
30
0
10
62.739422609428857
20
-0.83098029880296187
30
0
10
62.391331581987693
20
1.9940302981254217
30
0
10
62.362256376582096
20
2.22999663136437
30
0
10
62.327605573823057
20
2.4648320548233631
30
0
10
62.287244805278441
20
2.6983577028931234
30
0
10
61.880105080963794
20
5.0540504065741887
30
0
10
60.832891990967823
20
7.3749973468024503
30
0
10
59.108363179493146
20
9.3242437451035762
30
0
10
58.98683842511258
20
9.4616039841466044
30
0
10
58.861492672181598
20
9.5978040149538337
30
0
10
58.732319549918813
20
9.7327383708353992
30
0
10
57.277230771457965
20
11.252725374576585
30
0
10
55.335780452412564
20
12.612884112590441
30
0
10
52.82487218804809
20
13.749660595269475
30
0
0
SPLINE
5
102
100
AcDbEntity
8
0
100
AcDbSpline
70
0
71
3
72
18
73
14
74
0
42
0.000000001
43
0.0000000001
44
0.0000000001
40
0
40
0
40
0
40
0
40
0.078128894677385527
40
0.078128894677385527
40
0.15625778935477119
40
0.15625778935477119
40
0.23438668403215709
40
0.23438668403215709
40
0.3125155787095425
40
0.3125155787095425
40
0.35638428397041616
40
0.35638428397041616
40
0.40025298923129038
40
0.40025298923129038
40
0.40025298923129038
40
0.40025298923129038
10
50.00000074505806
20
11.927687186424132
30
0
10
50.00000074505806
20
12.188116835348751
30
0
10
50.050868446587309
20
12.446056634884524
30
0
10
50.248612871927101
20
12.927919219448876
30
0
10
50.393599051252352
20
13.14723513553362
30
0
10
50.759477668648188
20
13.51794694474464
30
0
10
50.976872107717227
20
13.665798630921316
30
0
10
51.456098284392965
20
13.869849310275139
30
0
10
51.713348358552196
20
13.924097467741451
30
0
10
52.119972009761362
20
13.929433878994175
30
0
10
52.265958885663892
20
13.915311193376933
30
0
10
52.552233363406941
20
13.855489577957341
30
0
10
52.6916594972718
20
13.809970665620547
30
0
10
52.824872188048104
20
13.749660595269477
30
0
0
LINE
5
103
100
AcDbEntity
8
0
100
AcDbLine
10
50.00000074505806
20
11.927687186424132
30
0
11
50.00000074505806
21
9.7109304253694297
31
0
0
SPLINE
5
104
100
AcDbEntity
8
0
100
AcDbSpline
70
0
71
3
72
12
73
8
74
0
42
0.000000001
43
0.0000000001
44
0.0000000001
40
0
40
0
40
0
40
0
40
0.078128894677387081
40
0.078128894677387081
40
0.14959254366257413
40
0.14959254366257413
40
0.22105619264776058
40
0.22105619264776058
40
0.22105619264776058
40
0.22105619264776058
10
51.096686050545017
20
7.9265474612395828
30
0
10
50.864332936097306
20
8.0441724256198253
30
0
10
50.657176015199695
20
8.2060565612466441
30
0
10
50.331103530622613
20
8.5833103109753708
30
0
10
50.208775424591011
20
8.7899218010589948
30
0
10
50.04255952111037
20
9.2364107845466048
30
0
10
50.00000074505806
20
9.4727182620854702
30
0
10
50.00000074505806
20
9.7109304253694244
30
0
0
SPLINE
5
105
100
AcDbEntity
8
0
100
AcDbSpline
70
0
71
3
72
29
73
25
74
0
42
0.000000001
43
0.0000000001
44
0.0000000001
40
0.22425298313362108
40
0.22425298313362108
40
0.22425298313362108
40
0.22425298313362108
40
0.31261442262259787
40
0.31261442262259787
40
0.31261442262259787
40
0.32168374434649816
40
0.32168374434649816
40
0.32168374434649816
40
0.45219957213060169
40
0.45219957213060169
40
0.45219957213060169
40
0.46493935486922322
40
0.46493935486922322
40
0.46493935486922322
40
0.61657709893955204
40
0.61657709893955204
40
0.61657709893955204
40
0.73993349972402711
40
0.73993349972402711
40
0.73993349972402711
40
0.76596124473358451
40
0.76596124473358451
40
0.76596124473358451
40
0.77778662608735716
40
0.77778662608735716
40
0.77778662608735716
40
0.77778662608735716
10
51.096686050545003
20
7.926547461239581
30
0
10
52.616388117807169
20
7.1572231422814037
30
0
10
53.663560458775834
20
6.3509980529791381
30
0
10
54.39816109066907
20
5.5836335938848514
30
0
10
54.47343359266813
20
5.5050038728181585
30
0
10
54.545550280844282
20
5.4266034277299955
30
0
10
54.614607432783671
20
5.3485476690792115
30
0
10
55.572270759674325
20
4.2660944341399842
30
0
10
56.149543100432673
20
2.9804121791270872
30
0
10
56.374898869969726
20
1.6765135165131504
30
0
10
56.398444690475969
20
1.5402784250783284
30
0
10
56.418962248157953
20
1.4015271637925846
30
0
10
56.436367140351813
20
1.2602738679306307
30
0
10
56.644153531229186
20
-0.42606306652340664
30
0
10
56.365583104484614
20
-2.1670382185466401
30
0
10
55.607144711889305
20
-3.720960269800877
30
0
10
55.030361016407561
20
-4.9027001605598546
30
0
10
54.100568872091813
20
-6.0888001542016159
30
0
10
52.674524081130386
20
-7.1070338771439356
30
0
10
52.357440726091582
20
-7.3334397846796513
30
0
10
52.0072527756612
20
-7.5598380041685607
30
0
10
51.620031924772007
20
-7.7842618892165296
30
0
10
51.44397729170425
20
-7.8862989170341997
30
0
10
51.260726332740063
20
-7.9875623427159148
30
0
10
51.069722344920962
20
-8.0879234738514487
30
0
0
SPLINE
5
106
100
AcDbEntity
8
0
100
AcDbSpline
70
0
71
3
72
12
73
8
74
0
42
0.000000001
43
0.0000000001
44
0.0000000001
40
0
40
0
40
0
40
0
40
0.078128894677385069
40
0.078128894677385069
40
0.14806383430957107
40
0.14806383430957107
40
0.21799877394175954
40
0.21799877394175954
40
0.21799877394175954
40
0.21799877394175954
10
50.00000074505806
20
-9.8583985790812179
30
0
10
50.00000074505806
20
-9.5979689301566005
30
0
10
50.050868446587309
20
-9.3400291306208292
30
0
10
50.238243411701376
20
-8.8834347926647776
30
0
10
50.36377448201609
20
-8.6848965967261655
30
0
10
50.677533399904313
20
-8.3400364985939888
30
0
10
50.863358895580078
20
-8.1963550801093028
30
0
10
51.069722344920976
20
-8.0879234738514416
30
0
0
LINE
5
107
100
AcDbEntity
8
0
100
AcDbLine
10
50.00000074505806
20
-9.8583985790812179
30
0
11
50.000000745058067
21
-12.086956345891334
31
0
0
ENDSEC
0
SECTION
2
OBJECTS
0
DICTIONARY
5
C
100
AcDbDictionary
3
ACAD_GROUP
350
D
3
ACAD_MLINESTYLE
350
17
0
DICTIONARY
5
D
100
AcDbDictionary
0
DICTIONARY
5
1A
330
C
100
AcDbDictionary
0
DICTIONARY
5
17
100
AcDbDictionary
0
ENDSEC
0
EOF
