M48
METRIC,TZ
T1C0.400
T2C0.600
T3C0.800
T4C1.000
T5C1.100
%
G90
G05
T1
X55372Y-78994
X57150Y-78994
X58928Y-78994
X61468Y-87884
X61468Y-89916
X61468Y-91948
X61468Y-93980
X61468Y-96012
X61468Y-98044
X61468Y-100076
X61468Y-102108
X61722Y-108966
X62230Y-111760
X62230Y-113538
X62340Y-84472
X62340Y-104538
X62992Y-100330
X62992Y-101346
X63246Y-52070
X64008Y-100330
X64008Y-101346
X65024Y-112268
X65278Y-52070
X66294Y-87376
X66294Y-91440
X67310Y-52070
X67310Y-95250
X67310Y-96520
X67310Y-97790
X67818Y-49276
X68326Y-107950
X69342Y-73914
X69596Y-53340
X69596Y-70612
X69850Y-50800
X70612Y-87376
X70866Y-71628
X71120Y-53848
X71374Y-74422
X72136Y-72390
X72390Y-54610
X72390Y-89408
X72390Y-95250
X72390Y-96520
X72390Y-97790
X73660Y-55372
X74930Y-54610
X76200Y-55880
X76200Y-89408
X76200Y-100584
X76454Y-93980
X76454Y-94996
X76454Y-96012
X76962Y-97028
X76962Y-98298
X77216Y-99568
X77216Y-100838
X77470Y-54610
X78232Y-65024
X78500Y-100076
X78740Y-55880
X78953Y-70825
X80010Y-54610
X81280Y-55880
X81280Y-103124
X81534Y-101854
X82042Y-94488
X82296Y-106172
X82296Y-107188
X82550Y-54610
X82550Y-87630
X82550Y-90170
X82550Y-98806
X83312Y-106680
X83820Y-50800
X83883Y-91249
X84582Y-107188
X84600Y-72800
X85090Y-113030
X85344Y-84836
X85852Y-55372
X85940Y-107188
X86360Y-93218
X86360Y-95250
X86868Y-99568
X86962Y-106830
X87122Y-52324
X87417Y-91227
X87630Y-105918
X87884Y-93218
X87884Y-94996
X87884Y-96266
X87884Y-103632
X88392Y-98806
X88598Y-106917
X88646Y-89662
X88900Y-49276
X88900Y-113030
X89154Y-94996
X89408Y-93218
X90170Y-107188
X91186Y-107188
X91694Y-51054
X91694Y-55118
X92202Y-95250
X92456Y-106934
X92710Y-110490
X92964Y-54356
X93060Y-51308
X93218Y-95250
X93218Y-111252
X93472Y-106934
X93980Y-113030
X94234Y-95250
X94488Y-56642
X95504Y-55626
X96012Y-110236
X96012Y-112268
X96774Y-56642
X97028Y-110236
X97028Y-112268
X97790Y-111252
X98044Y-55626
X99314Y-56642
X100076Y-69596
X100838Y-55626
X100838Y-93726
X101346Y-72390
X102108Y-56642
X102108Y-89154
X102108Y-90424
X103124Y-87376
X103124Y-108204
X103124Y-109728
X103378Y-55626
X103632Y-95504
X104394Y-87376
X104648Y-56642
X104648Y-95504
X105664Y-55626
X105664Y-95504
X106680Y-50992
X106680Y-95504
X106680Y-110744
X107696Y-102616
X107950Y-50992
X108204Y-93726
X109220Y-49009
X109220Y-93726
X109728Y-87884
X109728Y-89408
X110236Y-93726
X111760Y-87884
X111760Y-88900
X112776Y-87884
X112776Y-88900
X112776Y-107188
X113792Y-53340
X113792Y-87884
X113792Y-88900
X115062Y-50800
X115062Y-58674
X115439Y-106041
X115824Y-104648
X116332Y-51562
X116332Y-54610
X117348Y-56642
X117348Y-104648
X117856Y-63246
X117856Y-68580
X118872Y-55626
X118872Y-104648
X120142Y-56642
X120396Y-104648
X121412Y-55372
X121412Y-94996
X121792Y-89026
X121792Y-91820
X122174Y-71882
X122174Y-95758
X122682Y-56642
X122682Y-100330
X123926Y-107468
X123952Y-55372
X123952Y-71882
X124460Y-68326
X124968Y-105918
X125222Y-54610
X125476Y-71628
X126492Y-55118
X127762Y-54356
X128270Y-88900
X128270Y-93980
X128270Y-99060
X128270Y-104140
X129032Y-53848
X129032Y-70104
X130048Y-51054
X131064Y-51054
X131572Y-52070
X132842Y-49263
X134112Y-60238
X137160Y-107188
X137414Y-52832
X137414Y-54864
X137414Y-57404
X138430Y-53848
X138430Y-56134
X138430Y-58674
X138684Y-60198
X138684Y-61976
X138938Y-64262
X138938Y-66548
X139700Y-107188
T2
X48070Y-65600
X48300Y-63700
X48750Y-67390
X49390Y-62130
X50180Y-68660
X51080Y-61240
X52040Y-69120
X53000Y-61240
X53900Y-68660
X54690Y-62130
X55330Y-67390
X55780Y-63700
X56010Y-65600
X64030Y-65580
X64260Y-63680
X64710Y-67370
X65350Y-62110
X66140Y-68640
X67040Y-61220
X68000Y-69100
X68960Y-61220
X69860Y-68640
X70650Y-62110
X71290Y-67370
X71740Y-63680
X71970Y-65580
X88000Y-65600
X88230Y-63700
X88680Y-67390
X89320Y-62130
X90110Y-68660
X91010Y-61240
X91970Y-69120
X92930Y-61240
X93830Y-68660
X94620Y-62130
X95260Y-67390
X95710Y-63700
X95940Y-65600
X103970Y-65600
X104200Y-63700
X104650Y-67390
X105290Y-62130
X106080Y-68660
X106980Y-61240
X107940Y-69120
X108900Y-61240
X109800Y-68660
X110590Y-62130
X111230Y-67390
X111680Y-63700
X111910Y-65600
X128070Y-65640
X128300Y-63740
X128750Y-67430
X129390Y-62170
X130180Y-68700
X131080Y-61280
X132040Y-69160
X133000Y-61280
X133900Y-68700
X134690Y-62170
X135330Y-67430
X135780Y-63740
X136010Y-65640
X144030Y-65580
X144260Y-63680
X144710Y-67370
X145350Y-62110
X146140Y-68640
X147040Y-61220
X148000Y-69100
X148960Y-61220
X149860Y-68640
X150650Y-62110
X151290Y-67370
X151740Y-63680
X151970Y-65580
T3
X80019Y-62500
X80019Y-67500
X119991Y-62524
X119991Y-67524
X132872Y-106824
X138372Y-86824
X147972Y-89224
X147972Y-104624
T4
X114180Y-77500
X114180Y-112500
X116720Y-77500
X116720Y-112500
X117094Y-88138
X117094Y-90678
X117094Y-93218
X117094Y-95758
X119260Y-77500
X119260Y-112500
X121800Y-77500
X121800Y-112500
X124340Y-77500
X124340Y-112500
X124709Y-85598
X126880Y-77500
X126880Y-112500
X127249Y-85598
X129420Y-77500
X129420Y-112500
X131960Y-77500
X131960Y-112500
X134500Y-77500
X134500Y-112500
X137040Y-77500
X137040Y-112500
X139580Y-77500
X139580Y-112500
X142120Y-77500
X142120Y-112500
X144660Y-77500
X144660Y-112500
X147200Y-77500
X147200Y-112500
T5
X84750Y-100750
X84750Y-105250
X91250Y-100750
X91250Y-105250
X94750Y-100750
X94750Y-105250
X101250Y-100750
X101250Y-105250
X104750Y-100750
X104750Y-105250
X111250Y-100750
X111250Y-105250
T2
G00X82680Y-108670
M15
G01X82680Y-109770
M16
G05
G00X82680Y-113000
M15
G01X82680Y-113800
M16
G05
G00X91320Y-108670
M15
G01X91320Y-109770
M16
G05
G00X91320Y-113000
M15
G01X91320Y-113800
M16
G05
T0
M30
