%TF.GenerationSoftware,KiCad,Pcbnew,(7.0.0)*%
%TF.CreationDate,2023-08-29T20:45:16+09:00*%
%TF.ProjectId,IN-16_Nixie_Clock,494e2d31-365f-44e6-9978-69655f436c6f,rev?*%
%TF.SameCoordinates,Original*%
%TF.FileFunction,Legend,Top*%
%TF.FilePolarity,Positive*%
%FSLAX46Y46*%
G04 Gerber Fmt 4.6, Leading zero omitted, Abs format (unit mm)*
G04 Created by KiCad (PCBNEW (7.0.0)) date 2023-08-29 20:45:16*
%MOMM*%
%LPD*%
G01*
G04 APERTURE LIST*
%ADD10C,0.150000*%
%ADD11C,0.100000*%
%ADD12C,0.120000*%
G04 APERTURE END LIST*
D10*
X129306571Y-110426571D02*
X129354190Y-110283714D01*
X129354190Y-110283714D02*
X129401809Y-110236095D01*
X129401809Y-110236095D02*
X129497047Y-110188476D01*
X129497047Y-110188476D02*
X129639904Y-110188476D01*
X129639904Y-110188476D02*
X129735142Y-110236095D01*
X129735142Y-110236095D02*
X129782761Y-110283714D01*
X129782761Y-110283714D02*
X129830380Y-110378952D01*
X129830380Y-110378952D02*
X129830380Y-110759904D01*
X129830380Y-110759904D02*
X128830380Y-110759904D01*
X128830380Y-110759904D02*
X128830380Y-110426571D01*
X128830380Y-110426571D02*
X128878000Y-110331333D01*
X128878000Y-110331333D02*
X128925619Y-110283714D01*
X128925619Y-110283714D02*
X129020857Y-110236095D01*
X129020857Y-110236095D02*
X129116095Y-110236095D01*
X129116095Y-110236095D02*
X129211333Y-110283714D01*
X129211333Y-110283714D02*
X129258952Y-110331333D01*
X129258952Y-110331333D02*
X129306571Y-110426571D01*
X129306571Y-110426571D02*
X129306571Y-110759904D01*
X129830380Y-109283714D02*
X129830380Y-109759904D01*
X129830380Y-109759904D02*
X128830380Y-109759904D01*
X129830380Y-108950380D02*
X128830380Y-108950380D01*
X129830380Y-108378952D02*
X129258952Y-108807523D01*
X128830380Y-108378952D02*
X129401809Y-108950380D01*
X132370380Y-110759904D02*
X131370380Y-110759904D01*
X131370380Y-110759904D02*
X131370380Y-110521809D01*
X131370380Y-110521809D02*
X131418000Y-110378952D01*
X131418000Y-110378952D02*
X131513238Y-110283714D01*
X131513238Y-110283714D02*
X131608476Y-110236095D01*
X131608476Y-110236095D02*
X131798952Y-110188476D01*
X131798952Y-110188476D02*
X131941809Y-110188476D01*
X131941809Y-110188476D02*
X132132285Y-110236095D01*
X132132285Y-110236095D02*
X132227523Y-110283714D01*
X132227523Y-110283714D02*
X132322761Y-110378952D01*
X132322761Y-110378952D02*
X132370380Y-110521809D01*
X132370380Y-110521809D02*
X132370380Y-110759904D01*
X132084666Y-109807523D02*
X132084666Y-109331333D01*
X132370380Y-109902761D02*
X131370380Y-109569428D01*
X131370380Y-109569428D02*
X132370380Y-109236095D01*
X131370380Y-109045618D02*
X131370380Y-108474190D01*
X132370380Y-108759904D02*
X131370380Y-108759904D01*
X137355142Y-75136476D02*
X137402761Y-75184095D01*
X137402761Y-75184095D02*
X137450380Y-75326952D01*
X137450380Y-75326952D02*
X137450380Y-75422190D01*
X137450380Y-75422190D02*
X137402761Y-75565047D01*
X137402761Y-75565047D02*
X137307523Y-75660285D01*
X137307523Y-75660285D02*
X137212285Y-75707904D01*
X137212285Y-75707904D02*
X137021809Y-75755523D01*
X137021809Y-75755523D02*
X136878952Y-75755523D01*
X136878952Y-75755523D02*
X136688476Y-75707904D01*
X136688476Y-75707904D02*
X136593238Y-75660285D01*
X136593238Y-75660285D02*
X136498000Y-75565047D01*
X136498000Y-75565047D02*
X136450380Y-75422190D01*
X136450380Y-75422190D02*
X136450380Y-75326952D01*
X136450380Y-75326952D02*
X136498000Y-75184095D01*
X136498000Y-75184095D02*
X136545619Y-75136476D01*
X137450380Y-74231714D02*
X137450380Y-74707904D01*
X137450380Y-74707904D02*
X136450380Y-74707904D01*
X137450380Y-73898380D02*
X136450380Y-73898380D01*
X137450380Y-73326952D02*
X136878952Y-73755523D01*
X136450380Y-73326952D02*
X137021809Y-73898380D01*
D11*
X147610380Y-75199904D02*
X146610380Y-75199904D01*
X147086571Y-75199904D02*
X147086571Y-74628476D01*
X147610380Y-74628476D02*
X146610380Y-74628476D01*
X146610380Y-74295142D02*
X147610380Y-73961809D01*
X147610380Y-73961809D02*
X146610380Y-73628476D01*
D10*
X139609428Y-110759904D02*
X139609428Y-109998000D01*
X139990380Y-110378952D02*
X139228476Y-110378952D01*
X138990380Y-109045619D02*
X138990380Y-109521809D01*
X138990380Y-109521809D02*
X139466571Y-109569428D01*
X139466571Y-109569428D02*
X139418952Y-109521809D01*
X139418952Y-109521809D02*
X139371333Y-109426571D01*
X139371333Y-109426571D02*
X139371333Y-109188476D01*
X139371333Y-109188476D02*
X139418952Y-109093238D01*
X139418952Y-109093238D02*
X139466571Y-109045619D01*
X139466571Y-109045619D02*
X139561809Y-108998000D01*
X139561809Y-108998000D02*
X139799904Y-108998000D01*
X139799904Y-108998000D02*
X139895142Y-109045619D01*
X139895142Y-109045619D02*
X139942761Y-109093238D01*
X139942761Y-109093238D02*
X139990380Y-109188476D01*
X139990380Y-109188476D02*
X139990380Y-109426571D01*
X139990380Y-109426571D02*
X139942761Y-109521809D01*
X139942761Y-109521809D02*
X139895142Y-109569428D01*
X138990380Y-108712285D02*
X139990380Y-108378952D01*
X139990380Y-108378952D02*
X138990380Y-108045619D01*
D11*
X62214095Y-79538380D02*
X62214095Y-78538380D01*
X62214095Y-78538380D02*
X62595047Y-78538380D01*
X62595047Y-78538380D02*
X62690285Y-78586000D01*
X62690285Y-78586000D02*
X62737904Y-78633619D01*
X62737904Y-78633619D02*
X62785523Y-78728857D01*
X62785523Y-78728857D02*
X62785523Y-78871714D01*
X62785523Y-78871714D02*
X62737904Y-78966952D01*
X62737904Y-78966952D02*
X62690285Y-79014571D01*
X62690285Y-79014571D02*
X62595047Y-79062190D01*
X62595047Y-79062190D02*
X62214095Y-79062190D01*
X63785523Y-79443142D02*
X63737904Y-79490761D01*
X63737904Y-79490761D02*
X63595047Y-79538380D01*
X63595047Y-79538380D02*
X63499809Y-79538380D01*
X63499809Y-79538380D02*
X63356952Y-79490761D01*
X63356952Y-79490761D02*
X63261714Y-79395523D01*
X63261714Y-79395523D02*
X63214095Y-79300285D01*
X63214095Y-79300285D02*
X63166476Y-79109809D01*
X63166476Y-79109809D02*
X63166476Y-78966952D01*
X63166476Y-78966952D02*
X63214095Y-78776476D01*
X63214095Y-78776476D02*
X63261714Y-78681238D01*
X63261714Y-78681238D02*
X63356952Y-78586000D01*
X63356952Y-78586000D02*
X63499809Y-78538380D01*
X63499809Y-78538380D02*
X63595047Y-78538380D01*
X63595047Y-78538380D02*
X63737904Y-78586000D01*
X63737904Y-78586000D02*
X63785523Y-78633619D01*
X64547428Y-79014571D02*
X64690285Y-79062190D01*
X64690285Y-79062190D02*
X64737904Y-79109809D01*
X64737904Y-79109809D02*
X64785523Y-79205047D01*
X64785523Y-79205047D02*
X64785523Y-79347904D01*
X64785523Y-79347904D02*
X64737904Y-79443142D01*
X64737904Y-79443142D02*
X64690285Y-79490761D01*
X64690285Y-79490761D02*
X64595047Y-79538380D01*
X64595047Y-79538380D02*
X64214095Y-79538380D01*
X64214095Y-79538380D02*
X64214095Y-78538380D01*
X64214095Y-78538380D02*
X64547428Y-78538380D01*
X64547428Y-78538380D02*
X64642666Y-78586000D01*
X64642666Y-78586000D02*
X64690285Y-78633619D01*
X64690285Y-78633619D02*
X64737904Y-78728857D01*
X64737904Y-78728857D02*
X64737904Y-78824095D01*
X64737904Y-78824095D02*
X64690285Y-78919333D01*
X64690285Y-78919333D02*
X64642666Y-78966952D01*
X64642666Y-78966952D02*
X64547428Y-79014571D01*
X64547428Y-79014571D02*
X64214095Y-79014571D01*
X66385523Y-79538380D02*
X66052190Y-79062190D01*
X65814095Y-79538380D02*
X65814095Y-78538380D01*
X65814095Y-78538380D02*
X66195047Y-78538380D01*
X66195047Y-78538380D02*
X66290285Y-78586000D01*
X66290285Y-78586000D02*
X66337904Y-78633619D01*
X66337904Y-78633619D02*
X66385523Y-78728857D01*
X66385523Y-78728857D02*
X66385523Y-78871714D01*
X66385523Y-78871714D02*
X66337904Y-78966952D01*
X66337904Y-78966952D02*
X66290285Y-79014571D01*
X66290285Y-79014571D02*
X66195047Y-79062190D01*
X66195047Y-79062190D02*
X65814095Y-79062190D01*
X67195047Y-79490761D02*
X67099809Y-79538380D01*
X67099809Y-79538380D02*
X66909333Y-79538380D01*
X66909333Y-79538380D02*
X66814095Y-79490761D01*
X66814095Y-79490761D02*
X66766476Y-79395523D01*
X66766476Y-79395523D02*
X66766476Y-79014571D01*
X66766476Y-79014571D02*
X66814095Y-78919333D01*
X66814095Y-78919333D02*
X66909333Y-78871714D01*
X66909333Y-78871714D02*
X67099809Y-78871714D01*
X67099809Y-78871714D02*
X67195047Y-78919333D01*
X67195047Y-78919333D02*
X67242666Y-79014571D01*
X67242666Y-79014571D02*
X67242666Y-79109809D01*
X67242666Y-79109809D02*
X66766476Y-79205047D01*
X67576000Y-78871714D02*
X67814095Y-79538380D01*
X67814095Y-79538380D02*
X68052190Y-78871714D01*
X68433143Y-79443142D02*
X68480762Y-79490761D01*
X68480762Y-79490761D02*
X68433143Y-79538380D01*
X68433143Y-79538380D02*
X68385524Y-79490761D01*
X68385524Y-79490761D02*
X68433143Y-79443142D01*
X68433143Y-79443142D02*
X68433143Y-79538380D01*
X69699809Y-78538380D02*
X69795047Y-78538380D01*
X69795047Y-78538380D02*
X69890285Y-78586000D01*
X69890285Y-78586000D02*
X69937904Y-78633619D01*
X69937904Y-78633619D02*
X69985523Y-78728857D01*
X69985523Y-78728857D02*
X70033142Y-78919333D01*
X70033142Y-78919333D02*
X70033142Y-79157428D01*
X70033142Y-79157428D02*
X69985523Y-79347904D01*
X69985523Y-79347904D02*
X69937904Y-79443142D01*
X69937904Y-79443142D02*
X69890285Y-79490761D01*
X69890285Y-79490761D02*
X69795047Y-79538380D01*
X69795047Y-79538380D02*
X69699809Y-79538380D01*
X69699809Y-79538380D02*
X69604571Y-79490761D01*
X69604571Y-79490761D02*
X69556952Y-79443142D01*
X69556952Y-79443142D02*
X69509333Y-79347904D01*
X69509333Y-79347904D02*
X69461714Y-79157428D01*
X69461714Y-79157428D02*
X69461714Y-78919333D01*
X69461714Y-78919333D02*
X69509333Y-78728857D01*
X69509333Y-78728857D02*
X69556952Y-78633619D01*
X69556952Y-78633619D02*
X69604571Y-78586000D01*
X69604571Y-78586000D02*
X69699809Y-78538380D01*
X70461714Y-79443142D02*
X70509333Y-79490761D01*
X70509333Y-79490761D02*
X70461714Y-79538380D01*
X70461714Y-79538380D02*
X70414095Y-79490761D01*
X70414095Y-79490761D02*
X70461714Y-79443142D01*
X70461714Y-79443142D02*
X70461714Y-79538380D01*
X70890285Y-78633619D02*
X70937904Y-78586000D01*
X70937904Y-78586000D02*
X71033142Y-78538380D01*
X71033142Y-78538380D02*
X71271237Y-78538380D01*
X71271237Y-78538380D02*
X71366475Y-78586000D01*
X71366475Y-78586000D02*
X71414094Y-78633619D01*
X71414094Y-78633619D02*
X71461713Y-78728857D01*
X71461713Y-78728857D02*
X71461713Y-78824095D01*
X71461713Y-78824095D02*
X71414094Y-78966952D01*
X71414094Y-78966952D02*
X70842666Y-79538380D01*
X70842666Y-79538380D02*
X71461713Y-79538380D01*
D10*
X139609428Y-75707904D02*
X139609428Y-74946000D01*
X139990380Y-75326952D02*
X139228476Y-75326952D01*
X138990380Y-73993619D02*
X138990380Y-74469809D01*
X138990380Y-74469809D02*
X139466571Y-74517428D01*
X139466571Y-74517428D02*
X139418952Y-74469809D01*
X139418952Y-74469809D02*
X139371333Y-74374571D01*
X139371333Y-74374571D02*
X139371333Y-74136476D01*
X139371333Y-74136476D02*
X139418952Y-74041238D01*
X139418952Y-74041238D02*
X139466571Y-73993619D01*
X139466571Y-73993619D02*
X139561809Y-73946000D01*
X139561809Y-73946000D02*
X139799904Y-73946000D01*
X139799904Y-73946000D02*
X139895142Y-73993619D01*
X139895142Y-73993619D02*
X139942761Y-74041238D01*
X139942761Y-74041238D02*
X139990380Y-74136476D01*
X139990380Y-74136476D02*
X139990380Y-74374571D01*
X139990380Y-74374571D02*
X139942761Y-74469809D01*
X139942761Y-74469809D02*
X139895142Y-74517428D01*
X138990380Y-73660285D02*
X139990380Y-73326952D01*
X139990380Y-73326952D02*
X138990380Y-72993619D01*
X124909142Y-110188476D02*
X124956761Y-110236095D01*
X124956761Y-110236095D02*
X125004380Y-110378952D01*
X125004380Y-110378952D02*
X125004380Y-110474190D01*
X125004380Y-110474190D02*
X124956761Y-110617047D01*
X124956761Y-110617047D02*
X124861523Y-110712285D01*
X124861523Y-110712285D02*
X124766285Y-110759904D01*
X124766285Y-110759904D02*
X124575809Y-110807523D01*
X124575809Y-110807523D02*
X124432952Y-110807523D01*
X124432952Y-110807523D02*
X124242476Y-110759904D01*
X124242476Y-110759904D02*
X124147238Y-110712285D01*
X124147238Y-110712285D02*
X124052000Y-110617047D01*
X124052000Y-110617047D02*
X124004380Y-110474190D01*
X124004380Y-110474190D02*
X124004380Y-110378952D01*
X124004380Y-110378952D02*
X124052000Y-110236095D01*
X124052000Y-110236095D02*
X124099619Y-110188476D01*
X125004380Y-109188476D02*
X124528190Y-109521809D01*
X125004380Y-109759904D02*
X124004380Y-109759904D01*
X124004380Y-109759904D02*
X124004380Y-109378952D01*
X124004380Y-109378952D02*
X124052000Y-109283714D01*
X124052000Y-109283714D02*
X124099619Y-109236095D01*
X124099619Y-109236095D02*
X124194857Y-109188476D01*
X124194857Y-109188476D02*
X124337714Y-109188476D01*
X124337714Y-109188476D02*
X124432952Y-109236095D01*
X124432952Y-109236095D02*
X124480571Y-109283714D01*
X124480571Y-109283714D02*
X124528190Y-109378952D01*
X124528190Y-109378952D02*
X124528190Y-109759904D01*
X127449142Y-110188476D02*
X127496761Y-110236095D01*
X127496761Y-110236095D02*
X127544380Y-110378952D01*
X127544380Y-110378952D02*
X127544380Y-110474190D01*
X127544380Y-110474190D02*
X127496761Y-110617047D01*
X127496761Y-110617047D02*
X127401523Y-110712285D01*
X127401523Y-110712285D02*
X127306285Y-110759904D01*
X127306285Y-110759904D02*
X127115809Y-110807523D01*
X127115809Y-110807523D02*
X126972952Y-110807523D01*
X126972952Y-110807523D02*
X126782476Y-110759904D01*
X126782476Y-110759904D02*
X126687238Y-110712285D01*
X126687238Y-110712285D02*
X126592000Y-110617047D01*
X126592000Y-110617047D02*
X126544380Y-110474190D01*
X126544380Y-110474190D02*
X126544380Y-110378952D01*
X126544380Y-110378952D02*
X126592000Y-110236095D01*
X126592000Y-110236095D02*
X126639619Y-110188476D01*
X127544380Y-109283714D02*
X127544380Y-109759904D01*
X127544380Y-109759904D02*
X126544380Y-109759904D01*
X127195142Y-75136476D02*
X127242761Y-75184095D01*
X127242761Y-75184095D02*
X127290380Y-75326952D01*
X127290380Y-75326952D02*
X127290380Y-75422190D01*
X127290380Y-75422190D02*
X127242761Y-75565047D01*
X127242761Y-75565047D02*
X127147523Y-75660285D01*
X127147523Y-75660285D02*
X127052285Y-75707904D01*
X127052285Y-75707904D02*
X126861809Y-75755523D01*
X126861809Y-75755523D02*
X126718952Y-75755523D01*
X126718952Y-75755523D02*
X126528476Y-75707904D01*
X126528476Y-75707904D02*
X126433238Y-75660285D01*
X126433238Y-75660285D02*
X126338000Y-75565047D01*
X126338000Y-75565047D02*
X126290380Y-75422190D01*
X126290380Y-75422190D02*
X126290380Y-75326952D01*
X126290380Y-75326952D02*
X126338000Y-75184095D01*
X126338000Y-75184095D02*
X126385619Y-75136476D01*
X127290380Y-74231714D02*
X127290380Y-74707904D01*
X127290380Y-74707904D02*
X126290380Y-74707904D01*
X118718000Y-74930095D02*
X118670380Y-75025333D01*
X118670380Y-75025333D02*
X118670380Y-75168190D01*
X118670380Y-75168190D02*
X118718000Y-75311047D01*
X118718000Y-75311047D02*
X118813238Y-75406285D01*
X118813238Y-75406285D02*
X118908476Y-75453904D01*
X118908476Y-75453904D02*
X119098952Y-75501523D01*
X119098952Y-75501523D02*
X119241809Y-75501523D01*
X119241809Y-75501523D02*
X119432285Y-75453904D01*
X119432285Y-75453904D02*
X119527523Y-75406285D01*
X119527523Y-75406285D02*
X119622761Y-75311047D01*
X119622761Y-75311047D02*
X119670380Y-75168190D01*
X119670380Y-75168190D02*
X119670380Y-75072952D01*
X119670380Y-75072952D02*
X119622761Y-74930095D01*
X119622761Y-74930095D02*
X119575142Y-74882476D01*
X119575142Y-74882476D02*
X119241809Y-74882476D01*
X119241809Y-74882476D02*
X119241809Y-75072952D01*
X119670380Y-74453904D02*
X118670380Y-74453904D01*
X118670380Y-74453904D02*
X119670380Y-73882476D01*
X119670380Y-73882476D02*
X118670380Y-73882476D01*
X119670380Y-73406285D02*
X118670380Y-73406285D01*
X118670380Y-73406285D02*
X118670380Y-73168190D01*
X118670380Y-73168190D02*
X118718000Y-73025333D01*
X118718000Y-73025333D02*
X118813238Y-72930095D01*
X118813238Y-72930095D02*
X118908476Y-72882476D01*
X118908476Y-72882476D02*
X119098952Y-72834857D01*
X119098952Y-72834857D02*
X119241809Y-72834857D01*
X119241809Y-72834857D02*
X119432285Y-72882476D01*
X119432285Y-72882476D02*
X119527523Y-72930095D01*
X119527523Y-72930095D02*
X119622761Y-73025333D01*
X119622761Y-73025333D02*
X119670380Y-73168190D01*
X119670380Y-73168190D02*
X119670380Y-73406285D01*
X132370380Y-75707904D02*
X131370380Y-75707904D01*
X131370380Y-75707904D02*
X131370380Y-75469809D01*
X131370380Y-75469809D02*
X131418000Y-75326952D01*
X131418000Y-75326952D02*
X131513238Y-75231714D01*
X131513238Y-75231714D02*
X131608476Y-75184095D01*
X131608476Y-75184095D02*
X131798952Y-75136476D01*
X131798952Y-75136476D02*
X131941809Y-75136476D01*
X131941809Y-75136476D02*
X132132285Y-75184095D01*
X132132285Y-75184095D02*
X132227523Y-75231714D01*
X132227523Y-75231714D02*
X132322761Y-75326952D01*
X132322761Y-75326952D02*
X132370380Y-75469809D01*
X132370380Y-75469809D02*
X132370380Y-75707904D01*
X132084666Y-74755523D02*
X132084666Y-74279333D01*
X132370380Y-74850761D02*
X131370380Y-74517428D01*
X131370380Y-74517428D02*
X132370380Y-74184095D01*
X131370380Y-73993618D02*
X131370380Y-73422190D01*
X132370380Y-73707904D02*
X131370380Y-73707904D01*
D11*
X147610380Y-110251904D02*
X146610380Y-110251904D01*
X147086571Y-110251904D02*
X147086571Y-109680476D01*
X147610380Y-109680476D02*
X146610380Y-109680476D01*
X146610380Y-109347142D02*
X147610380Y-109013809D01*
X147610380Y-109013809D02*
X146610380Y-108680476D01*
D10*
X124655142Y-75136476D02*
X124702761Y-75184095D01*
X124702761Y-75184095D02*
X124750380Y-75326952D01*
X124750380Y-75326952D02*
X124750380Y-75422190D01*
X124750380Y-75422190D02*
X124702761Y-75565047D01*
X124702761Y-75565047D02*
X124607523Y-75660285D01*
X124607523Y-75660285D02*
X124512285Y-75707904D01*
X124512285Y-75707904D02*
X124321809Y-75755523D01*
X124321809Y-75755523D02*
X124178952Y-75755523D01*
X124178952Y-75755523D02*
X123988476Y-75707904D01*
X123988476Y-75707904D02*
X123893238Y-75660285D01*
X123893238Y-75660285D02*
X123798000Y-75565047D01*
X123798000Y-75565047D02*
X123750380Y-75422190D01*
X123750380Y-75422190D02*
X123750380Y-75326952D01*
X123750380Y-75326952D02*
X123798000Y-75184095D01*
X123798000Y-75184095D02*
X123845619Y-75136476D01*
X124750380Y-74136476D02*
X124274190Y-74469809D01*
X124750380Y-74707904D02*
X123750380Y-74707904D01*
X123750380Y-74707904D02*
X123750380Y-74326952D01*
X123750380Y-74326952D02*
X123798000Y-74231714D01*
X123798000Y-74231714D02*
X123845619Y-74184095D01*
X123845619Y-74184095D02*
X123940857Y-74136476D01*
X123940857Y-74136476D02*
X124083714Y-74136476D01*
X124083714Y-74136476D02*
X124178952Y-74184095D01*
X124178952Y-74184095D02*
X124226571Y-74231714D01*
X124226571Y-74231714D02*
X124274190Y-74326952D01*
X124274190Y-74326952D02*
X124274190Y-74707904D01*
X113638000Y-110236095D02*
X113590380Y-110331333D01*
X113590380Y-110331333D02*
X113590380Y-110474190D01*
X113590380Y-110474190D02*
X113638000Y-110617047D01*
X113638000Y-110617047D02*
X113733238Y-110712285D01*
X113733238Y-110712285D02*
X113828476Y-110759904D01*
X113828476Y-110759904D02*
X114018952Y-110807523D01*
X114018952Y-110807523D02*
X114161809Y-110807523D01*
X114161809Y-110807523D02*
X114352285Y-110759904D01*
X114352285Y-110759904D02*
X114447523Y-110712285D01*
X114447523Y-110712285D02*
X114542761Y-110617047D01*
X114542761Y-110617047D02*
X114590380Y-110474190D01*
X114590380Y-110474190D02*
X114590380Y-110378952D01*
X114590380Y-110378952D02*
X114542761Y-110236095D01*
X114542761Y-110236095D02*
X114495142Y-110188476D01*
X114495142Y-110188476D02*
X114161809Y-110188476D01*
X114161809Y-110188476D02*
X114161809Y-110378952D01*
X114590380Y-109759904D02*
X113590380Y-109759904D01*
X113590380Y-109759904D02*
X114590380Y-109188476D01*
X114590380Y-109188476D02*
X113590380Y-109188476D01*
X114590380Y-108712285D02*
X113590380Y-108712285D01*
X113590380Y-108712285D02*
X113590380Y-108474190D01*
X113590380Y-108474190D02*
X113638000Y-108331333D01*
X113638000Y-108331333D02*
X113733238Y-108236095D01*
X113733238Y-108236095D02*
X113828476Y-108188476D01*
X113828476Y-108188476D02*
X114018952Y-108140857D01*
X114018952Y-108140857D02*
X114161809Y-108140857D01*
X114161809Y-108140857D02*
X114352285Y-108188476D01*
X114352285Y-108188476D02*
X114447523Y-108236095D01*
X114447523Y-108236095D02*
X114542761Y-108331333D01*
X114542761Y-108331333D02*
X114590380Y-108474190D01*
X114590380Y-108474190D02*
X114590380Y-108712285D01*
X134862761Y-75755523D02*
X134910380Y-75612666D01*
X134910380Y-75612666D02*
X134910380Y-75374571D01*
X134910380Y-75374571D02*
X134862761Y-75279333D01*
X134862761Y-75279333D02*
X134815142Y-75231714D01*
X134815142Y-75231714D02*
X134719904Y-75184095D01*
X134719904Y-75184095D02*
X134624666Y-75184095D01*
X134624666Y-75184095D02*
X134529428Y-75231714D01*
X134529428Y-75231714D02*
X134481809Y-75279333D01*
X134481809Y-75279333D02*
X134434190Y-75374571D01*
X134434190Y-75374571D02*
X134386571Y-75565047D01*
X134386571Y-75565047D02*
X134338952Y-75660285D01*
X134338952Y-75660285D02*
X134291333Y-75707904D01*
X134291333Y-75707904D02*
X134196095Y-75755523D01*
X134196095Y-75755523D02*
X134100857Y-75755523D01*
X134100857Y-75755523D02*
X134005619Y-75707904D01*
X134005619Y-75707904D02*
X133958000Y-75660285D01*
X133958000Y-75660285D02*
X133910380Y-75565047D01*
X133910380Y-75565047D02*
X133910380Y-75326952D01*
X133910380Y-75326952D02*
X133958000Y-75184095D01*
X133910380Y-74898380D02*
X133910380Y-74326952D01*
X134910380Y-74612666D02*
X133910380Y-74612666D01*
X134386571Y-73660285D02*
X134434190Y-73517428D01*
X134434190Y-73517428D02*
X134481809Y-73469809D01*
X134481809Y-73469809D02*
X134577047Y-73422190D01*
X134577047Y-73422190D02*
X134719904Y-73422190D01*
X134719904Y-73422190D02*
X134815142Y-73469809D01*
X134815142Y-73469809D02*
X134862761Y-73517428D01*
X134862761Y-73517428D02*
X134910380Y-73612666D01*
X134910380Y-73612666D02*
X134910380Y-73993618D01*
X134910380Y-73993618D02*
X133910380Y-73993618D01*
X133910380Y-73993618D02*
X133910380Y-73660285D01*
X133910380Y-73660285D02*
X133958000Y-73565047D01*
X133958000Y-73565047D02*
X134005619Y-73517428D01*
X134005619Y-73517428D02*
X134100857Y-73469809D01*
X134100857Y-73469809D02*
X134196095Y-73469809D01*
X134196095Y-73469809D02*
X134291333Y-73517428D01*
X134291333Y-73517428D02*
X134338952Y-73565047D01*
X134338952Y-73565047D02*
X134386571Y-73660285D01*
X134386571Y-73660285D02*
X134386571Y-73993618D01*
X134862761Y-110807523D02*
X134910380Y-110664666D01*
X134910380Y-110664666D02*
X134910380Y-110426571D01*
X134910380Y-110426571D02*
X134862761Y-110331333D01*
X134862761Y-110331333D02*
X134815142Y-110283714D01*
X134815142Y-110283714D02*
X134719904Y-110236095D01*
X134719904Y-110236095D02*
X134624666Y-110236095D01*
X134624666Y-110236095D02*
X134529428Y-110283714D01*
X134529428Y-110283714D02*
X134481809Y-110331333D01*
X134481809Y-110331333D02*
X134434190Y-110426571D01*
X134434190Y-110426571D02*
X134386571Y-110617047D01*
X134386571Y-110617047D02*
X134338952Y-110712285D01*
X134338952Y-110712285D02*
X134291333Y-110759904D01*
X134291333Y-110759904D02*
X134196095Y-110807523D01*
X134196095Y-110807523D02*
X134100857Y-110807523D01*
X134100857Y-110807523D02*
X134005619Y-110759904D01*
X134005619Y-110759904D02*
X133958000Y-110712285D01*
X133958000Y-110712285D02*
X133910380Y-110617047D01*
X133910380Y-110617047D02*
X133910380Y-110378952D01*
X133910380Y-110378952D02*
X133958000Y-110236095D01*
X133910380Y-109950380D02*
X133910380Y-109378952D01*
X134910380Y-109664666D02*
X133910380Y-109664666D01*
X134386571Y-108712285D02*
X134434190Y-108569428D01*
X134434190Y-108569428D02*
X134481809Y-108521809D01*
X134481809Y-108521809D02*
X134577047Y-108474190D01*
X134577047Y-108474190D02*
X134719904Y-108474190D01*
X134719904Y-108474190D02*
X134815142Y-108521809D01*
X134815142Y-108521809D02*
X134862761Y-108569428D01*
X134862761Y-108569428D02*
X134910380Y-108664666D01*
X134910380Y-108664666D02*
X134910380Y-109045618D01*
X134910380Y-109045618D02*
X133910380Y-109045618D01*
X133910380Y-109045618D02*
X133910380Y-108712285D01*
X133910380Y-108712285D02*
X133958000Y-108617047D01*
X133958000Y-108617047D02*
X134005619Y-108569428D01*
X134005619Y-108569428D02*
X134100857Y-108521809D01*
X134100857Y-108521809D02*
X134196095Y-108521809D01*
X134196095Y-108521809D02*
X134291333Y-108569428D01*
X134291333Y-108569428D02*
X134338952Y-108617047D01*
X134338952Y-108617047D02*
X134386571Y-108712285D01*
X134386571Y-108712285D02*
X134386571Y-109045618D01*
X129306571Y-75374571D02*
X129354190Y-75231714D01*
X129354190Y-75231714D02*
X129401809Y-75184095D01*
X129401809Y-75184095D02*
X129497047Y-75136476D01*
X129497047Y-75136476D02*
X129639904Y-75136476D01*
X129639904Y-75136476D02*
X129735142Y-75184095D01*
X129735142Y-75184095D02*
X129782761Y-75231714D01*
X129782761Y-75231714D02*
X129830380Y-75326952D01*
X129830380Y-75326952D02*
X129830380Y-75707904D01*
X129830380Y-75707904D02*
X128830380Y-75707904D01*
X128830380Y-75707904D02*
X128830380Y-75374571D01*
X128830380Y-75374571D02*
X128878000Y-75279333D01*
X128878000Y-75279333D02*
X128925619Y-75231714D01*
X128925619Y-75231714D02*
X129020857Y-75184095D01*
X129020857Y-75184095D02*
X129116095Y-75184095D01*
X129116095Y-75184095D02*
X129211333Y-75231714D01*
X129211333Y-75231714D02*
X129258952Y-75279333D01*
X129258952Y-75279333D02*
X129306571Y-75374571D01*
X129306571Y-75374571D02*
X129306571Y-75707904D01*
X129830380Y-74231714D02*
X129830380Y-74707904D01*
X129830380Y-74707904D02*
X128830380Y-74707904D01*
X129830380Y-73898380D02*
X128830380Y-73898380D01*
X129830380Y-73326952D02*
X129258952Y-73755523D01*
X128830380Y-73326952D02*
X129401809Y-73898380D01*
X137355142Y-110188476D02*
X137402761Y-110236095D01*
X137402761Y-110236095D02*
X137450380Y-110378952D01*
X137450380Y-110378952D02*
X137450380Y-110474190D01*
X137450380Y-110474190D02*
X137402761Y-110617047D01*
X137402761Y-110617047D02*
X137307523Y-110712285D01*
X137307523Y-110712285D02*
X137212285Y-110759904D01*
X137212285Y-110759904D02*
X137021809Y-110807523D01*
X137021809Y-110807523D02*
X136878952Y-110807523D01*
X136878952Y-110807523D02*
X136688476Y-110759904D01*
X136688476Y-110759904D02*
X136593238Y-110712285D01*
X136593238Y-110712285D02*
X136498000Y-110617047D01*
X136498000Y-110617047D02*
X136450380Y-110474190D01*
X136450380Y-110474190D02*
X136450380Y-110378952D01*
X136450380Y-110378952D02*
X136498000Y-110236095D01*
X136498000Y-110236095D02*
X136545619Y-110188476D01*
X137450380Y-109283714D02*
X137450380Y-109759904D01*
X137450380Y-109759904D02*
X136450380Y-109759904D01*
X137450380Y-108950380D02*
X136450380Y-108950380D01*
X137450380Y-108378952D02*
X136878952Y-108807523D01*
X136450380Y-108378952D02*
X137021809Y-108950380D01*
%TO.C,D4*%
X94003905Y-92315380D02*
X94003905Y-91315380D01*
X94003905Y-91315380D02*
X94242000Y-91315380D01*
X94242000Y-91315380D02*
X94384857Y-91363000D01*
X94384857Y-91363000D02*
X94480095Y-91458238D01*
X94480095Y-91458238D02*
X94527714Y-91553476D01*
X94527714Y-91553476D02*
X94575333Y-91743952D01*
X94575333Y-91743952D02*
X94575333Y-91886809D01*
X94575333Y-91886809D02*
X94527714Y-92077285D01*
X94527714Y-92077285D02*
X94480095Y-92172523D01*
X94480095Y-92172523D02*
X94384857Y-92267761D01*
X94384857Y-92267761D02*
X94242000Y-92315380D01*
X94242000Y-92315380D02*
X94003905Y-92315380D01*
X95432476Y-91648714D02*
X95432476Y-92315380D01*
X95194381Y-91267761D02*
X94956286Y-91982047D01*
X94956286Y-91982047D02*
X95575333Y-91982047D01*
%TO.C,N4*%
X107178095Y-57987380D02*
X107178095Y-56987380D01*
X107178095Y-56987380D02*
X107749523Y-57987380D01*
X107749523Y-57987380D02*
X107749523Y-56987380D01*
X108654285Y-57320714D02*
X108654285Y-57987380D01*
X108416190Y-56939761D02*
X108178095Y-57654047D01*
X108178095Y-57654047D02*
X108797142Y-57654047D01*
%TO.C,N9*%
X116758198Y-65785904D02*
X115758198Y-65785904D01*
X115758198Y-65785904D02*
X116758198Y-65214476D01*
X116758198Y-65214476D02*
X115758198Y-65214476D01*
X116758198Y-64690666D02*
X116758198Y-64500190D01*
X116758198Y-64500190D02*
X116710579Y-64404952D01*
X116710579Y-64404952D02*
X116662960Y-64357333D01*
X116662960Y-64357333D02*
X116520103Y-64262095D01*
X116520103Y-64262095D02*
X116329627Y-64214476D01*
X116329627Y-64214476D02*
X115948675Y-64214476D01*
X115948675Y-64214476D02*
X115853437Y-64262095D01*
X115853437Y-64262095D02*
X115805818Y-64309714D01*
X115805818Y-64309714D02*
X115758198Y-64404952D01*
X115758198Y-64404952D02*
X115758198Y-64595428D01*
X115758198Y-64595428D02*
X115805818Y-64690666D01*
X115805818Y-64690666D02*
X115853437Y-64738285D01*
X115853437Y-64738285D02*
X115948675Y-64785904D01*
X115948675Y-64785904D02*
X116186770Y-64785904D01*
X116186770Y-64785904D02*
X116282008Y-64738285D01*
X116282008Y-64738285D02*
X116329627Y-64690666D01*
X116329627Y-64690666D02*
X116377246Y-64595428D01*
X116377246Y-64595428D02*
X116377246Y-64404952D01*
X116377246Y-64404952D02*
X116329627Y-64309714D01*
X116329627Y-64309714D02*
X116282008Y-64262095D01*
X116282008Y-64262095D02*
X116186770Y-64214476D01*
%TO.C,N1*%
X131278095Y-58027380D02*
X131278095Y-57027380D01*
X131278095Y-57027380D02*
X131849523Y-58027380D01*
X131849523Y-58027380D02*
X131849523Y-57027380D01*
X132849523Y-58027380D02*
X132278095Y-58027380D01*
X132563809Y-58027380D02*
X132563809Y-57027380D01*
X132563809Y-57027380D02*
X132468571Y-57170238D01*
X132468571Y-57170238D02*
X132373333Y-57265476D01*
X132373333Y-57265476D02*
X132278095Y-57313095D01*
%TO.C,C2*%
X61994142Y-110402666D02*
X62041761Y-110450285D01*
X62041761Y-110450285D02*
X62089380Y-110593142D01*
X62089380Y-110593142D02*
X62089380Y-110688380D01*
X62089380Y-110688380D02*
X62041761Y-110831237D01*
X62041761Y-110831237D02*
X61946523Y-110926475D01*
X61946523Y-110926475D02*
X61851285Y-110974094D01*
X61851285Y-110974094D02*
X61660809Y-111021713D01*
X61660809Y-111021713D02*
X61517952Y-111021713D01*
X61517952Y-111021713D02*
X61327476Y-110974094D01*
X61327476Y-110974094D02*
X61232238Y-110926475D01*
X61232238Y-110926475D02*
X61137000Y-110831237D01*
X61137000Y-110831237D02*
X61089380Y-110688380D01*
X61089380Y-110688380D02*
X61089380Y-110593142D01*
X61089380Y-110593142D02*
X61137000Y-110450285D01*
X61137000Y-110450285D02*
X61184619Y-110402666D01*
X61184619Y-110021713D02*
X61137000Y-109974094D01*
X61137000Y-109974094D02*
X61089380Y-109878856D01*
X61089380Y-109878856D02*
X61089380Y-109640761D01*
X61089380Y-109640761D02*
X61137000Y-109545523D01*
X61137000Y-109545523D02*
X61184619Y-109497904D01*
X61184619Y-109497904D02*
X61279857Y-109450285D01*
X61279857Y-109450285D02*
X61375095Y-109450285D01*
X61375095Y-109450285D02*
X61517952Y-109497904D01*
X61517952Y-109497904D02*
X62089380Y-110069332D01*
X62089380Y-110069332D02*
X62089380Y-109450285D01*
%TO.C,C1*%
X63518142Y-110148666D02*
X63565761Y-110196285D01*
X63565761Y-110196285D02*
X63613380Y-110339142D01*
X63613380Y-110339142D02*
X63613380Y-110434380D01*
X63613380Y-110434380D02*
X63565761Y-110577237D01*
X63565761Y-110577237D02*
X63470523Y-110672475D01*
X63470523Y-110672475D02*
X63375285Y-110720094D01*
X63375285Y-110720094D02*
X63184809Y-110767713D01*
X63184809Y-110767713D02*
X63041952Y-110767713D01*
X63041952Y-110767713D02*
X62851476Y-110720094D01*
X62851476Y-110720094D02*
X62756238Y-110672475D01*
X62756238Y-110672475D02*
X62661000Y-110577237D01*
X62661000Y-110577237D02*
X62613380Y-110434380D01*
X62613380Y-110434380D02*
X62613380Y-110339142D01*
X62613380Y-110339142D02*
X62661000Y-110196285D01*
X62661000Y-110196285D02*
X62708619Y-110148666D01*
X63613380Y-109196285D02*
X63613380Y-109767713D01*
X63613380Y-109481999D02*
X62613380Y-109481999D01*
X62613380Y-109481999D02*
X62756238Y-109577237D01*
X62756238Y-109577237D02*
X62851476Y-109672475D01*
X62851476Y-109672475D02*
X62899095Y-109767713D01*
%TO.C,C4*%
X103904142Y-89828666D02*
X103951761Y-89876285D01*
X103951761Y-89876285D02*
X103999380Y-90019142D01*
X103999380Y-90019142D02*
X103999380Y-90114380D01*
X103999380Y-90114380D02*
X103951761Y-90257237D01*
X103951761Y-90257237D02*
X103856523Y-90352475D01*
X103856523Y-90352475D02*
X103761285Y-90400094D01*
X103761285Y-90400094D02*
X103570809Y-90447713D01*
X103570809Y-90447713D02*
X103427952Y-90447713D01*
X103427952Y-90447713D02*
X103237476Y-90400094D01*
X103237476Y-90400094D02*
X103142238Y-90352475D01*
X103142238Y-90352475D02*
X103047000Y-90257237D01*
X103047000Y-90257237D02*
X102999380Y-90114380D01*
X102999380Y-90114380D02*
X102999380Y-90019142D01*
X102999380Y-90019142D02*
X103047000Y-89876285D01*
X103047000Y-89876285D02*
X103094619Y-89828666D01*
X103332714Y-88971523D02*
X103999380Y-88971523D01*
X102951761Y-89209618D02*
X103666047Y-89447713D01*
X103666047Y-89447713D02*
X103666047Y-88828666D01*
%TO.C,N8*%
X67238095Y-57967380D02*
X67238095Y-56967380D01*
X67238095Y-56967380D02*
X67809523Y-57967380D01*
X67809523Y-57967380D02*
X67809523Y-56967380D01*
X68428571Y-57395952D02*
X68333333Y-57348333D01*
X68333333Y-57348333D02*
X68285714Y-57300714D01*
X68285714Y-57300714D02*
X68238095Y-57205476D01*
X68238095Y-57205476D02*
X68238095Y-57157857D01*
X68238095Y-57157857D02*
X68285714Y-57062619D01*
X68285714Y-57062619D02*
X68333333Y-57015000D01*
X68333333Y-57015000D02*
X68428571Y-56967380D01*
X68428571Y-56967380D02*
X68619047Y-56967380D01*
X68619047Y-56967380D02*
X68714285Y-57015000D01*
X68714285Y-57015000D02*
X68761904Y-57062619D01*
X68761904Y-57062619D02*
X68809523Y-57157857D01*
X68809523Y-57157857D02*
X68809523Y-57205476D01*
X68809523Y-57205476D02*
X68761904Y-57300714D01*
X68761904Y-57300714D02*
X68714285Y-57348333D01*
X68714285Y-57348333D02*
X68619047Y-57395952D01*
X68619047Y-57395952D02*
X68428571Y-57395952D01*
X68428571Y-57395952D02*
X68333333Y-57443571D01*
X68333333Y-57443571D02*
X68285714Y-57491190D01*
X68285714Y-57491190D02*
X68238095Y-57586428D01*
X68238095Y-57586428D02*
X68238095Y-57776904D01*
X68238095Y-57776904D02*
X68285714Y-57872142D01*
X68285714Y-57872142D02*
X68333333Y-57919761D01*
X68333333Y-57919761D02*
X68428571Y-57967380D01*
X68428571Y-57967380D02*
X68619047Y-57967380D01*
X68619047Y-57967380D02*
X68714285Y-57919761D01*
X68714285Y-57919761D02*
X68761904Y-57872142D01*
X68761904Y-57872142D02*
X68809523Y-57776904D01*
X68809523Y-57776904D02*
X68809523Y-57586428D01*
X68809523Y-57586428D02*
X68761904Y-57491190D01*
X68761904Y-57491190D02*
X68714285Y-57443571D01*
X68714285Y-57443571D02*
X68619047Y-57395952D01*
%TO.C,U4*%
X113667380Y-105409904D02*
X114476904Y-105409904D01*
X114476904Y-105409904D02*
X114572142Y-105362285D01*
X114572142Y-105362285D02*
X114619761Y-105314666D01*
X114619761Y-105314666D02*
X114667380Y-105219428D01*
X114667380Y-105219428D02*
X114667380Y-105028952D01*
X114667380Y-105028952D02*
X114619761Y-104933714D01*
X114619761Y-104933714D02*
X114572142Y-104886095D01*
X114572142Y-104886095D02*
X114476904Y-104838476D01*
X114476904Y-104838476D02*
X113667380Y-104838476D01*
X114000714Y-103933714D02*
X114667380Y-103933714D01*
X113619761Y-104171809D02*
X114334047Y-104409904D01*
X114334047Y-104409904D02*
X114334047Y-103790857D01*
%TO.C,R24*%
X77075380Y-107830857D02*
X76599190Y-108164190D01*
X77075380Y-108402285D02*
X76075380Y-108402285D01*
X76075380Y-108402285D02*
X76075380Y-108021333D01*
X76075380Y-108021333D02*
X76123000Y-107926095D01*
X76123000Y-107926095D02*
X76170619Y-107878476D01*
X76170619Y-107878476D02*
X76265857Y-107830857D01*
X76265857Y-107830857D02*
X76408714Y-107830857D01*
X76408714Y-107830857D02*
X76503952Y-107878476D01*
X76503952Y-107878476D02*
X76551571Y-107926095D01*
X76551571Y-107926095D02*
X76599190Y-108021333D01*
X76599190Y-108021333D02*
X76599190Y-108402285D01*
X76170619Y-107449904D02*
X76123000Y-107402285D01*
X76123000Y-107402285D02*
X76075380Y-107307047D01*
X76075380Y-107307047D02*
X76075380Y-107068952D01*
X76075380Y-107068952D02*
X76123000Y-106973714D01*
X76123000Y-106973714D02*
X76170619Y-106926095D01*
X76170619Y-106926095D02*
X76265857Y-106878476D01*
X76265857Y-106878476D02*
X76361095Y-106878476D01*
X76361095Y-106878476D02*
X76503952Y-106926095D01*
X76503952Y-106926095D02*
X77075380Y-107497523D01*
X77075380Y-107497523D02*
X77075380Y-106878476D01*
X76408714Y-106021333D02*
X77075380Y-106021333D01*
X76027761Y-106259428D02*
X76742047Y-106497523D01*
X76742047Y-106497523D02*
X76742047Y-105878476D01*
%TO.C,N2*%
X147238095Y-57967380D02*
X147238095Y-56967380D01*
X147238095Y-56967380D02*
X147809523Y-57967380D01*
X147809523Y-57967380D02*
X147809523Y-56967380D01*
X148238095Y-57062619D02*
X148285714Y-57015000D01*
X148285714Y-57015000D02*
X148380952Y-56967380D01*
X148380952Y-56967380D02*
X148619047Y-56967380D01*
X148619047Y-56967380D02*
X148714285Y-57015000D01*
X148714285Y-57015000D02*
X148761904Y-57062619D01*
X148761904Y-57062619D02*
X148809523Y-57157857D01*
X148809523Y-57157857D02*
X148809523Y-57253095D01*
X148809523Y-57253095D02*
X148761904Y-57395952D01*
X148761904Y-57395952D02*
X148190476Y-57967380D01*
X148190476Y-57967380D02*
X148809523Y-57967380D01*
%TO.C,C9*%
X124478142Y-104560666D02*
X124525761Y-104608285D01*
X124525761Y-104608285D02*
X124573380Y-104751142D01*
X124573380Y-104751142D02*
X124573380Y-104846380D01*
X124573380Y-104846380D02*
X124525761Y-104989237D01*
X124525761Y-104989237D02*
X124430523Y-105084475D01*
X124430523Y-105084475D02*
X124335285Y-105132094D01*
X124335285Y-105132094D02*
X124144809Y-105179713D01*
X124144809Y-105179713D02*
X124001952Y-105179713D01*
X124001952Y-105179713D02*
X123811476Y-105132094D01*
X123811476Y-105132094D02*
X123716238Y-105084475D01*
X123716238Y-105084475D02*
X123621000Y-104989237D01*
X123621000Y-104989237D02*
X123573380Y-104846380D01*
X123573380Y-104846380D02*
X123573380Y-104751142D01*
X123573380Y-104751142D02*
X123621000Y-104608285D01*
X123621000Y-104608285D02*
X123668619Y-104560666D01*
X124573380Y-104084475D02*
X124573380Y-103893999D01*
X124573380Y-103893999D02*
X124525761Y-103798761D01*
X124525761Y-103798761D02*
X124478142Y-103751142D01*
X124478142Y-103751142D02*
X124335285Y-103655904D01*
X124335285Y-103655904D02*
X124144809Y-103608285D01*
X124144809Y-103608285D02*
X123763857Y-103608285D01*
X123763857Y-103608285D02*
X123668619Y-103655904D01*
X123668619Y-103655904D02*
X123621000Y-103703523D01*
X123621000Y-103703523D02*
X123573380Y-103798761D01*
X123573380Y-103798761D02*
X123573380Y-103989237D01*
X123573380Y-103989237D02*
X123621000Y-104084475D01*
X123621000Y-104084475D02*
X123668619Y-104132094D01*
X123668619Y-104132094D02*
X123763857Y-104179713D01*
X123763857Y-104179713D02*
X124001952Y-104179713D01*
X124001952Y-104179713D02*
X124097190Y-104132094D01*
X124097190Y-104132094D02*
X124144809Y-104084475D01*
X124144809Y-104084475D02*
X124192428Y-103989237D01*
X124192428Y-103989237D02*
X124192428Y-103798761D01*
X124192428Y-103798761D02*
X124144809Y-103703523D01*
X124144809Y-103703523D02*
X124097190Y-103655904D01*
X124097190Y-103655904D02*
X124001952Y-103608285D01*
%TO.C,J3*%
X149337380Y-112833333D02*
X150051666Y-112833333D01*
X150051666Y-112833333D02*
X150194523Y-112880952D01*
X150194523Y-112880952D02*
X150289761Y-112976190D01*
X150289761Y-112976190D02*
X150337380Y-113119047D01*
X150337380Y-113119047D02*
X150337380Y-113214285D01*
X149337380Y-112452380D02*
X149337380Y-111833333D01*
X149337380Y-111833333D02*
X149718333Y-112166666D01*
X149718333Y-112166666D02*
X149718333Y-112023809D01*
X149718333Y-112023809D02*
X149765952Y-111928571D01*
X149765952Y-111928571D02*
X149813571Y-111880952D01*
X149813571Y-111880952D02*
X149908809Y-111833333D01*
X149908809Y-111833333D02*
X150146904Y-111833333D01*
X150146904Y-111833333D02*
X150242142Y-111880952D01*
X150242142Y-111880952D02*
X150289761Y-111928571D01*
X150289761Y-111928571D02*
X150337380Y-112023809D01*
X150337380Y-112023809D02*
X150337380Y-112309523D01*
X150337380Y-112309523D02*
X150289761Y-112404761D01*
X150289761Y-112404761D02*
X150242142Y-112452380D01*
%TO.C,C7*%
X124478142Y-100750666D02*
X124525761Y-100798285D01*
X124525761Y-100798285D02*
X124573380Y-100941142D01*
X124573380Y-100941142D02*
X124573380Y-101036380D01*
X124573380Y-101036380D02*
X124525761Y-101179237D01*
X124525761Y-101179237D02*
X124430523Y-101274475D01*
X124430523Y-101274475D02*
X124335285Y-101322094D01*
X124335285Y-101322094D02*
X124144809Y-101369713D01*
X124144809Y-101369713D02*
X124001952Y-101369713D01*
X124001952Y-101369713D02*
X123811476Y-101322094D01*
X123811476Y-101322094D02*
X123716238Y-101274475D01*
X123716238Y-101274475D02*
X123621000Y-101179237D01*
X123621000Y-101179237D02*
X123573380Y-101036380D01*
X123573380Y-101036380D02*
X123573380Y-100941142D01*
X123573380Y-100941142D02*
X123621000Y-100798285D01*
X123621000Y-100798285D02*
X123668619Y-100750666D01*
X123573380Y-100417332D02*
X123573380Y-99750666D01*
X123573380Y-99750666D02*
X124573380Y-100179237D01*
%TO.C,R8*%
X120737333Y-86981380D02*
X120404000Y-86505190D01*
X120165905Y-86981380D02*
X120165905Y-85981380D01*
X120165905Y-85981380D02*
X120546857Y-85981380D01*
X120546857Y-85981380D02*
X120642095Y-86029000D01*
X120642095Y-86029000D02*
X120689714Y-86076619D01*
X120689714Y-86076619D02*
X120737333Y-86171857D01*
X120737333Y-86171857D02*
X120737333Y-86314714D01*
X120737333Y-86314714D02*
X120689714Y-86409952D01*
X120689714Y-86409952D02*
X120642095Y-86457571D01*
X120642095Y-86457571D02*
X120546857Y-86505190D01*
X120546857Y-86505190D02*
X120165905Y-86505190D01*
X121308762Y-86409952D02*
X121213524Y-86362333D01*
X121213524Y-86362333D02*
X121165905Y-86314714D01*
X121165905Y-86314714D02*
X121118286Y-86219476D01*
X121118286Y-86219476D02*
X121118286Y-86171857D01*
X121118286Y-86171857D02*
X121165905Y-86076619D01*
X121165905Y-86076619D02*
X121213524Y-86029000D01*
X121213524Y-86029000D02*
X121308762Y-85981380D01*
X121308762Y-85981380D02*
X121499238Y-85981380D01*
X121499238Y-85981380D02*
X121594476Y-86029000D01*
X121594476Y-86029000D02*
X121642095Y-86076619D01*
X121642095Y-86076619D02*
X121689714Y-86171857D01*
X121689714Y-86171857D02*
X121689714Y-86219476D01*
X121689714Y-86219476D02*
X121642095Y-86314714D01*
X121642095Y-86314714D02*
X121594476Y-86362333D01*
X121594476Y-86362333D02*
X121499238Y-86409952D01*
X121499238Y-86409952D02*
X121308762Y-86409952D01*
X121308762Y-86409952D02*
X121213524Y-86457571D01*
X121213524Y-86457571D02*
X121165905Y-86505190D01*
X121165905Y-86505190D02*
X121118286Y-86600428D01*
X121118286Y-86600428D02*
X121118286Y-86790904D01*
X121118286Y-86790904D02*
X121165905Y-86886142D01*
X121165905Y-86886142D02*
X121213524Y-86933761D01*
X121213524Y-86933761D02*
X121308762Y-86981380D01*
X121308762Y-86981380D02*
X121499238Y-86981380D01*
X121499238Y-86981380D02*
X121594476Y-86933761D01*
X121594476Y-86933761D02*
X121642095Y-86886142D01*
X121642095Y-86886142D02*
X121689714Y-86790904D01*
X121689714Y-86790904D02*
X121689714Y-86600428D01*
X121689714Y-86600428D02*
X121642095Y-86505190D01*
X121642095Y-86505190D02*
X121594476Y-86457571D01*
X121594476Y-86457571D02*
X121499238Y-86409952D01*
%TO.C,J5*%
X92376666Y-113413380D02*
X92376666Y-114127666D01*
X92376666Y-114127666D02*
X92329047Y-114270523D01*
X92329047Y-114270523D02*
X92233809Y-114365761D01*
X92233809Y-114365761D02*
X92090952Y-114413380D01*
X92090952Y-114413380D02*
X91995714Y-114413380D01*
X93329047Y-113413380D02*
X92852857Y-113413380D01*
X92852857Y-113413380D02*
X92805238Y-113889571D01*
X92805238Y-113889571D02*
X92852857Y-113841952D01*
X92852857Y-113841952D02*
X92948095Y-113794333D01*
X92948095Y-113794333D02*
X93186190Y-113794333D01*
X93186190Y-113794333D02*
X93281428Y-113841952D01*
X93281428Y-113841952D02*
X93329047Y-113889571D01*
X93329047Y-113889571D02*
X93376666Y-113984809D01*
X93376666Y-113984809D02*
X93376666Y-114222904D01*
X93376666Y-114222904D02*
X93329047Y-114318142D01*
X93329047Y-114318142D02*
X93281428Y-114365761D01*
X93281428Y-114365761D02*
X93186190Y-114413380D01*
X93186190Y-114413380D02*
X92948095Y-114413380D01*
X92948095Y-114413380D02*
X92852857Y-114365761D01*
X92852857Y-114365761D02*
X92805238Y-114318142D01*
%TO.C,Y1*%
X96869809Y-91979809D02*
X96393619Y-91979809D01*
X97393619Y-91646476D02*
X96869809Y-91979809D01*
X96869809Y-91979809D02*
X97393619Y-92313142D01*
X96393619Y-93170285D02*
X96393619Y-92598857D01*
X96393619Y-92884571D02*
X97393619Y-92884571D01*
X97393619Y-92884571D02*
X97250761Y-92789333D01*
X97250761Y-92789333D02*
X97155523Y-92694095D01*
X97155523Y-92694095D02*
X97107904Y-92598857D01*
%TO.C,C13*%
X98912142Y-92220142D02*
X98864523Y-92267761D01*
X98864523Y-92267761D02*
X98721666Y-92315380D01*
X98721666Y-92315380D02*
X98626428Y-92315380D01*
X98626428Y-92315380D02*
X98483571Y-92267761D01*
X98483571Y-92267761D02*
X98388333Y-92172523D01*
X98388333Y-92172523D02*
X98340714Y-92077285D01*
X98340714Y-92077285D02*
X98293095Y-91886809D01*
X98293095Y-91886809D02*
X98293095Y-91743952D01*
X98293095Y-91743952D02*
X98340714Y-91553476D01*
X98340714Y-91553476D02*
X98388333Y-91458238D01*
X98388333Y-91458238D02*
X98483571Y-91363000D01*
X98483571Y-91363000D02*
X98626428Y-91315380D01*
X98626428Y-91315380D02*
X98721666Y-91315380D01*
X98721666Y-91315380D02*
X98864523Y-91363000D01*
X98864523Y-91363000D02*
X98912142Y-91410619D01*
X99864523Y-92315380D02*
X99293095Y-92315380D01*
X99578809Y-92315380D02*
X99578809Y-91315380D01*
X99578809Y-91315380D02*
X99483571Y-91458238D01*
X99483571Y-91458238D02*
X99388333Y-91553476D01*
X99388333Y-91553476D02*
X99293095Y-91601095D01*
X100197857Y-91315380D02*
X100816904Y-91315380D01*
X100816904Y-91315380D02*
X100483571Y-91696333D01*
X100483571Y-91696333D02*
X100626428Y-91696333D01*
X100626428Y-91696333D02*
X100721666Y-91743952D01*
X100721666Y-91743952D02*
X100769285Y-91791571D01*
X100769285Y-91791571D02*
X100816904Y-91886809D01*
X100816904Y-91886809D02*
X100816904Y-92124904D01*
X100816904Y-92124904D02*
X100769285Y-92220142D01*
X100769285Y-92220142D02*
X100721666Y-92267761D01*
X100721666Y-92267761D02*
X100626428Y-92315380D01*
X100626428Y-92315380D02*
X100340714Y-92315380D01*
X100340714Y-92315380D02*
X100245476Y-92267761D01*
X100245476Y-92267761D02*
X100197857Y-92220142D01*
%TO.C,C3*%
X67074142Y-109894666D02*
X67121761Y-109942285D01*
X67121761Y-109942285D02*
X67169380Y-110085142D01*
X67169380Y-110085142D02*
X67169380Y-110180380D01*
X67169380Y-110180380D02*
X67121761Y-110323237D01*
X67121761Y-110323237D02*
X67026523Y-110418475D01*
X67026523Y-110418475D02*
X66931285Y-110466094D01*
X66931285Y-110466094D02*
X66740809Y-110513713D01*
X66740809Y-110513713D02*
X66597952Y-110513713D01*
X66597952Y-110513713D02*
X66407476Y-110466094D01*
X66407476Y-110466094D02*
X66312238Y-110418475D01*
X66312238Y-110418475D02*
X66217000Y-110323237D01*
X66217000Y-110323237D02*
X66169380Y-110180380D01*
X66169380Y-110180380D02*
X66169380Y-110085142D01*
X66169380Y-110085142D02*
X66217000Y-109942285D01*
X66217000Y-109942285D02*
X66264619Y-109894666D01*
X66169380Y-109561332D02*
X66169380Y-108942285D01*
X66169380Y-108942285D02*
X66550333Y-109275618D01*
X66550333Y-109275618D02*
X66550333Y-109132761D01*
X66550333Y-109132761D02*
X66597952Y-109037523D01*
X66597952Y-109037523D02*
X66645571Y-108989904D01*
X66645571Y-108989904D02*
X66740809Y-108942285D01*
X66740809Y-108942285D02*
X66978904Y-108942285D01*
X66978904Y-108942285D02*
X67074142Y-108989904D01*
X67074142Y-108989904D02*
X67121761Y-109037523D01*
X67121761Y-109037523D02*
X67169380Y-109132761D01*
X67169380Y-109132761D02*
X67169380Y-109418475D01*
X67169380Y-109418475D02*
X67121761Y-109513713D01*
X67121761Y-109513713D02*
X67074142Y-109561332D01*
%TO.C,R20*%
X82669142Y-86727380D02*
X82335809Y-86251190D01*
X82097714Y-86727380D02*
X82097714Y-85727380D01*
X82097714Y-85727380D02*
X82478666Y-85727380D01*
X82478666Y-85727380D02*
X82573904Y-85775000D01*
X82573904Y-85775000D02*
X82621523Y-85822619D01*
X82621523Y-85822619D02*
X82669142Y-85917857D01*
X82669142Y-85917857D02*
X82669142Y-86060714D01*
X82669142Y-86060714D02*
X82621523Y-86155952D01*
X82621523Y-86155952D02*
X82573904Y-86203571D01*
X82573904Y-86203571D02*
X82478666Y-86251190D01*
X82478666Y-86251190D02*
X82097714Y-86251190D01*
X83050095Y-85822619D02*
X83097714Y-85775000D01*
X83097714Y-85775000D02*
X83192952Y-85727380D01*
X83192952Y-85727380D02*
X83431047Y-85727380D01*
X83431047Y-85727380D02*
X83526285Y-85775000D01*
X83526285Y-85775000D02*
X83573904Y-85822619D01*
X83573904Y-85822619D02*
X83621523Y-85917857D01*
X83621523Y-85917857D02*
X83621523Y-86013095D01*
X83621523Y-86013095D02*
X83573904Y-86155952D01*
X83573904Y-86155952D02*
X83002476Y-86727380D01*
X83002476Y-86727380D02*
X83621523Y-86727380D01*
X84240571Y-85727380D02*
X84335809Y-85727380D01*
X84335809Y-85727380D02*
X84431047Y-85775000D01*
X84431047Y-85775000D02*
X84478666Y-85822619D01*
X84478666Y-85822619D02*
X84526285Y-85917857D01*
X84526285Y-85917857D02*
X84573904Y-86108333D01*
X84573904Y-86108333D02*
X84573904Y-86346428D01*
X84573904Y-86346428D02*
X84526285Y-86536904D01*
X84526285Y-86536904D02*
X84478666Y-86632142D01*
X84478666Y-86632142D02*
X84431047Y-86679761D01*
X84431047Y-86679761D02*
X84335809Y-86727380D01*
X84335809Y-86727380D02*
X84240571Y-86727380D01*
X84240571Y-86727380D02*
X84145333Y-86679761D01*
X84145333Y-86679761D02*
X84097714Y-86632142D01*
X84097714Y-86632142D02*
X84050095Y-86536904D01*
X84050095Y-86536904D02*
X84002476Y-86346428D01*
X84002476Y-86346428D02*
X84002476Y-86108333D01*
X84002476Y-86108333D02*
X84050095Y-85917857D01*
X84050095Y-85917857D02*
X84097714Y-85822619D01*
X84097714Y-85822619D02*
X84145333Y-85775000D01*
X84145333Y-85775000D02*
X84240571Y-85727380D01*
%TO.C,C15*%
X94099142Y-94252142D02*
X94051523Y-94299761D01*
X94051523Y-94299761D02*
X93908666Y-94347380D01*
X93908666Y-94347380D02*
X93813428Y-94347380D01*
X93813428Y-94347380D02*
X93670571Y-94299761D01*
X93670571Y-94299761D02*
X93575333Y-94204523D01*
X93575333Y-94204523D02*
X93527714Y-94109285D01*
X93527714Y-94109285D02*
X93480095Y-93918809D01*
X93480095Y-93918809D02*
X93480095Y-93775952D01*
X93480095Y-93775952D02*
X93527714Y-93585476D01*
X93527714Y-93585476D02*
X93575333Y-93490238D01*
X93575333Y-93490238D02*
X93670571Y-93395000D01*
X93670571Y-93395000D02*
X93813428Y-93347380D01*
X93813428Y-93347380D02*
X93908666Y-93347380D01*
X93908666Y-93347380D02*
X94051523Y-93395000D01*
X94051523Y-93395000D02*
X94099142Y-93442619D01*
X95051523Y-94347380D02*
X94480095Y-94347380D01*
X94765809Y-94347380D02*
X94765809Y-93347380D01*
X94765809Y-93347380D02*
X94670571Y-93490238D01*
X94670571Y-93490238D02*
X94575333Y-93585476D01*
X94575333Y-93585476D02*
X94480095Y-93633095D01*
X95956285Y-93347380D02*
X95480095Y-93347380D01*
X95480095Y-93347380D02*
X95432476Y-93823571D01*
X95432476Y-93823571D02*
X95480095Y-93775952D01*
X95480095Y-93775952D02*
X95575333Y-93728333D01*
X95575333Y-93728333D02*
X95813428Y-93728333D01*
X95813428Y-93728333D02*
X95908666Y-93775952D01*
X95908666Y-93775952D02*
X95956285Y-93823571D01*
X95956285Y-93823571D02*
X96003904Y-93918809D01*
X96003904Y-93918809D02*
X96003904Y-94156904D01*
X96003904Y-94156904D02*
X95956285Y-94252142D01*
X95956285Y-94252142D02*
X95908666Y-94299761D01*
X95908666Y-94299761D02*
X95813428Y-94347380D01*
X95813428Y-94347380D02*
X95575333Y-94347380D01*
X95575333Y-94347380D02*
X95480095Y-94299761D01*
X95480095Y-94299761D02*
X95432476Y-94252142D01*
%TO.C,F1*%
X94662666Y-110375571D02*
X94329333Y-110375571D01*
X94329333Y-110899380D02*
X94329333Y-109899380D01*
X94329333Y-109899380D02*
X94805523Y-109899380D01*
X95710285Y-110899380D02*
X95138857Y-110899380D01*
X95424571Y-110899380D02*
X95424571Y-109899380D01*
X95424571Y-109899380D02*
X95329333Y-110042238D01*
X95329333Y-110042238D02*
X95234095Y-110137476D01*
X95234095Y-110137476D02*
X95138857Y-110185095D01*
%TO.C,C14*%
X98912142Y-87394142D02*
X98864523Y-87441761D01*
X98864523Y-87441761D02*
X98721666Y-87489380D01*
X98721666Y-87489380D02*
X98626428Y-87489380D01*
X98626428Y-87489380D02*
X98483571Y-87441761D01*
X98483571Y-87441761D02*
X98388333Y-87346523D01*
X98388333Y-87346523D02*
X98340714Y-87251285D01*
X98340714Y-87251285D02*
X98293095Y-87060809D01*
X98293095Y-87060809D02*
X98293095Y-86917952D01*
X98293095Y-86917952D02*
X98340714Y-86727476D01*
X98340714Y-86727476D02*
X98388333Y-86632238D01*
X98388333Y-86632238D02*
X98483571Y-86537000D01*
X98483571Y-86537000D02*
X98626428Y-86489380D01*
X98626428Y-86489380D02*
X98721666Y-86489380D01*
X98721666Y-86489380D02*
X98864523Y-86537000D01*
X98864523Y-86537000D02*
X98912142Y-86584619D01*
X99864523Y-87489380D02*
X99293095Y-87489380D01*
X99578809Y-87489380D02*
X99578809Y-86489380D01*
X99578809Y-86489380D02*
X99483571Y-86632238D01*
X99483571Y-86632238D02*
X99388333Y-86727476D01*
X99388333Y-86727476D02*
X99293095Y-86775095D01*
X100721666Y-86822714D02*
X100721666Y-87489380D01*
X100483571Y-86441761D02*
X100245476Y-87156047D01*
X100245476Y-87156047D02*
X100864523Y-87156047D01*
%TO.C,U3*%
X128399380Y-102615904D02*
X129208904Y-102615904D01*
X129208904Y-102615904D02*
X129304142Y-102568285D01*
X129304142Y-102568285D02*
X129351761Y-102520666D01*
X129351761Y-102520666D02*
X129399380Y-102425428D01*
X129399380Y-102425428D02*
X129399380Y-102234952D01*
X129399380Y-102234952D02*
X129351761Y-102139714D01*
X129351761Y-102139714D02*
X129304142Y-102092095D01*
X129304142Y-102092095D02*
X129208904Y-102044476D01*
X129208904Y-102044476D02*
X128399380Y-102044476D01*
X128399380Y-101663523D02*
X128399380Y-101044476D01*
X128399380Y-101044476D02*
X128780333Y-101377809D01*
X128780333Y-101377809D02*
X128780333Y-101234952D01*
X128780333Y-101234952D02*
X128827952Y-101139714D01*
X128827952Y-101139714D02*
X128875571Y-101092095D01*
X128875571Y-101092095D02*
X128970809Y-101044476D01*
X128970809Y-101044476D02*
X129208904Y-101044476D01*
X129208904Y-101044476D02*
X129304142Y-101092095D01*
X129304142Y-101092095D02*
X129351761Y-101139714D01*
X129351761Y-101139714D02*
X129399380Y-101234952D01*
X129399380Y-101234952D02*
X129399380Y-101520666D01*
X129399380Y-101520666D02*
X129351761Y-101615904D01*
X129351761Y-101615904D02*
X129304142Y-101663523D01*
%TO.C,U8*%
X53215380Y-86867904D02*
X54024904Y-86867904D01*
X54024904Y-86867904D02*
X54120142Y-86820285D01*
X54120142Y-86820285D02*
X54167761Y-86772666D01*
X54167761Y-86772666D02*
X54215380Y-86677428D01*
X54215380Y-86677428D02*
X54215380Y-86486952D01*
X54215380Y-86486952D02*
X54167761Y-86391714D01*
X54167761Y-86391714D02*
X54120142Y-86344095D01*
X54120142Y-86344095D02*
X54024904Y-86296476D01*
X54024904Y-86296476D02*
X53215380Y-86296476D01*
X53643952Y-85677428D02*
X53596333Y-85772666D01*
X53596333Y-85772666D02*
X53548714Y-85820285D01*
X53548714Y-85820285D02*
X53453476Y-85867904D01*
X53453476Y-85867904D02*
X53405857Y-85867904D01*
X53405857Y-85867904D02*
X53310619Y-85820285D01*
X53310619Y-85820285D02*
X53263000Y-85772666D01*
X53263000Y-85772666D02*
X53215380Y-85677428D01*
X53215380Y-85677428D02*
X53215380Y-85486952D01*
X53215380Y-85486952D02*
X53263000Y-85391714D01*
X53263000Y-85391714D02*
X53310619Y-85344095D01*
X53310619Y-85344095D02*
X53405857Y-85296476D01*
X53405857Y-85296476D02*
X53453476Y-85296476D01*
X53453476Y-85296476D02*
X53548714Y-85344095D01*
X53548714Y-85344095D02*
X53596333Y-85391714D01*
X53596333Y-85391714D02*
X53643952Y-85486952D01*
X53643952Y-85486952D02*
X53643952Y-85677428D01*
X53643952Y-85677428D02*
X53691571Y-85772666D01*
X53691571Y-85772666D02*
X53739190Y-85820285D01*
X53739190Y-85820285D02*
X53834428Y-85867904D01*
X53834428Y-85867904D02*
X54024904Y-85867904D01*
X54024904Y-85867904D02*
X54120142Y-85820285D01*
X54120142Y-85820285D02*
X54167761Y-85772666D01*
X54167761Y-85772666D02*
X54215380Y-85677428D01*
X54215380Y-85677428D02*
X54215380Y-85486952D01*
X54215380Y-85486952D02*
X54167761Y-85391714D01*
X54167761Y-85391714D02*
X54120142Y-85344095D01*
X54120142Y-85344095D02*
X54024904Y-85296476D01*
X54024904Y-85296476D02*
X53834428Y-85296476D01*
X53834428Y-85296476D02*
X53739190Y-85344095D01*
X53739190Y-85344095D02*
X53691571Y-85391714D01*
X53691571Y-85391714D02*
X53643952Y-85486952D01*
X57931666Y-99275952D02*
X57931666Y-98799762D01*
X58217380Y-99371190D02*
X57217380Y-99037857D01*
X57217380Y-99037857D02*
X58217380Y-98704524D01*
X57550714Y-98371190D02*
X58217380Y-98371190D01*
X57645952Y-98371190D02*
X57598333Y-98323571D01*
X57598333Y-98323571D02*
X57550714Y-98228333D01*
X57550714Y-98228333D02*
X57550714Y-98085476D01*
X57550714Y-98085476D02*
X57598333Y-97990238D01*
X57598333Y-97990238D02*
X57693571Y-97942619D01*
X57693571Y-97942619D02*
X58217380Y-97942619D01*
X57550714Y-97609285D02*
X57550714Y-97228333D01*
X57217380Y-97466428D02*
X58074523Y-97466428D01*
X58074523Y-97466428D02*
X58169761Y-97418809D01*
X58169761Y-97418809D02*
X58217380Y-97323571D01*
X58217380Y-97323571D02*
X58217380Y-97228333D01*
X58169761Y-96514047D02*
X58217380Y-96609285D01*
X58217380Y-96609285D02*
X58217380Y-96799761D01*
X58217380Y-96799761D02*
X58169761Y-96894999D01*
X58169761Y-96894999D02*
X58074523Y-96942618D01*
X58074523Y-96942618D02*
X57693571Y-96942618D01*
X57693571Y-96942618D02*
X57598333Y-96894999D01*
X57598333Y-96894999D02*
X57550714Y-96799761D01*
X57550714Y-96799761D02*
X57550714Y-96609285D01*
X57550714Y-96609285D02*
X57598333Y-96514047D01*
X57598333Y-96514047D02*
X57693571Y-96466428D01*
X57693571Y-96466428D02*
X57788809Y-96466428D01*
X57788809Y-96466428D02*
X57884047Y-96942618D01*
X57550714Y-96037856D02*
X58217380Y-96037856D01*
X57645952Y-96037856D02*
X57598333Y-95990237D01*
X57598333Y-95990237D02*
X57550714Y-95894999D01*
X57550714Y-95894999D02*
X57550714Y-95752142D01*
X57550714Y-95752142D02*
X57598333Y-95656904D01*
X57598333Y-95656904D02*
X57693571Y-95609285D01*
X57693571Y-95609285D02*
X58217380Y-95609285D01*
X57550714Y-95133094D02*
X58217380Y-95133094D01*
X57645952Y-95133094D02*
X57598333Y-95085475D01*
X57598333Y-95085475D02*
X57550714Y-94990237D01*
X57550714Y-94990237D02*
X57550714Y-94847380D01*
X57550714Y-94847380D02*
X57598333Y-94752142D01*
X57598333Y-94752142D02*
X57693571Y-94704523D01*
X57693571Y-94704523D02*
X58217380Y-94704523D01*
X58217380Y-93799761D02*
X57693571Y-93799761D01*
X57693571Y-93799761D02*
X57598333Y-93847380D01*
X57598333Y-93847380D02*
X57550714Y-93942618D01*
X57550714Y-93942618D02*
X57550714Y-94133094D01*
X57550714Y-94133094D02*
X57598333Y-94228332D01*
X58169761Y-93799761D02*
X58217380Y-93894999D01*
X58217380Y-93894999D02*
X58217380Y-94133094D01*
X58217380Y-94133094D02*
X58169761Y-94228332D01*
X58169761Y-94228332D02*
X58074523Y-94275951D01*
X58074523Y-94275951D02*
X57979285Y-94275951D01*
X57979285Y-94275951D02*
X57884047Y-94228332D01*
X57884047Y-94228332D02*
X57836428Y-94133094D01*
X57836428Y-94133094D02*
X57836428Y-93894999D01*
X57836428Y-93894999D02*
X57788809Y-93799761D01*
X57931666Y-92771189D02*
X57931666Y-92294999D01*
X58217380Y-92866427D02*
X57217380Y-92533094D01*
X57217380Y-92533094D02*
X58217380Y-92199761D01*
X58217380Y-91866427D02*
X57550714Y-91866427D01*
X57741190Y-91866427D02*
X57645952Y-91818808D01*
X57645952Y-91818808D02*
X57598333Y-91771189D01*
X57598333Y-91771189D02*
X57550714Y-91675951D01*
X57550714Y-91675951D02*
X57550714Y-91580713D01*
X58169761Y-90866427D02*
X58217380Y-90961665D01*
X58217380Y-90961665D02*
X58217380Y-91152141D01*
X58217380Y-91152141D02*
X58169761Y-91247379D01*
X58169761Y-91247379D02*
X58074523Y-91294998D01*
X58074523Y-91294998D02*
X57693571Y-91294998D01*
X57693571Y-91294998D02*
X57598333Y-91247379D01*
X57598333Y-91247379D02*
X57550714Y-91152141D01*
X57550714Y-91152141D02*
X57550714Y-90961665D01*
X57550714Y-90961665D02*
X57598333Y-90866427D01*
X57598333Y-90866427D02*
X57693571Y-90818808D01*
X57693571Y-90818808D02*
X57788809Y-90818808D01*
X57788809Y-90818808D02*
X57884047Y-91294998D01*
X58217380Y-89961665D02*
X57693571Y-89961665D01*
X57693571Y-89961665D02*
X57598333Y-90009284D01*
X57598333Y-90009284D02*
X57550714Y-90104522D01*
X57550714Y-90104522D02*
X57550714Y-90294998D01*
X57550714Y-90294998D02*
X57598333Y-90390236D01*
X58169761Y-89961665D02*
X58217380Y-90056903D01*
X58217380Y-90056903D02*
X58217380Y-90294998D01*
X58217380Y-90294998D02*
X58169761Y-90390236D01*
X58169761Y-90390236D02*
X58074523Y-90437855D01*
X58074523Y-90437855D02*
X57979285Y-90437855D01*
X57979285Y-90437855D02*
X57884047Y-90390236D01*
X57884047Y-90390236D02*
X57836428Y-90294998D01*
X57836428Y-90294998D02*
X57836428Y-90056903D01*
X57836428Y-90056903D02*
X57788809Y-89961665D01*
%TO.C,R18*%
X79621142Y-109965380D02*
X79287809Y-109489190D01*
X79049714Y-109965380D02*
X79049714Y-108965380D01*
X79049714Y-108965380D02*
X79430666Y-108965380D01*
X79430666Y-108965380D02*
X79525904Y-109013000D01*
X79525904Y-109013000D02*
X79573523Y-109060619D01*
X79573523Y-109060619D02*
X79621142Y-109155857D01*
X79621142Y-109155857D02*
X79621142Y-109298714D01*
X79621142Y-109298714D02*
X79573523Y-109393952D01*
X79573523Y-109393952D02*
X79525904Y-109441571D01*
X79525904Y-109441571D02*
X79430666Y-109489190D01*
X79430666Y-109489190D02*
X79049714Y-109489190D01*
X80573523Y-109965380D02*
X80002095Y-109965380D01*
X80287809Y-109965380D02*
X80287809Y-108965380D01*
X80287809Y-108965380D02*
X80192571Y-109108238D01*
X80192571Y-109108238D02*
X80097333Y-109203476D01*
X80097333Y-109203476D02*
X80002095Y-109251095D01*
X81144952Y-109393952D02*
X81049714Y-109346333D01*
X81049714Y-109346333D02*
X81002095Y-109298714D01*
X81002095Y-109298714D02*
X80954476Y-109203476D01*
X80954476Y-109203476D02*
X80954476Y-109155857D01*
X80954476Y-109155857D02*
X81002095Y-109060619D01*
X81002095Y-109060619D02*
X81049714Y-109013000D01*
X81049714Y-109013000D02*
X81144952Y-108965380D01*
X81144952Y-108965380D02*
X81335428Y-108965380D01*
X81335428Y-108965380D02*
X81430666Y-109013000D01*
X81430666Y-109013000D02*
X81478285Y-109060619D01*
X81478285Y-109060619D02*
X81525904Y-109155857D01*
X81525904Y-109155857D02*
X81525904Y-109203476D01*
X81525904Y-109203476D02*
X81478285Y-109298714D01*
X81478285Y-109298714D02*
X81430666Y-109346333D01*
X81430666Y-109346333D02*
X81335428Y-109393952D01*
X81335428Y-109393952D02*
X81144952Y-109393952D01*
X81144952Y-109393952D02*
X81049714Y-109441571D01*
X81049714Y-109441571D02*
X81002095Y-109489190D01*
X81002095Y-109489190D02*
X80954476Y-109584428D01*
X80954476Y-109584428D02*
X80954476Y-109774904D01*
X80954476Y-109774904D02*
X81002095Y-109870142D01*
X81002095Y-109870142D02*
X81049714Y-109917761D01*
X81049714Y-109917761D02*
X81144952Y-109965380D01*
X81144952Y-109965380D02*
X81335428Y-109965380D01*
X81335428Y-109965380D02*
X81430666Y-109917761D01*
X81430666Y-109917761D02*
X81478285Y-109870142D01*
X81478285Y-109870142D02*
X81525904Y-109774904D01*
X81525904Y-109774904D02*
X81525904Y-109584428D01*
X81525904Y-109584428D02*
X81478285Y-109489190D01*
X81478285Y-109489190D02*
X81430666Y-109441571D01*
X81430666Y-109441571D02*
X81335428Y-109393952D01*
%TO.C,U7*%
X88000380Y-88645904D02*
X88809904Y-88645904D01*
X88809904Y-88645904D02*
X88905142Y-88598285D01*
X88905142Y-88598285D02*
X88952761Y-88550666D01*
X88952761Y-88550666D02*
X89000380Y-88455428D01*
X89000380Y-88455428D02*
X89000380Y-88264952D01*
X89000380Y-88264952D02*
X88952761Y-88169714D01*
X88952761Y-88169714D02*
X88905142Y-88122095D01*
X88905142Y-88122095D02*
X88809904Y-88074476D01*
X88809904Y-88074476D02*
X88000380Y-88074476D01*
X88000380Y-87693523D02*
X88000380Y-87026857D01*
X88000380Y-87026857D02*
X89000380Y-87455428D01*
%TO.C,N3*%
X91208095Y-57987380D02*
X91208095Y-56987380D01*
X91208095Y-56987380D02*
X91779523Y-57987380D01*
X91779523Y-57987380D02*
X91779523Y-56987380D01*
X92160476Y-56987380D02*
X92779523Y-56987380D01*
X92779523Y-56987380D02*
X92446190Y-57368333D01*
X92446190Y-57368333D02*
X92589047Y-57368333D01*
X92589047Y-57368333D02*
X92684285Y-57415952D01*
X92684285Y-57415952D02*
X92731904Y-57463571D01*
X92731904Y-57463571D02*
X92779523Y-57558809D01*
X92779523Y-57558809D02*
X92779523Y-57796904D01*
X92779523Y-57796904D02*
X92731904Y-57892142D01*
X92731904Y-57892142D02*
X92684285Y-57939761D01*
X92684285Y-57939761D02*
X92589047Y-57987380D01*
X92589047Y-57987380D02*
X92303333Y-57987380D01*
X92303333Y-57987380D02*
X92208095Y-57939761D01*
X92208095Y-57939761D02*
X92160476Y-57892142D01*
%TO.C,R19*%
X79621142Y-114667380D02*
X79287809Y-114191190D01*
X79049714Y-114667380D02*
X79049714Y-113667380D01*
X79049714Y-113667380D02*
X79430666Y-113667380D01*
X79430666Y-113667380D02*
X79525904Y-113715000D01*
X79525904Y-113715000D02*
X79573523Y-113762619D01*
X79573523Y-113762619D02*
X79621142Y-113857857D01*
X79621142Y-113857857D02*
X79621142Y-114000714D01*
X79621142Y-114000714D02*
X79573523Y-114095952D01*
X79573523Y-114095952D02*
X79525904Y-114143571D01*
X79525904Y-114143571D02*
X79430666Y-114191190D01*
X79430666Y-114191190D02*
X79049714Y-114191190D01*
X80573523Y-114667380D02*
X80002095Y-114667380D01*
X80287809Y-114667380D02*
X80287809Y-113667380D01*
X80287809Y-113667380D02*
X80192571Y-113810238D01*
X80192571Y-113810238D02*
X80097333Y-113905476D01*
X80097333Y-113905476D02*
X80002095Y-113953095D01*
X81049714Y-114667380D02*
X81240190Y-114667380D01*
X81240190Y-114667380D02*
X81335428Y-114619761D01*
X81335428Y-114619761D02*
X81383047Y-114572142D01*
X81383047Y-114572142D02*
X81478285Y-114429285D01*
X81478285Y-114429285D02*
X81525904Y-114238809D01*
X81525904Y-114238809D02*
X81525904Y-113857857D01*
X81525904Y-113857857D02*
X81478285Y-113762619D01*
X81478285Y-113762619D02*
X81430666Y-113715000D01*
X81430666Y-113715000D02*
X81335428Y-113667380D01*
X81335428Y-113667380D02*
X81144952Y-113667380D01*
X81144952Y-113667380D02*
X81049714Y-113715000D01*
X81049714Y-113715000D02*
X81002095Y-113762619D01*
X81002095Y-113762619D02*
X80954476Y-113857857D01*
X80954476Y-113857857D02*
X80954476Y-114095952D01*
X80954476Y-114095952D02*
X81002095Y-114191190D01*
X81002095Y-114191190D02*
X81049714Y-114238809D01*
X81049714Y-114238809D02*
X81144952Y-114286428D01*
X81144952Y-114286428D02*
X81335428Y-114286428D01*
X81335428Y-114286428D02*
X81430666Y-114238809D01*
X81430666Y-114238809D02*
X81478285Y-114191190D01*
X81478285Y-114191190D02*
X81525904Y-114095952D01*
%TO.C,R23*%
X72503380Y-107830857D02*
X72027190Y-108164190D01*
X72503380Y-108402285D02*
X71503380Y-108402285D01*
X71503380Y-108402285D02*
X71503380Y-108021333D01*
X71503380Y-108021333D02*
X71551000Y-107926095D01*
X71551000Y-107926095D02*
X71598619Y-107878476D01*
X71598619Y-107878476D02*
X71693857Y-107830857D01*
X71693857Y-107830857D02*
X71836714Y-107830857D01*
X71836714Y-107830857D02*
X71931952Y-107878476D01*
X71931952Y-107878476D02*
X71979571Y-107926095D01*
X71979571Y-107926095D02*
X72027190Y-108021333D01*
X72027190Y-108021333D02*
X72027190Y-108402285D01*
X71598619Y-107449904D02*
X71551000Y-107402285D01*
X71551000Y-107402285D02*
X71503380Y-107307047D01*
X71503380Y-107307047D02*
X71503380Y-107068952D01*
X71503380Y-107068952D02*
X71551000Y-106973714D01*
X71551000Y-106973714D02*
X71598619Y-106926095D01*
X71598619Y-106926095D02*
X71693857Y-106878476D01*
X71693857Y-106878476D02*
X71789095Y-106878476D01*
X71789095Y-106878476D02*
X71931952Y-106926095D01*
X71931952Y-106926095D02*
X72503380Y-107497523D01*
X72503380Y-107497523D02*
X72503380Y-106878476D01*
X71503380Y-106545142D02*
X71503380Y-105926095D01*
X71503380Y-105926095D02*
X71884333Y-106259428D01*
X71884333Y-106259428D02*
X71884333Y-106116571D01*
X71884333Y-106116571D02*
X71931952Y-106021333D01*
X71931952Y-106021333D02*
X71979571Y-105973714D01*
X71979571Y-105973714D02*
X72074809Y-105926095D01*
X72074809Y-105926095D02*
X72312904Y-105926095D01*
X72312904Y-105926095D02*
X72408142Y-105973714D01*
X72408142Y-105973714D02*
X72455761Y-106021333D01*
X72455761Y-106021333D02*
X72503380Y-106116571D01*
X72503380Y-106116571D02*
X72503380Y-106402285D01*
X72503380Y-106402285D02*
X72455761Y-106497523D01*
X72455761Y-106497523D02*
X72408142Y-106545142D01*
%TO.C,C12*%
X100449142Y-95776142D02*
X100401523Y-95823761D01*
X100401523Y-95823761D02*
X100258666Y-95871380D01*
X100258666Y-95871380D02*
X100163428Y-95871380D01*
X100163428Y-95871380D02*
X100020571Y-95823761D01*
X100020571Y-95823761D02*
X99925333Y-95728523D01*
X99925333Y-95728523D02*
X99877714Y-95633285D01*
X99877714Y-95633285D02*
X99830095Y-95442809D01*
X99830095Y-95442809D02*
X99830095Y-95299952D01*
X99830095Y-95299952D02*
X99877714Y-95109476D01*
X99877714Y-95109476D02*
X99925333Y-95014238D01*
X99925333Y-95014238D02*
X100020571Y-94919000D01*
X100020571Y-94919000D02*
X100163428Y-94871380D01*
X100163428Y-94871380D02*
X100258666Y-94871380D01*
X100258666Y-94871380D02*
X100401523Y-94919000D01*
X100401523Y-94919000D02*
X100449142Y-94966619D01*
X101401523Y-95871380D02*
X100830095Y-95871380D01*
X101115809Y-95871380D02*
X101115809Y-94871380D01*
X101115809Y-94871380D02*
X101020571Y-95014238D01*
X101020571Y-95014238D02*
X100925333Y-95109476D01*
X100925333Y-95109476D02*
X100830095Y-95157095D01*
X101782476Y-94966619D02*
X101830095Y-94919000D01*
X101830095Y-94919000D02*
X101925333Y-94871380D01*
X101925333Y-94871380D02*
X102163428Y-94871380D01*
X102163428Y-94871380D02*
X102258666Y-94919000D01*
X102258666Y-94919000D02*
X102306285Y-94966619D01*
X102306285Y-94966619D02*
X102353904Y-95061857D01*
X102353904Y-95061857D02*
X102353904Y-95157095D01*
X102353904Y-95157095D02*
X102306285Y-95299952D01*
X102306285Y-95299952D02*
X101734857Y-95871380D01*
X101734857Y-95871380D02*
X102353904Y-95871380D01*
%TO.C,N7*%
X51278095Y-57987380D02*
X51278095Y-56987380D01*
X51278095Y-56987380D02*
X51849523Y-57987380D01*
X51849523Y-57987380D02*
X51849523Y-56987380D01*
X52230476Y-56987380D02*
X52897142Y-56987380D01*
X52897142Y-56987380D02*
X52468571Y-57987380D01*
%TO.C,C6*%
X99655333Y-113810142D02*
X99607714Y-113857761D01*
X99607714Y-113857761D02*
X99464857Y-113905380D01*
X99464857Y-113905380D02*
X99369619Y-113905380D01*
X99369619Y-113905380D02*
X99226762Y-113857761D01*
X99226762Y-113857761D02*
X99131524Y-113762523D01*
X99131524Y-113762523D02*
X99083905Y-113667285D01*
X99083905Y-113667285D02*
X99036286Y-113476809D01*
X99036286Y-113476809D02*
X99036286Y-113333952D01*
X99036286Y-113333952D02*
X99083905Y-113143476D01*
X99083905Y-113143476D02*
X99131524Y-113048238D01*
X99131524Y-113048238D02*
X99226762Y-112953000D01*
X99226762Y-112953000D02*
X99369619Y-112905380D01*
X99369619Y-112905380D02*
X99464857Y-112905380D01*
X99464857Y-112905380D02*
X99607714Y-112953000D01*
X99607714Y-112953000D02*
X99655333Y-113000619D01*
X100512476Y-112905380D02*
X100322000Y-112905380D01*
X100322000Y-112905380D02*
X100226762Y-112953000D01*
X100226762Y-112953000D02*
X100179143Y-113000619D01*
X100179143Y-113000619D02*
X100083905Y-113143476D01*
X100083905Y-113143476D02*
X100036286Y-113333952D01*
X100036286Y-113333952D02*
X100036286Y-113714904D01*
X100036286Y-113714904D02*
X100083905Y-113810142D01*
X100083905Y-113810142D02*
X100131524Y-113857761D01*
X100131524Y-113857761D02*
X100226762Y-113905380D01*
X100226762Y-113905380D02*
X100417238Y-113905380D01*
X100417238Y-113905380D02*
X100512476Y-113857761D01*
X100512476Y-113857761D02*
X100560095Y-113810142D01*
X100560095Y-113810142D02*
X100607714Y-113714904D01*
X100607714Y-113714904D02*
X100607714Y-113476809D01*
X100607714Y-113476809D02*
X100560095Y-113381571D01*
X100560095Y-113381571D02*
X100512476Y-113333952D01*
X100512476Y-113333952D02*
X100417238Y-113286333D01*
X100417238Y-113286333D02*
X100226762Y-113286333D01*
X100226762Y-113286333D02*
X100131524Y-113333952D01*
X100131524Y-113333952D02*
X100083905Y-113381571D01*
X100083905Y-113381571D02*
X100036286Y-113476809D01*
%TO.C,C5*%
X98639333Y-107206142D02*
X98591714Y-107253761D01*
X98591714Y-107253761D02*
X98448857Y-107301380D01*
X98448857Y-107301380D02*
X98353619Y-107301380D01*
X98353619Y-107301380D02*
X98210762Y-107253761D01*
X98210762Y-107253761D02*
X98115524Y-107158523D01*
X98115524Y-107158523D02*
X98067905Y-107063285D01*
X98067905Y-107063285D02*
X98020286Y-106872809D01*
X98020286Y-106872809D02*
X98020286Y-106729952D01*
X98020286Y-106729952D02*
X98067905Y-106539476D01*
X98067905Y-106539476D02*
X98115524Y-106444238D01*
X98115524Y-106444238D02*
X98210762Y-106349000D01*
X98210762Y-106349000D02*
X98353619Y-106301380D01*
X98353619Y-106301380D02*
X98448857Y-106301380D01*
X98448857Y-106301380D02*
X98591714Y-106349000D01*
X98591714Y-106349000D02*
X98639333Y-106396619D01*
X99544095Y-106301380D02*
X99067905Y-106301380D01*
X99067905Y-106301380D02*
X99020286Y-106777571D01*
X99020286Y-106777571D02*
X99067905Y-106729952D01*
X99067905Y-106729952D02*
X99163143Y-106682333D01*
X99163143Y-106682333D02*
X99401238Y-106682333D01*
X99401238Y-106682333D02*
X99496476Y-106729952D01*
X99496476Y-106729952D02*
X99544095Y-106777571D01*
X99544095Y-106777571D02*
X99591714Y-106872809D01*
X99591714Y-106872809D02*
X99591714Y-107110904D01*
X99591714Y-107110904D02*
X99544095Y-107206142D01*
X99544095Y-107206142D02*
X99496476Y-107253761D01*
X99496476Y-107253761D02*
X99401238Y-107301380D01*
X99401238Y-107301380D02*
X99163143Y-107301380D01*
X99163143Y-107301380D02*
X99067905Y-107253761D01*
X99067905Y-107253761D02*
X99020286Y-107206142D01*
%TO.C,R21*%
X65391380Y-110878857D02*
X64915190Y-111212190D01*
X65391380Y-111450285D02*
X64391380Y-111450285D01*
X64391380Y-111450285D02*
X64391380Y-111069333D01*
X64391380Y-111069333D02*
X64439000Y-110974095D01*
X64439000Y-110974095D02*
X64486619Y-110926476D01*
X64486619Y-110926476D02*
X64581857Y-110878857D01*
X64581857Y-110878857D02*
X64724714Y-110878857D01*
X64724714Y-110878857D02*
X64819952Y-110926476D01*
X64819952Y-110926476D02*
X64867571Y-110974095D01*
X64867571Y-110974095D02*
X64915190Y-111069333D01*
X64915190Y-111069333D02*
X64915190Y-111450285D01*
X64486619Y-110497904D02*
X64439000Y-110450285D01*
X64439000Y-110450285D02*
X64391380Y-110355047D01*
X64391380Y-110355047D02*
X64391380Y-110116952D01*
X64391380Y-110116952D02*
X64439000Y-110021714D01*
X64439000Y-110021714D02*
X64486619Y-109974095D01*
X64486619Y-109974095D02*
X64581857Y-109926476D01*
X64581857Y-109926476D02*
X64677095Y-109926476D01*
X64677095Y-109926476D02*
X64819952Y-109974095D01*
X64819952Y-109974095D02*
X65391380Y-110545523D01*
X65391380Y-110545523D02*
X65391380Y-109926476D01*
X65391380Y-108974095D02*
X65391380Y-109545523D01*
X65391380Y-109259809D02*
X64391380Y-109259809D01*
X64391380Y-109259809D02*
X64534238Y-109355047D01*
X64534238Y-109355047D02*
X64629476Y-109450285D01*
X64629476Y-109450285D02*
X64677095Y-109545523D01*
%TO.C,R22*%
X83431142Y-94601380D02*
X83097809Y-94125190D01*
X82859714Y-94601380D02*
X82859714Y-93601380D01*
X82859714Y-93601380D02*
X83240666Y-93601380D01*
X83240666Y-93601380D02*
X83335904Y-93649000D01*
X83335904Y-93649000D02*
X83383523Y-93696619D01*
X83383523Y-93696619D02*
X83431142Y-93791857D01*
X83431142Y-93791857D02*
X83431142Y-93934714D01*
X83431142Y-93934714D02*
X83383523Y-94029952D01*
X83383523Y-94029952D02*
X83335904Y-94077571D01*
X83335904Y-94077571D02*
X83240666Y-94125190D01*
X83240666Y-94125190D02*
X82859714Y-94125190D01*
X83812095Y-93696619D02*
X83859714Y-93649000D01*
X83859714Y-93649000D02*
X83954952Y-93601380D01*
X83954952Y-93601380D02*
X84193047Y-93601380D01*
X84193047Y-93601380D02*
X84288285Y-93649000D01*
X84288285Y-93649000D02*
X84335904Y-93696619D01*
X84335904Y-93696619D02*
X84383523Y-93791857D01*
X84383523Y-93791857D02*
X84383523Y-93887095D01*
X84383523Y-93887095D02*
X84335904Y-94029952D01*
X84335904Y-94029952D02*
X83764476Y-94601380D01*
X83764476Y-94601380D02*
X84383523Y-94601380D01*
X84764476Y-93696619D02*
X84812095Y-93649000D01*
X84812095Y-93649000D02*
X84907333Y-93601380D01*
X84907333Y-93601380D02*
X85145428Y-93601380D01*
X85145428Y-93601380D02*
X85240666Y-93649000D01*
X85240666Y-93649000D02*
X85288285Y-93696619D01*
X85288285Y-93696619D02*
X85335904Y-93791857D01*
X85335904Y-93791857D02*
X85335904Y-93887095D01*
X85335904Y-93887095D02*
X85288285Y-94029952D01*
X85288285Y-94029952D02*
X84716857Y-94601380D01*
X84716857Y-94601380D02*
X85335904Y-94601380D01*
%TO.C,N5*%
X76786563Y-65761904D02*
X75786563Y-65761904D01*
X75786563Y-65761904D02*
X76786563Y-65190476D01*
X76786563Y-65190476D02*
X75786563Y-65190476D01*
X75786563Y-64238095D02*
X75786563Y-64714285D01*
X75786563Y-64714285D02*
X76262754Y-64761904D01*
X76262754Y-64761904D02*
X76215135Y-64714285D01*
X76215135Y-64714285D02*
X76167516Y-64619047D01*
X76167516Y-64619047D02*
X76167516Y-64380952D01*
X76167516Y-64380952D02*
X76215135Y-64285714D01*
X76215135Y-64285714D02*
X76262754Y-64238095D01*
X76262754Y-64238095D02*
X76357992Y-64190476D01*
X76357992Y-64190476D02*
X76596087Y-64190476D01*
X76596087Y-64190476D02*
X76691325Y-64238095D01*
X76691325Y-64238095D02*
X76738944Y-64285714D01*
X76738944Y-64285714D02*
X76786563Y-64380952D01*
X76786563Y-64380952D02*
X76786563Y-64619047D01*
X76786563Y-64619047D02*
X76738944Y-64714285D01*
X76738944Y-64714285D02*
X76691325Y-64761904D01*
%TO.C,U2*%
X107442095Y-86489380D02*
X107442095Y-87298904D01*
X107442095Y-87298904D02*
X107489714Y-87394142D01*
X107489714Y-87394142D02*
X107537333Y-87441761D01*
X107537333Y-87441761D02*
X107632571Y-87489380D01*
X107632571Y-87489380D02*
X107823047Y-87489380D01*
X107823047Y-87489380D02*
X107918285Y-87441761D01*
X107918285Y-87441761D02*
X107965904Y-87394142D01*
X107965904Y-87394142D02*
X108013523Y-87298904D01*
X108013523Y-87298904D02*
X108013523Y-86489380D01*
X108442095Y-86584619D02*
X108489714Y-86537000D01*
X108489714Y-86537000D02*
X108584952Y-86489380D01*
X108584952Y-86489380D02*
X108823047Y-86489380D01*
X108823047Y-86489380D02*
X108918285Y-86537000D01*
X108918285Y-86537000D02*
X108965904Y-86584619D01*
X108965904Y-86584619D02*
X109013523Y-86679857D01*
X109013523Y-86679857D02*
X109013523Y-86775095D01*
X109013523Y-86775095D02*
X108965904Y-86917952D01*
X108965904Y-86917952D02*
X108394476Y-87489380D01*
X108394476Y-87489380D02*
X109013523Y-87489380D01*
%TO.C,J2*%
X124380666Y-87505380D02*
X124380666Y-88219666D01*
X124380666Y-88219666D02*
X124333047Y-88362523D01*
X124333047Y-88362523D02*
X124237809Y-88457761D01*
X124237809Y-88457761D02*
X124094952Y-88505380D01*
X124094952Y-88505380D02*
X123999714Y-88505380D01*
X124809238Y-87600619D02*
X124856857Y-87553000D01*
X124856857Y-87553000D02*
X124952095Y-87505380D01*
X124952095Y-87505380D02*
X125190190Y-87505380D01*
X125190190Y-87505380D02*
X125285428Y-87553000D01*
X125285428Y-87553000D02*
X125333047Y-87600619D01*
X125333047Y-87600619D02*
X125380666Y-87695857D01*
X125380666Y-87695857D02*
X125380666Y-87791095D01*
X125380666Y-87791095D02*
X125333047Y-87933952D01*
X125333047Y-87933952D02*
X124761619Y-88505380D01*
X124761619Y-88505380D02*
X125380666Y-88505380D01*
D12*
%TO.C,D4*%
X93800000Y-90694000D02*
X89790000Y-90694000D01*
X93800000Y-92694000D02*
X89790000Y-92694000D01*
X93800000Y-92694000D02*
X93800000Y-90694000D01*
D10*
%TO.C,N4*%
X108940000Y-69120000D02*
G75*
G03*
X108940000Y-69120000I-1000000J0D01*
G01*
X114440000Y-65120000D02*
G75*
G03*
X114440000Y-65120000I-6500000J0D01*
G01*
D12*
%TO.C,N9*%
X121390817Y-67023999D02*
G75*
G03*
X121159845Y-62880785I-1399999J1999999D01*
G01*
X118890818Y-62824000D02*
G75*
G03*
X118496688Y-66977862I1100000J-2200000D01*
G01*
D10*
X121490818Y-67524000D02*
G75*
G03*
X121490818Y-67524000I-1500000J0D01*
G01*
%TO.C,N1*%
X133040000Y-69160000D02*
G75*
G03*
X133040000Y-69160000I-1000000J0D01*
G01*
X138540000Y-65160000D02*
G75*
G03*
X138540000Y-65160000I-6500000J0D01*
G01*
D12*
%TO.C,C2*%
X62232000Y-107034420D02*
X62232000Y-107315580D01*
X61212000Y-107034420D02*
X61212000Y-107315580D01*
%TO.C,C1*%
X63756000Y-107047420D02*
X63756000Y-107328580D01*
X62736000Y-107047420D02*
X62736000Y-107328580D01*
%TO.C,C4*%
X103010580Y-91950000D02*
X102729420Y-91950000D01*
X103010580Y-90930000D02*
X102729420Y-90930000D01*
D10*
%TO.C,N8*%
X69000000Y-69100000D02*
G75*
G03*
X69000000Y-69100000I-1000000J0D01*
G01*
X74500000Y-65100000D02*
G75*
G03*
X74500000Y-65100000I-6500000J0D01*
G01*
D12*
%TO.C,U4*%
X121749000Y-104394000D02*
X121749000Y-100794000D01*
X121749000Y-104394000D02*
X121749000Y-106594000D01*
X114979000Y-104394000D02*
X114979000Y-102194000D01*
X114979000Y-104394000D02*
X114979000Y-106594000D01*
%TO.C,R24*%
X75706500Y-106950742D02*
X75706500Y-107425258D01*
X74661500Y-106950742D02*
X74661500Y-107425258D01*
D10*
%TO.C,N2*%
X149000000Y-69100000D02*
G75*
G03*
X149000000Y-69100000I-1000000J0D01*
G01*
X154500000Y-65100000D02*
G75*
G03*
X154500000Y-65100000I-6500000J0D01*
G01*
D12*
%TO.C,C9*%
X123192000Y-106552420D02*
X123192000Y-106833580D01*
X122172000Y-106552420D02*
X122172000Y-106833580D01*
%TO.C,J3*%
X145930000Y-111170000D02*
X112850000Y-111170000D01*
X145930000Y-111170000D02*
X145930000Y-113830000D01*
X112850000Y-111170000D02*
X112850000Y-113830000D01*
X148530000Y-112500000D02*
X148530000Y-113830000D01*
X148530000Y-113830000D02*
X147200000Y-113830000D01*
X145930000Y-113830000D02*
X112850000Y-113830000D01*
%TO.C,C7*%
X122172000Y-102248580D02*
X122172000Y-101967420D01*
X123192000Y-102248580D02*
X123192000Y-101967420D01*
%TO.C,R8*%
X120666742Y-90155500D02*
X121141258Y-90155500D01*
X120666742Y-91200500D02*
X121141258Y-91200500D01*
%TO.C,C13*%
X99414420Y-90680000D02*
X99695580Y-90680000D01*
X99414420Y-89660000D02*
X99695580Y-89660000D01*
%TO.C,C3*%
X67312000Y-107060420D02*
X67312000Y-107341580D01*
X66292000Y-107060420D02*
X66292000Y-107341580D01*
%TO.C,R20*%
X83074742Y-84313500D02*
X83549258Y-84313500D01*
X83074742Y-85358500D02*
X83549258Y-85358500D01*
%TO.C,C15*%
X91553420Y-94236000D02*
X91834580Y-94236000D01*
X91553420Y-93216000D02*
X91834580Y-93216000D01*
%TO.C,F1*%
X95598064Y-109622000D02*
X94393936Y-109622000D01*
X95598064Y-107802000D02*
X94393936Y-107802000D01*
%TO.C,C14*%
X99414420Y-88136000D02*
X99695580Y-88136000D01*
X99414420Y-89156000D02*
X99695580Y-89156000D01*
%TO.C,U8*%
X54850000Y-103595000D02*
X61600000Y-103595000D01*
X54850000Y-103595000D02*
X54850000Y-85595000D01*
X79600000Y-103595000D02*
X80350000Y-103595000D01*
X80350000Y-103595000D02*
X80350000Y-102595000D01*
X54850000Y-85595000D02*
X61600000Y-85595000D01*
X60790000Y-85595000D02*
X60790000Y-103595000D01*
X79600000Y-85595000D02*
X80350000Y-85595000D01*
X80350000Y-85595000D02*
X80350000Y-86595000D01*
%TO.C,R18*%
X80026742Y-110505500D02*
X80501258Y-110505500D01*
X80026742Y-111550500D02*
X80501258Y-111550500D01*
D10*
%TO.C,U7*%
X90577000Y-87021000D02*
X90577000Y-87246000D01*
X90577000Y-90271000D02*
X90577000Y-90046000D01*
X93827000Y-87021000D02*
X90577000Y-87021000D01*
X93827000Y-87021000D02*
X93827000Y-87246000D01*
X93827000Y-90146000D02*
X94902000Y-90146000D01*
X93827000Y-90271000D02*
X90577000Y-90271000D01*
X93827000Y-90271000D02*
X93827000Y-90146000D01*
D12*
%TO.C,R7*%
X120666742Y-87361500D02*
X121141258Y-87361500D01*
X120666742Y-88406500D02*
X121141258Y-88406500D01*
D10*
%TO.C,N3*%
X92970000Y-69120000D02*
G75*
G03*
X92970000Y-69120000I-1000000J0D01*
G01*
X98470000Y-65120000D02*
G75*
G03*
X98470000Y-65120000I-6500000J0D01*
G01*
D12*
%TO.C,R19*%
X80026742Y-112253500D02*
X80501258Y-112253500D01*
X80026742Y-113298500D02*
X80501258Y-113298500D01*
%TO.C,R23*%
X73928500Y-106950742D02*
X73928500Y-107425258D01*
X72883500Y-106950742D02*
X72883500Y-107425258D01*
%TO.C,C12*%
X103010580Y-94236000D02*
X102729420Y-94236000D01*
X103010580Y-93216000D02*
X102729420Y-93216000D01*
D10*
%TO.C,N7*%
X53040000Y-69120000D02*
G75*
G03*
X53040000Y-69120000I-1000000J0D01*
G01*
X58540000Y-65120000D02*
G75*
G03*
X58540000Y-65120000I-6500000J0D01*
G01*
D12*
%TO.C,C6*%
X99681420Y-111250000D02*
X99962580Y-111250000D01*
X99681420Y-112270000D02*
X99962580Y-112270000D01*
%TO.C,C5*%
X99110748Y-107860000D02*
X100533252Y-107860000D01*
X99110748Y-110580000D02*
X100533252Y-110580000D01*
%TO.C,R21*%
X64501500Y-107488258D02*
X64501500Y-107013742D01*
X65546500Y-107488258D02*
X65546500Y-107013742D01*
%TO.C,R22*%
X82820742Y-92187500D02*
X83295258Y-92187500D01*
X82820742Y-93232500D02*
X83295258Y-93232500D01*
%TO.C,N5*%
X81419182Y-66999999D02*
G75*
G03*
X81188210Y-62856785I-1399999J1999999D01*
G01*
X78919183Y-62800000D02*
G75*
G03*
X78525053Y-66953862I1100000J-2200000D01*
G01*
D10*
X81519183Y-67500000D02*
G75*
G03*
X81519183Y-67500000I-1500000J0D01*
G01*
D12*
%TO.C,U2*%
X105049000Y-87979000D02*
X111059000Y-87979000D01*
X107299000Y-94799000D02*
X111059000Y-94799000D01*
X111059000Y-87979000D02*
X111059000Y-89239000D01*
X111059000Y-94799000D02*
X111059000Y-93539000D01*
%TO.C,J2*%
X123379000Y-86928000D02*
X123379000Y-85598000D01*
X124709000Y-86928000D02*
X123379000Y-86928000D01*
X125979000Y-86928000D02*
X128579000Y-86928000D01*
X125979000Y-86928000D02*
X125979000Y-84268000D01*
X128579000Y-86928000D02*
X128579000Y-84268000D01*
X125979000Y-84268000D02*
X128579000Y-84268000D01*
%TD*%
M02*
