0
SECTION
2
HEADER
9
$INSUNITS
70
4
9
$ACADVER
1
AC1014
9
$HANDSEED
5
FFFF
0
ENDSEC
0
SECTION
2
TABLES
0
TABLE
2
VPORT
5
8
100
AcDbSymbolTable
0
ENDTAB
0
TABLE
2
LTYPE
5
5
100
AcDbSymbolTable
0
LTYPE
5
14
100
AcDbSymbolTableRecord
100
AcDbLinetypeTableRecord
2
BYBLOCK
70
0
0
LTYPE
5
15
100
AcDbSymbolTableRecord
100
AcDbLinetypeTableRecord
2
BYLAYER
70
0
0
ENDTAB
0
TABLE
2
LAYER
5
2
100
AcDbSymbolTable
70
2
0
LAYER
5
50
100
AcDbSymbolTableRecord
100
AcDbLayerTableRecord
2
0
70
0
6
CONTINUOUS
0
ENDTAB
0
TABLE
2
STYLE
5
3
100
AcDbSymbolTable
70
1
0
STYLE
5
11
100
AcDbSymbolTableRecord
100
AcDbTextStyleTableRecord
2
STANDARD
70
0
0
ENDTAB
0
TABLE
2
VIEW
5
6
100
AcDbSymbolTable
70
0
0
ENDTAB
0
TABLE
2
UCS
5
7
100
AcDbSymbolTable
70
0
0
ENDTAB
0
TABLE
2
APPID
5
9
100
AcDbSymbolTable
70
2
0
APPID
5
12
100
AcDbSymbolTableRecord
100
AcDbRegAppTableRecord
2
ACAD
70
0
0
ENDTAB
0
TABLE
2
DIMSTYLE
5
A
100
AcDbSymbolTable
70
1
0
ENDTAB
0
TABLE
2
BLOCK_RECORD
5
1
100
AcDbSymbolTable
70
1
0
BLOCK_RECORD
5
1F
100
AcDbSymbolTableRecord
100
AcDbBlockTableRecord
2
*MODEL_SPACE
0
BLOCK_RECORD
5
1B
100
AcDbSymbolTableRecord
100
AcDbBlockTableRecord
2
*PAPER_SPACE
0
ENDTAB
0
ENDSEC
0
SECTION
2
BLOCKS
0
BLOCK
5
20
100
AcDbEntity
100
AcDbBlockBegin
2
*MODEL_SPACE
0
ENDBLK
5
21
100
AcDbEntity
100
AcDbBlockEnd
0
BLOCK
5
1C
100
AcDbEntity
100
AcDbBlockBegin
2
*PAPER_SPACE
0
ENDBLK
5
1D
100
AcDbEntity
100
AcDbBlockEnd
0
ENDSEC
0
SECTION
2
ENTITIES
0
LWPOLYLINE
5
100
100
AcDbEntity
8
0
100
AcDbPolyline
90
6
70
1
43
0.0
10
-21.000000417232513
20
-18.000000283122059
42
0.41421356237309503
10
-22.000000417232513
20
-19.000000283122059
42
0.41421357110131174
10
-21.000000417232513
20
-20.000000312922058
10
21.000000417267486
20
-20.000000312922058
42
0.41421357110131241
10
22.00000041726749
20
-19.000000283122059
42
0.41421356237309503
10
21.000000417267486
20
-18.000000283122059
0
LWPOLYLINE
5
101
100
AcDbEntity
8
0
100
AcDbPolyline
90
4
70
1
43
0.0
10
-19.999999716877944
20
15.000000536441798
10
20.000000312924385
20
15.000000536441798
10
20.000000312924389
20
1.0000005066394757
10
-19.999999716877941
20
1.0000005066394757
0
CIRCLE
5
102
100
AcDbEntity
8
0
100
AcDbCircle
10
8.0000002533197332
20
-3.0000005662441227
30
0
40
2.2500000000000004
210
0
220
-0
230
1
0
CIRCLE
5
103
100
AcDbEntity
8
0
100
AcDbCircle
10
-1.9999997466802666
20
-3.0000005662441227
30
0
40
2.2500000000000004
210
0
220
-0
230
1
0
CIRCLE
5
104
100
AcDbEntity
8
0
100
AcDbCircle
10
-11.999999746680267
20
-3.0000005662441227
30
0
40
2.2500000000000004
210
0
220
-0
230
1
0
SPLINE
5
105
100
AcDbEntity
8
0
100
AcDbSpline
70
0
71
3
72
20
73
16
74
0
42
0.000000001
43
0.0000000001
44
0.0000000001
40
-0.07893388363820876
40
-0.07893388363820876
40
-0.07893388363820876
40
-0.07893388363820876
40
-0.068765277323123902
40
-0.068765277323123902
40
-0.068765277323123902
40
-0.0585966710080391
40
-0.0585966710080391
40
-0.0585966710080391
40
-0.039064447338692951
40
-0.039064447338692951
40
-0.039064447338692951
40
-0.019532223669346597
40
-0.019532223669346597
40
-0.019532223669346597
40
0
40
0
40
0
40
0
10
-29.800000447034837
20
-18.999040915196183
30
0
10
-29.800000447034837
20
-19.046494411333235
30
0
10
-29.804825806239755
20
-19.093825160147865
30
0
10
-29.814402019938399
20
-19.140302363450449
30
0
10
-29.823978233637042
20
-19.186779566753017
30
0
10
-29.838255760502165
20
-19.232162780625845
30
0
10
-29.85701415207167
20
-19.275751277289004
30
0
10
-29.893045943298485
20
-19.359477624819313
30
0
10
-29.945086868432135
20
-19.435365692778344
30
0
10
-30.010207699845289
20
-19.499143969376536
30
0
10
-30.07532853125845
20
-19.562922245974736
30
0
10
-30.152284087667326
20
-19.613371221039856
30
0
10
-30.236742771558429
20
-19.647651273040363
30
0
10
-30.321201455449554
20
-19.681931325040885
30
0
10
-30.411548324719849
20
-19.699386982014399
30
0
10
-30.502698025009686
20
-19.699035717371935
30
0
0
SPLINE
5
106
100
AcDbEntity
8
0
100
AcDbSpline
70
0
71
3
72
41
73
37
74
0
42
0.000000001
43
0.0000000001
44
0.0000000001
40
-0.99671892378927118
40
-0.99671892378927118
40
-0.99671892378927118
40
-0.99671892378927118
40
-0.92384891147087056
40
-0.92384891147087056
40
-0.92384891147087056
40
-0.76596124473358451
40
-0.76596124473358451
40
-0.76596124473358451
40
-0.75598633935984305
40
-0.75598633935984305
40
-0.75598633935984305
40
-0.61657709893955204
40
-0.61657709893955204
40
-0.61657709893955204
40
-0.46493935486922322
40
-0.46493935486922322
40
-0.46493935486922322
40
-0.32168374434649816
40
-0.32168374434649816
40
-0.32168374434649816
40
-0.17806407465490978
40
-0.17806407465490978
40
-0.17806407465490978
40
-0.08903799253076905
40
-0.08903799253076905
40
-0.08903799253076905
40
-0.027611049370515173
40
-0.027611049370515173
40
-0.027611049370515173
40
-0.0020996101141903846
40
-0.0020996101141903846
40
-0.0020996101141903846
40
-1.191040662832735e-05
40
-1.191040662832735e-05
40
-1.191040662832735e-05
40
-6.5600723369426559e-06
40
-6.5600723369426559e-06
40
-6.5600723369426559e-06
40
-6.5600723369426559e-06
10
-30.502698025009686
20
-19.699035717371935
30
0
10
-34.208439686415865
20
-19.684754858349503
30
0
10
-37.564367975468677
20
-19.511953232572157
30
0
10
-40.58351126585503
20
-19.181676772336228
30
0
10
-47.129935463674606
20
-18.46553659504044
30
0
10
-52.057881519109728
20
-17.008177608828348
30
0
10
-55.731868792519094
20
-14.878823015391697
30
0
10
-55.962469705879265
20
-14.745172276406283
30
0
10
-56.188254288713892
20
-14.608963870122658
30
0
10
-56.409276246303094
20
-14.470200596753353
30
0
10
-59.499570480408664
20
-12.530034342340777
30
0
10
-61.642735662340982
20
-10.049828352407243
30
0
10
-62.976246683885279
20
-7.3176721190216458
30
0
10
-64.438028908521886
20
-4.322708183689425
30
0
10
-64.973547757080752
20
-0.97290179774486263
30
0
10
-64.574818543920856
20
2.2630743225301795
30
0
10
-64.199575677097499
20
5.30844174550107
30
0
10
-62.969601486730696
20
8.2800336864929243
30
0
10
-60.756073619953298
20
10.781998972979183
30
0
10
-58.526906520870284
20
13.301641387873548
30
0
10
-55.296917885174466
20
15.359923272496648
30
0
10
-50.972055618080987
20
16.843868986940571
30
0
10
-48.28789270537488
20
17.764858328378356
30
0
10
-45.198597504565697
20
18.462393269508734
30
0
10
-41.703447991256596
20
18.938100349196873
30
0
10
-39.291836187524204
20
19.266332604820416
30
0
10
-36.686979846068994
20
19.488911235349079
30
0
10
-33.888610059542842
20
19.606019972803658
30
0
10
-32.726409286513181
20
19.654656813386186
30
0
10
-31.530830976643095
20
19.685099365172597
30
0
10
-30.301859164825714
20
19.697352949003339
30
0
10
-30.201287649970979
20
19.698355707143442
30
0
10
-30.098448055922823
20
19.699244647035744
30
0
10
-29.999690338459921
20
19.699994532627112
30
0
10
-29.999437243246838
20
19.699996454425815
30
0
10
-29.999184148033763
20
19.699998376224521
30
0
10
-29.99893105282132
20
19.700000298023216
30
0
0
LINE
5
107
100
AcDbEntity
8
0
100
AcDbLine
10
-29.99893105282132
20
19.700000298023216
30
0
11
29.998931052781966
21
19.700000298023518
31
0
0
SPLINE
5
108
100
AcDbEntity
8
0
100
AcDbSpline
70
0
71
3
72
35
73
31
74
0
42
0.000000001
43
0.0000000001
44
0.0000000001
40
6.5600720613270168e-06
40
6.5600720613270168e-06
40
6.5600720613270168e-06
40
6.5600720613270168e-06
40
1.191040662832735e-05
40
1.191040662832735e-05
40
1.191040662832735e-05
40
0.020618564452011521
40
0.020618564452011521
40
0.020618564452011521
40
0.17806407465490978
40
0.17806407465490978
40
0.17806407465490978
40
0.32168374434649816
40
0.32168374434649816
40
0.32168374434649816
40
0.46493935486922322
40
0.46493935486922322
40
0.46493935486922322
40
0.61657709893955204
40
0.61657709893955204
40
0.61657709893955204
40
0.75598633935984305
40
0.75598633935984305
40
0.75598633935984305
40
0.76596124473358451
40
0.76596124473358451
40
0.76596124473358451
40
0.92384891147087056
40
0.92384891147087056
40
0.92384891147087056
40
0.99671892378927118
40
0.99671892378927118
40
0.99671892378927118
40
0.99671892378927118
10
29.99893105278197
20
19.700000298023518
30
0
10
29.999184148007668
20
19.69999837622472
30
0
10
29.999437243233768
20
19.699996454425918
30
0
10
29.999690338459871
20
19.699994532627112
30
0
10
30.974479054815216
20
19.692592781839423
30
0
10
31.971898567736549
20
19.673142368426809
30
0
10
32.925436856267531
20
19.641912354767022
30
0
10
40.210963269489113
20
19.403298874699875
30
0
10
46.225026554514983
20
18.472668472375673
30
0
10
50.972055618080987
20
16.843868986940571
30
0
10
55.296917885174466
20
15.359923272496648
30
0
10
58.526906520870284
20
13.301641387873548
30
0
10
60.756073619953298
20
10.781998972979183
30
0
10
62.969601486730696
20
8.2800336864929243
30
0
10
64.199575677097499
20
5.30844174550107
30
0
10
64.574818543920856
20
2.263074322530179
30
0
10
64.973547757080752
20
-0.97290179774486263
30
0
10
64.438028908521886
20
-4.322708183689425
30
0
10
62.976246683885279
20
-7.3176721190216458
30
0
10
61.642735662340982
20
-10.049828352407243
30
0
10
59.499570480408664
20
-12.530034342340777
30
0
10
56.409276246303094
20
-14.470200596753353
30
0
10
56.188254288713892
20
-14.608963870122658
30
0
10
55.962469705879265
20
-14.745172276406283
30
0
10
55.731868792519094
20
-14.878823015391697
30
0
10
52.057881519109728
20
-17.008177608828348
30
0
10
47.129935463674606
20
-18.46553659504044
30
0
10
40.58351126585503
20
-19.181676772336228
30
0
10
37.564367975468677
20
-19.511953232572157
30
0
10
34.208439686415865
20
-19.684754858349503
30
0
10
30.502698025009686
20
-19.699035717371935
30
0
0
SPLINE
5
109
100
AcDbEntity
8
0
100
AcDbSpline
70
0
71
3
72
20
73
16
74
0
42
0.000000001
43
0.0000000001
44
0.0000000001
40
-0.078933883638208482
40
-0.078933883638208482
40
-0.078933883638208482
40
-0.078933883638208482
40
-0.068765277323123458
40
-0.068765277323123458
40
-0.068765277323123458
40
-0.058596671008038705
40
-0.058596671008038705
40
-0.058596671008038705
40
-0.039064447338692451
40
-0.039064447338692451
40
-0.039064447338692451
40
-0.019532223669346344
40
-0.019532223669346344
40
-0.019532223669346344
40
0
40
0
40
0
40
0
10
30.502698025009686
20
-19.699035717371931
30
0
10
30.455244881236819
20
-19.699218588094801
30
0
10
30.407895888471039
20
-19.694575662414032
30
0
10
30.361382126593
20
-19.685178628223156
30
0
10
30.314868364714982
20
-19.67578159403228
30
0
10
30.269430466773532
20
-19.661679065696084
30
0
10
30.225770004883792
20
-19.643088789657114
30
0
10
30.141905423965532
20
-19.607379920770192
30
0
10
30.065817370291374
20
-19.555631830608355
30
0
10
30.001788612247108
20
-19.490757263996429
30
0
10
29.937759854202831
20
-19.425882697384498
30
0
10
29.887014691438999
20
-19.349122126754839
30
0
10
29.852409417004537
20
-19.264796174456084
30
0
10
29.817804142570068
20
-19.180470222157318
30
0
10
29.800000447034837
20
-19.090191292319794
30
0
10
29.800000447034837
20
-18.999040915196183
30
0
0
LINE
5
110
100
AcDbEntity
8
0
100
AcDbLine
10
29.800000447034837
20
-18.999040915196183
30
0
11
29.800000447034826
21
-17.999031099820154
31
0
0
SPLINE
5
111
100
AcDbEntity
8
0
100
AcDbSpline
70
0
71
3
72
17
73
13
74
0
42
0.000000001
43
0.0000000001
44
0.0000000001
40
-0.078594845961835053
40
-0.078594845961835053
40
-0.078594845961835053
40
-0.078594845961835053
40
-0.058596671008039017
40
-0.058596671008039017
40
-0.058596671008039017
40
-0.039064447338692652
40
-0.039064447338692652
40
-0.039064447338692652
40
-0.019532223669346475
40
-0.019532223669346475
40
-0.019532223669346475
40
0
40
0
40
0
40
0
10
29.800000447034826
20
-17.999031099820154
30
0
10
29.800000447034826
20
-17.905706283369099
30
0
10
29.818663707104026
20
-17.813316888769737
30
0
10
29.854889881621766
20
-17.727309995758588
30
0
10
29.890271997489847
20
-17.643307036724554
30
0
10
29.941723486892879
20
-17.567018105774327
30
0
10
30.006348299773386
20
-17.502737278073234
30
0
10
30.070973112653888
20
-17.438456450372144
30
0
10
30.147535552143093
20
-17.387412845417348
30
0
10
30.231726148100158
20
-17.35247955467382
30
0
10
30.315916744057226
20
-17.317546263930293
30
0
10
30.406125680512609
20
-17.299391249997278
30
0
10
30.497275366931255
20
-17.299036404169946
30
0
0
SPLINE
5
112
100
AcDbEntity
8
0
100
AcDbSpline
70
0
71
3
72
11
73
7
74
0
42
0.000000001
43
0.0000000001
44
0.0000000001
40
-0.99669322117699699
40
-0.99669322117699699
40
-0.99669322117699699
40
-0.99669322117699699
40
-0.92384891147087056
40
-0.92384891147087056
40
-0.92384891147087056
40
-0.81103798071252642
40
-0.81103798071252642
40
-0.81103798071252642
40
-0.81103798071252642
10
30.497275366931248
20
-17.299036404169946
30
0
10
34.132314537179965
20
-17.284885192767739
30
0
10
37.405867255088403
20
-17.114974501442155
30
0
10
40.322522419522556
20
-16.795909637410851
30
0
10
44.839866248197289
20
-16.301738879052316
30
0
10
48.484015068438573
20
-15.443473026121479
30
0
10
51.389799569334194
20
-14.301611571844523
30
0
0
SPLINE
5
113
100
AcDbEntity
8
0
100
AcDbSpline
70
0
71
3
72
17
73
13
74
0
42
0.000000001
43
0.0000000001
44
0.0000000001
40
-0.47968133007847841
40
-0.47968133007847841
40
-0.47968133007847841
40
-0.47968133007847841
40
-0.39609845439401081
40
-0.39609845439401081
40
-0.39609845439401081
40
-0.31251557870954194
40
-0.31251557870954194
40
-0.31251557870954194
40
-0.15625778935477105
40
-0.15625778935477105
40
-0.15625778935477105
40
0
40
0
40
0
40
0
10
51.389799569333967
20
-14.301611571844612
30
0
10
51.636141292229063
20
-14.204808757366326
30
0
10
51.87169648103999
20
-14.082532855836948
30
0
10
52.092626563889098
20
-13.936776456930671
30
0
10
52.313556646738213
20
-13.791020058024387
30
0
10
52.518654988124155
20
-13.62257922737067
30
0
10
52.704579336367502
20
-13.434198851375371
30
0
10
53.05216402289355
20
-13.082022632624899
30
0
10
53.327637763611534
20
-12.665322392063887
30
0
10
53.515494967684333
20
-12.207552936727755
30
0
10
53.703352171757132
20
-11.749783481391621
30
0
10
53.800000804662709
20
-11.259697862273653
30
0
10
53.800000804662709
20
-10.764881529316877
30
0
0
LINE
5
114
100
AcDbEntity
8
0
100
AcDbLine
10
53.800000804662709
20
-10.764881529316879
30
0
11
53.800000804662702
21
-10.392304931445157
31
0
0
ARC
5
115
100
AcDbEntity
8
0
100
AcDbCircle
10
46.00000080466269
20
-10.392304931445167
30
0
40
7.8000000000000114
210
0
220
-0
230
1
100
AcDbArc
50
0
51
60.00000032861756
0
ARC
5
116
100
AcDbEntity
8
0
100
AcDbCircle
10
52.000000774860382
20
-2.7755575615628914e-16
30
0
40
4.2000000596046476
210
0
220
0
230
1
100
AcDbArc
50
119.99999967138237
51
240.00000032861763
0
ARC
5
117
100
AcDbEntity
8
0
100
AcDbCircle
10
46.000000804662697
20
10.392304931445167
30
0
40
7.8000000000000078
210
-0
220
0
230
1
100
AcDbArc
50
299.9999996713824
51
360
0
LINE
5
118
100
AcDbEntity
8
0
100
AcDbLine
10
53.800000804662709
20
10.392304931445155
30
0
11
53.800000804662709
21
10.599176531107208
31
0
0
SPLINE
5
119
100
AcDbEntity
8
0
100
AcDbSpline
70
0
71
3
72
17
73
13
74
0
42
0.000000001
43
0.0000000001
44
0.0000000001
40
-0.48091510925081765
40
-0.48091510925081765
40
-0.48091510925081765
40
-0.48091510925081765
40
-0.39671534398017982
40
-0.39671534398017982
40
-0.39671534398017982
40
-0.31251557870954233
40
-0.31251557870954233
40
-0.31251557870954233
40
-0.15625778935477058
40
-0.15625778935477058
40
-0.15625778935477058
40
0
40
0
40
0
40
0
10
53.800000804662709
20
10.599176531107208
30
0
10
53.800000804662709
20
10.865809121130894
30
0
10
53.771937802795833
20
11.131702793536746
30
0
10
53.716275852180544
20
11.39246069910519
30
0
10
53.660613901565249
20
11.653218604673636
30
0
10
53.577661513595075
20
11.907395469138711
30
0
10
53.46879039876994
20
12.150788193802921
30
0
10
53.266747558478336
20
12.602476021896283
30
0
10
52.978411680991385
20
13.010382008690527
30
0
10
52.620012328256848
20
13.351546349324568
30
0
10
52.261612975522311
20
13.692710689958606
30
0
10
51.84000313384999
20
13.960609950341656
30
0
10
51.378913957000016
20
14.140164884422026
30
0
0
SPLINE
5
120
100
AcDbEntity
8
0
100
AcDbSpline
70
0
71
3
72
17
73
13
74
0
42
0.000000001
43
0.0000000001
44
0.0000000001
40
-0.1925841652413019
40
-0.1925841652413019
40
-0.1925841652413019
40
-0.1925841652413019
40
-0.17806407465490978
40
-0.17806407465490978
40
-0.17806407465490978
40
-0.089064744202219395
40
-0.089064744202219395
40
-0.089064744202219395
40
-0.030581935985857032
40
-0.030581935985857032
40
-0.030581935985857032
40
-6.5413749529002793e-05
40
-6.5413749529002793e-05
40
-6.5413749529002793e-05
40
-6.5413749529002793e-05
10
51.378913956991482
20
14.140164884425353
30
0
10
50.995626632832952
20
14.289422628216323
30
0
10
50.600451042159882
20
14.434026516082945
30
0
10
50.193143800278655
20
14.573781680230129
30
0
10
47.696106583319192
20
15.430564497363459
30
0
10
44.755438431763253
20
16.096517077090041
30
0
10
41.383891371759198
20
16.55585500397461
30
0
10
39.168396725903719
20
16.857692913853846
30
0
10
36.766850611511799
20
17.070376187233752
30
0
10
34.182783138871535
20
17.189799054032502
30
0
10
32.834408207947206
20
17.252114299851538
30
0
10
31.432630755478705
20
17.289044764597978
30
0
10
29.989060076852514
20
17.300006063419332
30
0
0
LINE
5
121
100
AcDbEntity
8
0
100
AcDbLine
10
29.989060076852514
20
17.300006063419332
30
0
11
-29.989060076852514
21
17.300006063419332
31
0
0
SPLINE
5
122
100
AcDbEntity
8
0
100
AcDbSpline
70
0
71
3
72
14
73
10
74
0
42
0.000000001
43
0.0000000001
44
0.0000000001
40
6.5413749529002793e-05
40
6.5413749529002793e-05
40
6.5413749529002793e-05
40
6.5413749529002793e-05
40
0.042998725811692312
40
0.042998725811692312
40
0.042998725811692312
40
0.17806407465490978
40
0.17806407465490978
40
0.17806407465490978
40
0.20769732206661778
40
0.20769732206661778
40
0.20769732206661778
40
0.20769732206661778
10
-29.989060076852514
20
17.300006063419332
30
0
10
-32.020001543553036
20
17.284584749704116
30
0
10
-33.963979625879453
20
17.217766391661954
30
0
10
-35.803976228363851
20
17.101161707233342
30
0
10
-41.592483358329922
20
16.734331112931638
30
0
10
-46.403641103262217
20
15.874034946073543
30
0
10
-50.193143800278655
20
14.573781680230129
30
0
10
-51.024394555873691
20
14.288563118293702
30
0
10
-51.805114377919715
20
13.983148932821628
30
0
10
-52.537380257634908
20
13.659197456988606
30
0
0
SPLINE
5
123
100
AcDbEntity
8
0
100
AcDbSpline
70
0
71
3
72
14
73
10
74
0
42
0.000000001
43
0.0000000001
44
0.0000000001
40
-0.46313409836607966
40
-0.46313409836607966
40
-0.46313409836607966
40
-0.46313409836607966
40
-0.31251557870954222
40
-0.31251557870954222
40
-0.31251557870954222
40
-0.15625778935477111
40
-0.15625778935477111
40
-0.15625778935477111
40
0
40
0
40
0
40
0
10
-52.537380257634908
20
13.659197456988606
30
0
10
-52.973561547729837
20
13.466232611061386
30
0
10
-53.36953883165031
20
13.192860340662872
30
0
10
-53.704579351268656
20
12.853393995046014
30
0
10
-54.052164037794704
20
12.501217776295544
30
0
10
-54.327637778512681
20
12.08451753573453
30
0
10
-54.51549498258548
20
11.626748080398396
30
0
10
-54.703352186658279
20
11.168978625062262
30
0
10
-54.800000819563863
20
10.678893005944294
30
0
10
-54.800000819563863
20
10.184076672987519
30
0
0
LINE
5
124
100
AcDbEntity
8
0
100
AcDbLine
10
-54.800000819563863
20
10.184076672987519
30
0
11
-54.800000819563863
21
9.7979590441331901
31
0
0
ARC
5
125
100
AcDbEntity
8
0
100
AcDbCircle
10
-47.000000819563894
20
9.7979590441331794
30
0
40
7.799999999999967
210
0
220
0
230
1
100
AcDbArc
50
180
51
242.96430859082594
0
ARC
5
126
100
AcDbEntity
8
0
100
AcDbCircle
10
-52.000000774860382
20
0
30
0
40
3.200000044703486
210
0
220
0
230
1
100
AcDbArc
50
-62.96430859082588
51
62.964308590825894
0
ARC
5
127
100
AcDbEntity
8
0
100
AcDbCircle
10
-47.000000819563894
20
-9.7979590441331812
30
0
40
7.7999999999999714
210
0
220
0
230
1
100
AcDbArc
50
117.03569140917401
51
180
0
LINE
5
128
100
AcDbEntity
8
0
100
AcDbLine
10
-54.80000081956387
20
-9.7979590441331883
30
0
11
-54.80000081956387
21
-10.343824557323334
31
0
0
SPLINE
5
129
100
AcDbEntity
8
0
100
AcDbSpline
70
0
71
3
72
14
73
10
74
0
42
0.000000001
43
0.0000000001
44
0.0000000001
40
-0.46019390233295532
40
-0.46019390233295532
40
-0.46019390233295532
40
-0.46019390233295532
40
-0.31251557870954161
40
-0.31251557870954161
40
-0.31251557870954161
40
-0.15625778935477064
40
-0.15625778935477064
40
-0.15625778935477064
40
0
40
0
40
0
40
0
10
-54.80000081956387
20
-10.343824557323334
30
0
10
-54.80000081956387
20
-10.811472582130811
30
0
10
-54.713673974127147
20
-11.275128147020208
30
0
10
-54.545368045209351
20
-11.711439720780808
30
0
10
-54.367284276767755
20
-12.173099091722655
30
0
10
-54.100730745292729
20
-12.59556102748369
30
0
10
-53.760710949791033
20
-12.95504641248254
30
0
10
-53.420691154289337
20
-13.31453179748139
30
0
10
-53.013706643901159
20
-13.604166879287531
30
0
10
-52.5626653563438
20
-13.807648967637803
30
0
0
SPLINE
5
130
100
AcDbEntity
8
0
100
AcDbSpline
70
0
71
3
72
11
73
7
74
0
42
0.000000001
43
0.0000000001
44
0.0000000001
40
0.79530772633685864
40
0.79530772633685864
40
0.79530772633685864
40
0.79530772633685864
40
0.92384891147087056
40
0.92384891147087056
40
0.92384891147087056
40
0.99669322117699699
40
0.99669322117699699
40
0.99669322117699699
40
0.99669322117699699
10
-52.562665356343778
20
-13.807648967637805
30
0
10
-49.483156997013751
20
-15.196933738976854
30
0
10
-45.469760594868575
20
-16.232832154484569
30
0
10
-40.322522419522556
20
-16.795909637410851
30
0
10
-37.405867255088403
20
-17.114974501442155
30
0
10
-34.132314537179965
20
-17.284885192767739
30
0
10
-30.497275366931248
20
-17.299036404169946
30
0
0
SPLINE
5
131
100
AcDbEntity
8
0
100
AcDbSpline
70
0
71
3
72
17
73
13
74
0
42
0.000000001
43
0.0000000001
44
0.0000000001
40
-0.078594845961834012
40
-0.078594845961834012
40
-0.078594845961834012
40
-0.078594845961834012
40
-0.058596671008038434
40
-0.058596671008038434
40
-0.058596671008038434
40
-0.039064447338692271
40
-0.039064447338692271
40
-0.039064447338692271
40
-0.019532223669346115
40
-0.019532223669346115
40
-0.019532223669346115
40
0
40
0
40
0
40
0
10
-30.497275366931248
20
-17.299036404169954
30
0
10
-30.403951257662307
20
-17.299399715027782
30
0
10
-30.311635218697724
20
-17.318422502960608
30
0
10
-30.225770004883792
20
-17.354983225359227
30
0
10
-30.141905423965536
20
-17.390692094246148
30
0
10
-30.065817370291377
20
-17.442440184407982
30
0
10
-30.001788612247108
20
-17.507314751019909
30
0
10
-29.937759854202831
20
-17.572189317631842
30
0
10
-29.887014691438999
20
-17.648949888261502
30
0
10
-29.852409417004537
20
-17.733275840560257
30
0
10
-29.817804142570075
20
-17.817601792859019
30
0
10
-29.800000447034837
20
-17.90788072269654
30
0
10
-29.800000447034837
20
-17.999031099820154
30
0
0
LINE
5
132
100
AcDbEntity
8
0
100
AcDbLine
10
-29.800000447034837
20
-17.999031099820154
30
0
11
-29.800000447034837
21
-18.999040915196183
31
0
0
LINE
5
133
100
AcDbEntity
8
0
100
AcDbLine
10
30.005764820569816
20
21.500000298023213
30
0
11
-30.005764820569773
21
21.500000298023213
31
0
0
SPLINE
5
134
100
AcDbEntity
8
0
100
AcDbSpline
70
0
71
3
72
38
73
34
74
0
42
0.000000001
43
0.0000000001
44
0.0000000001
40
-4.1592936252326553e-05
40
-4.1592936252326553e-05
40
-4.1592936252326553e-05
40
-4.1592936252326553e-05
40
7.8789585251158158e-05
40
7.8789585251158158e-05
40
7.8789585251158158e-05
40
0.17806407465490978
40
0.17806407465490978
40
0.17806407465490978
40
0.31261442262259787
40
0.31261442262259787
40
0.31261442262259787
40
0.32168374434649816
40
0.32168374434649816
40
0.32168374434649816
40
0.45219957213060169
40
0.45219957213060169
40
0.45219957213060169
40
0.46493935486922322
40
0.46493935486922322
40
0.46493935486922322
40
0.61657709893955204
40
0.61657709893955204
40
0.61657709893955204
40
0.73993349972402711
40
0.73993349972402711
40
0.73993349972402711
40
0.76596124473358451
40
0.76596124473358451
40
0.76596124473358451
40
0.92384891147087056
40
0.92384891147087056
40
0.92384891147087056
40
1
40
1
40
1
40
1
10
-30.005764820569773
20
21.500000298023213
30
0
10
-30.01145946286163
20
21.499957057552372
30
0
10
-30.017154105153171
20
21.499913817081531
30
0
10
-30.022848747444737
20
21.499870576610697
30
0
10
-38.762125796185387
20
21.433511631654383
30
0
10
-45.909251744191018
20
20.484027558886808
30
0
10
-51.55623948143274
20
18.546434466973402
30
0
10
-55.815880673316308
20
17.084867392373241
30
0
10
-59.172271409352248
20
15.057544591567037
30
0
10
-61.621758522751982
20
12.498808222135764
30
0
10
-61.786865391857255
20
12.326337443044284
30
0
10
-61.94769718795812
20
12.15160435509101
30
0
10
-62.104200343966134
20
11.974707795786486
30
0
10
-64.339972811830165
20
9.4475992885774289
30
0
10
-65.700479734651211
20
6.4364758915389233
30
0
10
-66.228808762150905
20
3.3795871604797725
30
0
10
-66.280379496054437
20
3.0812011413200535
30
0
10
-66.324452462198195
20
2.7823096097455604
30
0
10
-66.361307876411615
20
2.4832012515886155
30
0
10
-66.802935328228642
20
-1.1009251203226662
30
0
10
-66.21368691967038
20
-4.7884099464864684
30
0
10
-64.593854433835617
20
-8.1071942322652308
30
0
10
-63.292910343424978
20
-10.772625899853075
30
0
10
-61.259133230415593
20
-13.264925170141932
30
0
10
-58.485508872519098
20
-15.245366369383927
30
0
10
-57.9002843760152
20
-15.663232148642134
30
0
10
-57.283216470609553
20
-16.060166198356455
30
0
10
-56.634467129341616
20
-16.436165701625271
30
0
10
-52.65817578347712
20
-18.740728459215305
30
0
10
-47.494310760441053
20
-20.236414418704072
30
0
10
-40.779252900604384
20
-20.971002123530265
30
0
10
-37.544596078217708
20
-21.324854492438252
30
0
10
-33.958956880696235
20
-21.500000298023224
30
0
10
-30.000000447034836
20
-21.500000298023224
30
0
0
LINE
5
135
100
AcDbEntity
8
0
100
AcDbLine
10
-30.000000447034836
20
-21.500000298023217
30
0
11
30.000000447034836
21
-21.500000298023217
31
0
0
SPLINE
5
136
100
AcDbEntity
8
0
100
AcDbSpline
70
0
71
3
72
38
73
34
74
0
42
0.000000001
43
0.0000000001
44
0.0000000001
40
-4.1592936251262733e-05
40
-4.1592936251262733e-05
40
-4.1592936251262733e-05
40
-4.1592936251262733e-05
40
7.8789585251158158e-05
40
7.8789585251158158e-05
40
7.8789585251158158e-05
40
0.17806407465490978
40
0.17806407465490978
40
0.17806407465490978
40
0.31261442262259787
40
0.31261442262259787
40
0.31261442262259787
40
0.32168374434649816
40
0.32168374434649816
40
0.32168374434649816
40
0.45219957213060169
40
0.45219957213060169
40
0.45219957213060169
40
0.46493935486922322
40
0.46493935486922322
40
0.46493935486922322
40
0.61657709893955204
40
0.61657709893955204
40
0.61657709893955204
40
0.73993349972402711
40
0.73993349972402711
40
0.73993349972402711
40
0.76596124473358451
40
0.76596124473358451
40
0.76596124473358451
40
0.92384891147087056
40
0.92384891147087056
40
0.92384891147087056
40
1
40
1
40
1
40
1
10
30.005764820569816
20
21.500000298023213
30
0
10
30.011459462861726
20
21.499957057552372
30
0
10
30.017154105153221
20
21.499913817081531
30
0
10
30.022848747444737
20
21.499870576610697
30
0
10
38.762125796185387
20
21.433511631654383
30
0
10
45.909251744191018
20
20.484027558886808
30
0
10
51.55623948143274
20
18.546434466973402
30
0
10
55.815880673316308
20
17.084867392373241
30
0
10
59.172271409352248
20
15.057544591567037
30
0
10
61.621758522751982
20
12.498808222135764
30
0
10
61.786865391857255
20
12.326337443044284
30
0
10
61.94769718795812
20
12.15160435509101
30
0
10
62.104200343966134
20
11.974707795786486
30
0
10
64.339972811830165
20
9.4475992885774289
30
0
10
65.700479734651211
20
6.4364758915389233
30
0
10
66.228808762150905
20
3.3795871604797725
30
0
10
66.280379496054437
20
3.0812011413200535
30
0
10
66.324452462198195
20
2.7823096097455604
30
0
10
66.361307876411615
20
2.4832012515886155
30
0
10
66.802935328228642
20
-1.1009251203226662
30
0
10
66.21368691967038
20
-4.7884099464864684
30
0
10
64.593854433835617
20
-8.1071942322652308
30
0
10
63.292910343424978
20
-10.772625899853075
30
0
10
61.259133230415593
20
-13.264925170141932
30
0
10
58.485508872519098
20
-15.245366369383927
30
0
10
57.9002843760152
20
-15.663232148642134
30
0
10
57.283216470609553
20
-16.060166198356455
30
0
10
56.634467129341616
20
-16.436165701625271
30
0
10
52.65817578347712
20
-18.740728459215305
30
0
10
47.494310760441053
20
-20.236414418704072
30
0
10
40.779252900604384
20
-20.971002123530265
30
0
10
37.544596078217708
20
-21.324854492438252
30
0
10
33.958956880696235
20
-21.500000298023224
30
0
10
30.000000447034836
20
-21.500000298023224
30
0
0
LWPOLYLINE
5
137
100
AcDbEntity
8
0
100
AcDbPolyline
90
8
70
1
43
0.0
10
-11.49999970197678
20
6.0000005215406373
42
0.41421356237309503
10
-9.9999997019767797
20
4.5000005215406365
10
11.000000298023224
20
4.5000005215406365
42
0.41421356237309503
10
12.500000298023224
20
6.0000005215406373
10
12.500000298023224
20
11.500000521540636
42
0.41421356237309503
10
11.000000298023224
20
13.000000521540638
10
-9.9999997019767797
20
13.000000521540635
42
0.41421356237309503
10
-11.49999970197678
20
11.500000521540636
0
LWPOLYLINE
5
138
100
AcDbEntity
8
0
100
AcDbPolyline
90
4
70
1
43
0.0
10
20.000000312924389
20
1.0000005066394757
10
20.000000312924385
20
15.000000536441798
10
-19.999999716877944
20
15.000000536441798
10
-19.999999716877941
20
1.0000005066394757
0
CIRCLE
5
139
100
AcDbEntity
8
0
100
AcDbCircle
10
52.000000894069665
20
-2.9802321821394834e-07
30
0
40
1.5000000000000002
210
0
220
-0
230
1
0
CIRCLE
5
140
100
AcDbEntity
8
0
100
AcDbCircle
10
-51.999999105930343
20
-2.9802321821394834e-07
30
0
40
1.5000000000000002
210
0
220
-0
230
1
0
ENDSEC
0
SECTION
2
OBJECTS
0
DICTIONARY
5
C
100
AcDbDictionary
3
ACAD_GROUP
350
D
3
ACAD_MLINESTYLE
350
17
0
DICTIONARY
5
D
100
AcDbDictionary
0
DICTIONARY
5
1A
330
C
100
AcDbDictionary
0
DICTIONARY
5
17
100
AcDbDictionary
0
ENDSEC
0
EOF
