0
SECTION
2
HEADER
9
$INSUNITS
70
4
9
$ACADVER
1
AC1014
9
$HANDSEED
5
FFFF
0
ENDSEC
0
SECTION
2
TABLES
0
TABLE
2
VPORT
5
8
100
AcDbSymbolTable
0
ENDTAB
0
TABLE
2
LTYPE
5
5
100
AcDbSymbolTable
0
LTYPE
5
14
100
AcDbSymbolTableRecord
100
AcDbLinetypeTableRecord
2
BYBLOCK
70
0
0
LTYPE
5
15
100
AcDbSymbolTableRecord
100
AcDbLinetypeTableRecord
2
BYLAYER
70
0
0
ENDTAB
0
TABLE
2
LAYER
5
2
100
AcDbSymbolTable
70
2
0
LAYER
5
50
100
AcDbSymbolTableRecord
100
AcDbLayerTableRecord
2
0
70
0
6
CONTINUOUS
0
ENDTAB
0
TABLE
2
STYLE
5
3
100
AcDbSymbolTable
70
1
0
STYLE
5
11
100
AcDbSymbolTableRecord
100
AcDbTextStyleTableRecord
2
STANDARD
70
0
0
ENDTAB
0
TABLE
2
VIEW
5
6
100
AcDbSymbolTable
70
0
0
ENDTAB
0
TABLE
2
UCS
5
7
100
AcDbSymbolTable
70
0
0
ENDTAB
0
TABLE
2
APPID
5
9
100
AcDbSymbolTable
70
2
0
APPID
5
12
100
AcDbSymbolTableRecord
100
AcDbRegAppTableRecord
2
ACAD
70
0
0
ENDTAB
0
TABLE
2
DIMSTYLE
5
A
100
AcDbSymbolTable
70
1
0
ENDTAB
0
TABLE
2
BLOCK_RECORD
5
1
100
AcDbSymbolTable
70
1
0
BLOCK_RECORD
5
1F
100
AcDbSymbolTableRecord
100
AcDbBlockTableRecord
2
*MODEL_SPACE
0
BLOCK_RECORD
5
1B
100
AcDbSymbolTableRecord
100
AcDbBlockTableRecord
2
*PAPER_SPACE
0
ENDTAB
0
ENDSEC
0
SECTION
2
BLOCKS
0
BLOCK
5
20
100
AcDbEntity
100
AcDbBlockBegin
2
*MODEL_SPACE
0
ENDBLK
5
21
100
AcDbEntity
100
AcDbBlockEnd
0
BLOCK
5
1C
100
AcDbEntity
100
AcDbBlockBegin
2
*PAPER_SPACE
0
ENDBLK
5
1D
100
AcDbEntity
100
AcDbBlockEnd
0
ENDSEC
0
SECTION
2
ENTITIES
0
CIRCLE
5
100
100
AcDbEntity
8
0
100
AcDbCircle
10
-8.0000000000000036
20
-0.10000000000004411
30
0
40
6.4999999999999991
210
0
220
-0
230
1
0
CIRCLE
5
101
100
AcDbEntity
8
0
100
AcDbCircle
10
-58.999999105930343
20
-2.9802321992455917e-07
30
0
40
1.5000000000000036
210
0
220
-0
230
1
0
CIRCLE
5
102
100
AcDbEntity
8
0
100
AcDbCircle
10
-32.000000000000007
20
-0.1000000000000484
30
0
40
6.4999999999999991
210
0
220
-0
230
1
0
CIRCLE
5
103
100
AcDbEntity
8
0
100
AcDbCircle
10
-48.000000000000007
20
-0.10000000000004174
30
0
40
6.5000000000000036
210
0
220
-0
230
1
0
CIRCLE
5
104
100
AcDbEntity
8
0
100
AcDbCircle
10
7.9999999999999938
20
-0.10000000000005077
30
0
40
6.5
210
0
220
-0
230
1
0
CIRCLE
5
105
100
AcDbEntity
8
0
100
AcDbCircle
10
47.999999999999986
20
-0.10000000000003757
30
0
40
6.5000000000000036
210
0
220
-0
230
1
0
CIRCLE
5
106
100
AcDbEntity
8
0
100
AcDbCircle
10
59.000000894069665
20
-2.9802321992455917e-07
30
0
40
1.5000000000000036
210
0
220
-0
230
1
0
CIRCLE
5
107
100
AcDbEntity
8
0
100
AcDbCircle
10
31.999999999999996
20
-0.10000000000003091
30
0
40
6.4999999999999991
210
0
220
-0
230
1
0
LINE
5
108
100
AcDbEntity
8
0
100
AcDbLine
10
30.005764820569816
20
21.500000298023213
30
0
11
-30.005764820569773
21
21.500000298023213
31
0
0
SPLINE
5
109
100
AcDbEntity
8
0
100
AcDbSpline
70
0
71
3
72
38
73
34
74
0
42
0.000000001
43
0.0000000001
44
0.0000000001
40
-4.1592936252326553e-05
40
-4.1592936252326553e-05
40
-4.1592936252326553e-05
40
-4.1592936252326553e-05
40
7.8789585251158158e-05
40
7.8789585251158158e-05
40
7.8789585251158158e-05
40
0.17806407465490978
40
0.17806407465490978
40
0.17806407465490978
40
0.31261442262259787
40
0.31261442262259787
40
0.31261442262259787
40
0.32168374434649816
40
0.32168374434649816
40
0.32168374434649816
40
0.45219957213060169
40
0.45219957213060169
40
0.45219957213060169
40
0.46493935486922322
40
0.46493935486922322
40
0.46493935486922322
40
0.61657709893955204
40
0.61657709893955204
40
0.61657709893955204
40
0.73993349972402711
40
0.73993349972402711
40
0.73993349972402711
40
0.76596124473358451
40
0.76596124473358451
40
0.76596124473358451
40
0.92384891147087056
40
0.92384891147087056
40
0.92384891147087056
40
1
40
1
40
1
40
1
10
-30.005764820569773
20
21.500000298023213
30
0
10
-30.01145946286163
20
21.499957057552372
30
0
10
-30.017154105153171
20
21.499913817081531
30
0
10
-30.022848747444737
20
21.499870576610697
30
0
10
-38.762125796185387
20
21.433511631654383
30
0
10
-45.909251744191018
20
20.484027558886808
30
0
10
-51.55623948143274
20
18.546434466973402
30
0
10
-55.815880673316308
20
17.084867392373241
30
0
10
-59.172271409352248
20
15.057544591567037
30
0
10
-61.621758522751982
20
12.498808222135764
30
0
10
-61.786865391857255
20
12.326337443044284
30
0
10
-61.94769718795812
20
12.15160435509101
30
0
10
-62.104200343966134
20
11.974707795786486
30
0
10
-64.339972811830165
20
9.4475992885774289
30
0
10
-65.700479734651211
20
6.4364758915389233
30
0
10
-66.228808762150905
20
3.3795871604797725
30
0
10
-66.280379496054437
20
3.0812011413200535
30
0
10
-66.324452462198195
20
2.7823096097455604
30
0
10
-66.361307876411615
20
2.4832012515886155
30
0
10
-66.802935328228642
20
-1.1009251203226662
30
0
10
-66.21368691967038
20
-4.7884099464864684
30
0
10
-64.593854433835617
20
-8.1071942322652308
30
0
10
-63.292910343424978
20
-10.772625899853075
30
0
10
-61.259133230415593
20
-13.264925170141932
30
0
10
-58.485508872519098
20
-15.245366369383927
30
0
10
-57.9002843760152
20
-15.663232148642134
30
0
10
-57.283216470609553
20
-16.060166198356455
30
0
10
-56.634467129341616
20
-16.436165701625271
30
0
10
-52.65817578347712
20
-18.740728459215305
30
0
10
-47.494310760441053
20
-20.236414418704072
30
0
10
-40.779252900604384
20
-20.971002123530265
30
0
10
-37.544596078217708
20
-21.324854492438252
30
0
10
-33.958956880696235
20
-21.500000298023224
30
0
10
-30.000000447034836
20
-21.500000298023224
30
0
0
LINE
5
110
100
AcDbEntity
8
0
100
AcDbLine
10
-30.000000447034836
20
-21.500000298023217
30
0
11
30.000000447034836
21
-21.500000298023217
31
0
0
SPLINE
5
111
100
AcDbEntity
8
0
100
AcDbSpline
70
0
71
3
72
38
73
34
74
0
42
0.000000001
43
0.0000000001
44
0.0000000001
40
-1
40
-1
40
-1
40
-1
40
-0.92384891147087056
40
-0.92384891147087056
40
-0.92384891147087056
40
-0.76596124473358451
40
-0.76596124473358451
40
-0.76596124473358451
40
-0.73993349972402711
40
-0.73993349972402711
40
-0.73993349972402711
40
-0.61657709893955204
40
-0.61657709893955204
40
-0.61657709893955204
40
-0.46493935486922322
40
-0.46493935486922322
40
-0.46493935486922322
40
-0.45219957213060169
40
-0.45219957213060169
40
-0.45219957213060169
40
-0.32168374434649816
40
-0.32168374434649816
40
-0.32168374434649816
40
-0.31261442262259787
40
-0.31261442262259787
40
-0.31261442262259787
40
-0.17806407465490978
40
-0.17806407465490978
40
-0.17806407465490978
40
-7.8789585251158158e-05
40
-7.8789585251158158e-05
40
-7.8789585251158158e-05
40
4.1592936251262733e-05
40
4.1592936251262733e-05
40
4.1592936251262733e-05
40
4.1592936251262733e-05
10
30.000000447034836
20
-21.500000298023224
30
0
10
33.958956880696235
20
-21.500000298023224
30
0
10
37.544596078217708
20
-21.324854492438252
30
0
10
40.779252900604384
20
-20.971002123530265
30
0
10
47.494310760441053
20
-20.236414418704072
30
0
10
52.65817578347712
20
-18.740728459215305
30
0
10
56.634467129341616
20
-16.436165701625271
30
0
10
57.283216470609553
20
-16.060166198356455
30
0
10
57.9002843760152
20
-15.663232148642134
30
0
10
58.485508872519098
20
-15.245366369383927
30
0
10
61.259133230415593
20
-13.264925170141932
30
0
10
63.292910343424978
20
-10.772625899853075
30
0
10
64.593854433835617
20
-8.1071942322652308
30
0
10
66.21368691967038
20
-4.7884099464864684
30
0
10
66.802935328228642
20
-1.1009251203226662
30
0
10
66.361307876411615
20
2.4832012515886155
30
0
10
66.324452462198195
20
2.7823096097455604
30
0
10
66.280379496054437
20
3.0812011413200535
30
0
10
66.228808762150905
20
3.3795871604797725
30
0
10
65.700479734651211
20
6.4364758915389233
30
0
10
64.339972811830165
20
9.4475992885774289
30
0
10
62.104200343966134
20
11.974707795786486
30
0
10
61.94769718795812
20
12.15160435509101
30
0
10
61.786865391857255
20
12.326337443044284
30
0
10
61.621758522751982
20
12.498808222135764
30
0
10
59.172271409352248
20
15.057544591567037
30
0
10
55.815880673316308
20
17.084867392373241
30
0
10
51.55623948143274
20
18.546434466973402
30
0
10
45.909251744191018
20
20.484027558886808
30
0
10
38.762125796185387
20
21.433511631654383
30
0
10
30.022848747444737
20
21.499870576610697
30
0
10
30.017154105153221
20
21.499913817081531
30
0
10
30.011459462861726
20
21.499957057552372
30
0
10
30.005764820569816
20
21.500000298023213
30
0
0
ENDSEC
0
SECTION
2
OBJECTS
0
DICTIONARY
5
C
100
AcDbDictionary
3
ACAD_GROUP
350
D
3
ACAD_MLINESTYLE
350
17
0
DICTIONARY
5
D
100
AcDbDictionary
0
DICTIONARY
5
1A
330
C
100
AcDbDictionary
0
DICTIONARY
5
17
100
AcDbDictionary
0
ENDSEC
0
EOF
