%TF.GenerationSoftware,KiCad,Pcbnew,(7.0.0)*%
%TF.CreationDate,2023-08-29T20:45:16+09:00*%
%TF.ProjectId,IN-16_Nixie_Clock,494e2d31-365f-44e6-9978-69655f436c6f,rev?*%
%TF.SameCoordinates,Original*%
%TF.FileFunction,Soldermask,Top*%
%TF.FilePolarity,Negative*%
%FSLAX46Y46*%
G04 Gerber Fmt 4.6, Leading zero omitted, Abs format (unit mm)*
G04 Created by KiCad (PCBNEW (7.0.0)) date 2023-08-29 20:45:16*
%MOMM*%
%LPD*%
G01*
G04 APERTURE LIST*
G04 Aperture macros list*
%AMRoundRect*
0 Rectangle with rounded corners*
0 $1 Rounding radius*
0 $2 $3 $4 $5 $6 $7 $8 $9 X,Y pos of 4 corners*
0 Add a 4 corners polygon primitive as box body*
4,1,4,$2,$3,$4,$5,$6,$7,$8,$9,$2,$3,0*
0 Add four circle primitives for the rounded corners*
1,1,$1+$1,$2,$3*
1,1,$1+$1,$4,$5*
1,1,$1+$1,$6,$7*
1,1,$1+$1,$8,$9*
0 Add four rect primitives between the rounded corners*
20,1,$1+$1,$2,$3,$4,$5,0*
20,1,$1+$1,$4,$5,$6,$7,0*
20,1,$1+$1,$6,$7,$8,$9,0*
20,1,$1+$1,$8,$9,$2,$3,0*%
G04 Aperture macros list end*
%ADD10C,0.100000*%
%ADD11RoundRect,0.225000X0.225000X0.375000X-0.225000X0.375000X-0.225000X-0.375000X0.225000X-0.375000X0*%
%ADD12C,1.200000*%
%ADD13C,1.300000*%
%ADD14C,1.600000*%
%ADD15RoundRect,0.225000X-0.250000X0.225000X-0.250000X-0.225000X0.250000X-0.225000X0.250000X0.225000X0*%
%ADD16RoundRect,0.225000X0.225000X0.250000X-0.225000X0.250000X-0.225000X-0.250000X0.225000X-0.250000X0*%
%ADD17RoundRect,0.100000X-0.100000X0.637500X-0.100000X-0.637500X0.100000X-0.637500X0.100000X0.637500X0*%
%ADD18RoundRect,0.200000X-0.275000X0.200000X-0.275000X-0.200000X0.275000X-0.200000X0.275000X0.200000X0*%
%ADD19R,1.700000X1.700000*%
%ADD20O,1.700000X1.700000*%
%ADD21RoundRect,0.225000X0.250000X-0.225000X0.250000X0.225000X-0.250000X0.225000X-0.250000X-0.225000X0*%
%ADD22RoundRect,0.200000X-0.200000X-0.275000X0.200000X-0.275000X0.200000X0.275000X-0.200000X0.275000X0*%
%ADD23C,0.650000*%
%ADD24R,0.600000X1.140000*%
%ADD25R,0.300000X1.140000*%
%ADD26O,0.800000X2.100000*%
%ADD27O,0.800000X1.800000*%
%ADD28R,1.800000X1.000000*%
%ADD29RoundRect,0.225000X-0.225000X-0.250000X0.225000X-0.250000X0.225000X0.250000X-0.225000X0.250000X0*%
%ADD30RoundRect,0.250000X0.375000X0.625000X-0.375000X0.625000X-0.375000X-0.625000X0.375000X-0.625000X0*%
%ADD31C,1.000000*%
%ADD32R,2.000000X1.800000*%
%ADD33R,1.800000X2.000000*%
%ADD34R,0.900000X1.500000*%
%ADD35R,1.500000X0.900000*%
%ADD36R,0.900000X0.900000*%
%ADD37R,1.100000X0.400000*%
%ADD38RoundRect,0.250000X-0.325000X-1.100000X0.325000X-1.100000X0.325000X1.100000X-0.325000X1.100000X0*%
%ADD39RoundRect,0.200000X0.275000X-0.200000X0.275000X0.200000X-0.275000X0.200000X-0.275000X-0.200000X0*%
%ADD40R,2.000000X1.500000*%
%ADD41R,2.000000X3.800000*%
%ADD42C,2.000000*%
G04 APERTURE END LIST*
D10*
X64357142Y-114114190D02*
X64309523Y-114066571D01*
X64309523Y-114066571D02*
X64214285Y-114018952D01*
X64214285Y-114018952D02*
X64119047Y-114018952D01*
X64119047Y-114018952D02*
X64023809Y-114066571D01*
X64023809Y-114066571D02*
X63976190Y-114114190D01*
X63976190Y-114114190D02*
X63928571Y-114209428D01*
X63928571Y-114209428D02*
X63928571Y-114304666D01*
X63928571Y-114304666D02*
X63976190Y-114399904D01*
X63976190Y-114399904D02*
X64023809Y-114447523D01*
X64023809Y-114447523D02*
X64119047Y-114495142D01*
X64119047Y-114495142D02*
X64214285Y-114495142D01*
X64214285Y-114495142D02*
X64309523Y-114447523D01*
X64309523Y-114447523D02*
X64357142Y-114399904D01*
X64357142Y-114018952D02*
X64357142Y-114399904D01*
X64357142Y-114399904D02*
X64404761Y-114447523D01*
X64404761Y-114447523D02*
X64452380Y-114447523D01*
X64452380Y-114447523D02*
X64547619Y-114399904D01*
X64547619Y-114399904D02*
X64595238Y-114304666D01*
X64595238Y-114304666D02*
X64595238Y-114066571D01*
X64595238Y-114066571D02*
X64500000Y-113923714D01*
X64500000Y-113923714D02*
X64357142Y-113828476D01*
X64357142Y-113828476D02*
X64166666Y-113780857D01*
X64166666Y-113780857D02*
X63976190Y-113828476D01*
X63976190Y-113828476D02*
X63833333Y-113923714D01*
X63833333Y-113923714D02*
X63738095Y-114066571D01*
X63738095Y-114066571D02*
X63690476Y-114257047D01*
X63690476Y-114257047D02*
X63738095Y-114447523D01*
X63738095Y-114447523D02*
X63833333Y-114590380D01*
X63833333Y-114590380D02*
X63976190Y-114685619D01*
X63976190Y-114685619D02*
X64166666Y-114733238D01*
X64166666Y-114733238D02*
X64357142Y-114685619D01*
X64357142Y-114685619D02*
X64500000Y-114590380D01*
X65023809Y-114590380D02*
X65023809Y-113923714D01*
X65023809Y-114018952D02*
X65071428Y-113971333D01*
X65071428Y-113971333D02*
X65166666Y-113923714D01*
X65166666Y-113923714D02*
X65309523Y-113923714D01*
X65309523Y-113923714D02*
X65404761Y-113971333D01*
X65404761Y-113971333D02*
X65452380Y-114066571D01*
X65452380Y-114066571D02*
X65452380Y-114590380D01*
X65452380Y-114066571D02*
X65499999Y-113971333D01*
X65499999Y-113971333D02*
X65595237Y-113923714D01*
X65595237Y-113923714D02*
X65738094Y-113923714D01*
X65738094Y-113923714D02*
X65833333Y-113971333D01*
X65833333Y-113971333D02*
X65880952Y-114066571D01*
X65880952Y-114066571D02*
X65880952Y-114590380D01*
X66357142Y-114590380D02*
X66357142Y-113923714D01*
X66357142Y-113590380D02*
X66309523Y-113638000D01*
X66309523Y-113638000D02*
X66357142Y-113685619D01*
X66357142Y-113685619D02*
X66404761Y-113638000D01*
X66404761Y-113638000D02*
X66357142Y-113590380D01*
X66357142Y-113590380D02*
X66357142Y-113685619D01*
X66833332Y-113923714D02*
X66833332Y-114590380D01*
X66833332Y-114018952D02*
X66880951Y-113971333D01*
X66880951Y-113971333D02*
X66976189Y-113923714D01*
X66976189Y-113923714D02*
X67119046Y-113923714D01*
X67119046Y-113923714D02*
X67214284Y-113971333D01*
X67214284Y-113971333D02*
X67261903Y-114066571D01*
X67261903Y-114066571D02*
X67261903Y-114590380D01*
X67880951Y-114590380D02*
X67785713Y-114542761D01*
X67785713Y-114542761D02*
X67738094Y-114495142D01*
X67738094Y-114495142D02*
X67690475Y-114399904D01*
X67690475Y-114399904D02*
X67690475Y-114114190D01*
X67690475Y-114114190D02*
X67738094Y-114018952D01*
X67738094Y-114018952D02*
X67785713Y-113971333D01*
X67785713Y-113971333D02*
X67880951Y-113923714D01*
X67880951Y-113923714D02*
X68023808Y-113923714D01*
X68023808Y-113923714D02*
X68119046Y-113971333D01*
X68119046Y-113971333D02*
X68166665Y-114018952D01*
X68166665Y-114018952D02*
X68214284Y-114114190D01*
X68214284Y-114114190D02*
X68214284Y-114399904D01*
X68214284Y-114399904D02*
X68166665Y-114495142D01*
X68166665Y-114495142D02*
X68119046Y-114542761D01*
X68119046Y-114542761D02*
X68023808Y-114590380D01*
X68023808Y-114590380D02*
X67880951Y-114590380D01*
X68642856Y-114590380D02*
X68642856Y-113923714D01*
X68642856Y-114114190D02*
X68690475Y-114018952D01*
X68690475Y-114018952D02*
X68738094Y-113971333D01*
X68738094Y-113971333D02*
X68833332Y-113923714D01*
X68833332Y-113923714D02*
X68928570Y-113923714D01*
X69261904Y-114590380D02*
X69261904Y-113923714D01*
X69261904Y-113590380D02*
X69214285Y-113638000D01*
X69214285Y-113638000D02*
X69261904Y-113685619D01*
X69261904Y-113685619D02*
X69309523Y-113638000D01*
X69309523Y-113638000D02*
X69261904Y-113590380D01*
X69261904Y-113590380D02*
X69261904Y-113685619D01*
X69690475Y-113685619D02*
X69738094Y-113638000D01*
X69738094Y-113638000D02*
X69833332Y-113590380D01*
X69833332Y-113590380D02*
X70071427Y-113590380D01*
X70071427Y-113590380D02*
X70166665Y-113638000D01*
X70166665Y-113638000D02*
X70214284Y-113685619D01*
X70214284Y-113685619D02*
X70261903Y-113780857D01*
X70261903Y-113780857D02*
X70261903Y-113876095D01*
X70261903Y-113876095D02*
X70214284Y-114018952D01*
X70214284Y-114018952D02*
X69642856Y-114590380D01*
X69642856Y-114590380D02*
X70261903Y-114590380D01*
X71119046Y-113923714D02*
X71119046Y-114590380D01*
X70880951Y-113542761D02*
X70642856Y-114257047D01*
X70642856Y-114257047D02*
X71261903Y-114257047D01*
X72071427Y-113590380D02*
X71880951Y-113590380D01*
X71880951Y-113590380D02*
X71785713Y-113638000D01*
X71785713Y-113638000D02*
X71738094Y-113685619D01*
X71738094Y-113685619D02*
X71642856Y-113828476D01*
X71642856Y-113828476D02*
X71595237Y-114018952D01*
X71595237Y-114018952D02*
X71595237Y-114399904D01*
X71595237Y-114399904D02*
X71642856Y-114495142D01*
X71642856Y-114495142D02*
X71690475Y-114542761D01*
X71690475Y-114542761D02*
X71785713Y-114590380D01*
X71785713Y-114590380D02*
X71976189Y-114590380D01*
X71976189Y-114590380D02*
X72071427Y-114542761D01*
X72071427Y-114542761D02*
X72119046Y-114495142D01*
X72119046Y-114495142D02*
X72166665Y-114399904D01*
X72166665Y-114399904D02*
X72166665Y-114161809D01*
X72166665Y-114161809D02*
X72119046Y-114066571D01*
X72119046Y-114066571D02*
X72071427Y-114018952D01*
X72071427Y-114018952D02*
X71976189Y-113971333D01*
X71976189Y-113971333D02*
X71785713Y-113971333D01*
X71785713Y-113971333D02*
X71690475Y-114018952D01*
X71690475Y-114018952D02*
X71642856Y-114066571D01*
X71642856Y-114066571D02*
X71595237Y-114161809D01*
X87614095Y-84618380D02*
X87614095Y-83618380D01*
X88090285Y-84618380D02*
X88090285Y-83618380D01*
X88090285Y-83618380D02*
X88661713Y-84618380D01*
X88661713Y-84618380D02*
X88661713Y-83618380D01*
X89137904Y-84237428D02*
X89899809Y-84237428D01*
X90899808Y-84618380D02*
X90328380Y-84618380D01*
X90614094Y-84618380D02*
X90614094Y-83618380D01*
X90614094Y-83618380D02*
X90518856Y-83761238D01*
X90518856Y-83761238D02*
X90423618Y-83856476D01*
X90423618Y-83856476D02*
X90328380Y-83904095D01*
X91756951Y-83618380D02*
X91566475Y-83618380D01*
X91566475Y-83618380D02*
X91471237Y-83666000D01*
X91471237Y-83666000D02*
X91423618Y-83713619D01*
X91423618Y-83713619D02*
X91328380Y-83856476D01*
X91328380Y-83856476D02*
X91280761Y-84046952D01*
X91280761Y-84046952D02*
X91280761Y-84427904D01*
X91280761Y-84427904D02*
X91328380Y-84523142D01*
X91328380Y-84523142D02*
X91375999Y-84570761D01*
X91375999Y-84570761D02*
X91471237Y-84618380D01*
X91471237Y-84618380D02*
X91661713Y-84618380D01*
X91661713Y-84618380D02*
X91756951Y-84570761D01*
X91756951Y-84570761D02*
X91804570Y-84523142D01*
X91804570Y-84523142D02*
X91852189Y-84427904D01*
X91852189Y-84427904D02*
X91852189Y-84189809D01*
X91852189Y-84189809D02*
X91804570Y-84094571D01*
X91804570Y-84094571D02*
X91756951Y-84046952D01*
X91756951Y-84046952D02*
X91661713Y-83999333D01*
X91661713Y-83999333D02*
X91471237Y-83999333D01*
X91471237Y-83999333D02*
X91375999Y-84046952D01*
X91375999Y-84046952D02*
X91328380Y-84094571D01*
X91328380Y-84094571D02*
X91280761Y-84189809D01*
X92880761Y-84618380D02*
X92880761Y-83618380D01*
X92880761Y-83618380D02*
X93452189Y-84618380D01*
X93452189Y-84618380D02*
X93452189Y-83618380D01*
X93928380Y-84618380D02*
X93928380Y-83951714D01*
X93928380Y-83618380D02*
X93880761Y-83666000D01*
X93880761Y-83666000D02*
X93928380Y-83713619D01*
X93928380Y-83713619D02*
X93975999Y-83666000D01*
X93975999Y-83666000D02*
X93928380Y-83618380D01*
X93928380Y-83618380D02*
X93928380Y-83713619D01*
X94309332Y-84618380D02*
X94833141Y-83951714D01*
X94309332Y-83951714D02*
X94833141Y-84618380D01*
X95214094Y-84618380D02*
X95214094Y-83951714D01*
X95214094Y-83618380D02*
X95166475Y-83666000D01*
X95166475Y-83666000D02*
X95214094Y-83713619D01*
X95214094Y-83713619D02*
X95261713Y-83666000D01*
X95261713Y-83666000D02*
X95214094Y-83618380D01*
X95214094Y-83618380D02*
X95214094Y-83713619D01*
X96071236Y-84570761D02*
X95975998Y-84618380D01*
X95975998Y-84618380D02*
X95785522Y-84618380D01*
X95785522Y-84618380D02*
X95690284Y-84570761D01*
X95690284Y-84570761D02*
X95642665Y-84475523D01*
X95642665Y-84475523D02*
X95642665Y-84094571D01*
X95642665Y-84094571D02*
X95690284Y-83999333D01*
X95690284Y-83999333D02*
X95785522Y-83951714D01*
X95785522Y-83951714D02*
X95975998Y-83951714D01*
X95975998Y-83951714D02*
X96071236Y-83999333D01*
X96071236Y-83999333D02*
X96118855Y-84094571D01*
X96118855Y-84094571D02*
X96118855Y-84189809D01*
X96118855Y-84189809D02*
X95642665Y-84285047D01*
X97718855Y-84523142D02*
X97671236Y-84570761D01*
X97671236Y-84570761D02*
X97528379Y-84618380D01*
X97528379Y-84618380D02*
X97433141Y-84618380D01*
X97433141Y-84618380D02*
X97290284Y-84570761D01*
X97290284Y-84570761D02*
X97195046Y-84475523D01*
X97195046Y-84475523D02*
X97147427Y-84380285D01*
X97147427Y-84380285D02*
X97099808Y-84189809D01*
X97099808Y-84189809D02*
X97099808Y-84046952D01*
X97099808Y-84046952D02*
X97147427Y-83856476D01*
X97147427Y-83856476D02*
X97195046Y-83761238D01*
X97195046Y-83761238D02*
X97290284Y-83666000D01*
X97290284Y-83666000D02*
X97433141Y-83618380D01*
X97433141Y-83618380D02*
X97528379Y-83618380D01*
X97528379Y-83618380D02*
X97671236Y-83666000D01*
X97671236Y-83666000D02*
X97718855Y-83713619D01*
X98290284Y-84618380D02*
X98195046Y-84570761D01*
X98195046Y-84570761D02*
X98147427Y-84475523D01*
X98147427Y-84475523D02*
X98147427Y-83618380D01*
X98814094Y-84618380D02*
X98718856Y-84570761D01*
X98718856Y-84570761D02*
X98671237Y-84523142D01*
X98671237Y-84523142D02*
X98623618Y-84427904D01*
X98623618Y-84427904D02*
X98623618Y-84142190D01*
X98623618Y-84142190D02*
X98671237Y-84046952D01*
X98671237Y-84046952D02*
X98718856Y-83999333D01*
X98718856Y-83999333D02*
X98814094Y-83951714D01*
X98814094Y-83951714D02*
X98956951Y-83951714D01*
X98956951Y-83951714D02*
X99052189Y-83999333D01*
X99052189Y-83999333D02*
X99099808Y-84046952D01*
X99099808Y-84046952D02*
X99147427Y-84142190D01*
X99147427Y-84142190D02*
X99147427Y-84427904D01*
X99147427Y-84427904D02*
X99099808Y-84523142D01*
X99099808Y-84523142D02*
X99052189Y-84570761D01*
X99052189Y-84570761D02*
X98956951Y-84618380D01*
X98956951Y-84618380D02*
X98814094Y-84618380D01*
X100004570Y-84570761D02*
X99909332Y-84618380D01*
X99909332Y-84618380D02*
X99718856Y-84618380D01*
X99718856Y-84618380D02*
X99623618Y-84570761D01*
X99623618Y-84570761D02*
X99575999Y-84523142D01*
X99575999Y-84523142D02*
X99528380Y-84427904D01*
X99528380Y-84427904D02*
X99528380Y-84142190D01*
X99528380Y-84142190D02*
X99575999Y-84046952D01*
X99575999Y-84046952D02*
X99623618Y-83999333D01*
X99623618Y-83999333D02*
X99718856Y-83951714D01*
X99718856Y-83951714D02*
X99909332Y-83951714D01*
X99909332Y-83951714D02*
X100004570Y-83999333D01*
X100433142Y-84618380D02*
X100433142Y-83618380D01*
X100528380Y-84237428D02*
X100814094Y-84618380D01*
X100814094Y-83951714D02*
X100433142Y-84332666D01*
X102080761Y-84951714D02*
X102080761Y-83523142D01*
X103966475Y-84523142D02*
X103918856Y-84570761D01*
X103918856Y-84570761D02*
X103775999Y-84618380D01*
X103775999Y-84618380D02*
X103680761Y-84618380D01*
X103680761Y-84618380D02*
X103537904Y-84570761D01*
X103537904Y-84570761D02*
X103442666Y-84475523D01*
X103442666Y-84475523D02*
X103395047Y-84380285D01*
X103395047Y-84380285D02*
X103347428Y-84189809D01*
X103347428Y-84189809D02*
X103347428Y-84046952D01*
X103347428Y-84046952D02*
X103395047Y-83856476D01*
X103395047Y-83856476D02*
X103442666Y-83761238D01*
X103442666Y-83761238D02*
X103537904Y-83666000D01*
X103537904Y-83666000D02*
X103680761Y-83618380D01*
X103680761Y-83618380D02*
X103775999Y-83618380D01*
X103775999Y-83618380D02*
X103918856Y-83666000D01*
X103918856Y-83666000D02*
X103966475Y-83713619D01*
X104395047Y-84618380D02*
X104395047Y-83951714D01*
X104395047Y-84142190D02*
X104442666Y-84046952D01*
X104442666Y-84046952D02*
X104490285Y-83999333D01*
X104490285Y-83999333D02*
X104585523Y-83951714D01*
X104585523Y-83951714D02*
X104680761Y-83951714D01*
X105156952Y-84618380D02*
X105061714Y-84570761D01*
X105061714Y-84570761D02*
X105014095Y-84523142D01*
X105014095Y-84523142D02*
X104966476Y-84427904D01*
X104966476Y-84427904D02*
X104966476Y-84142190D01*
X104966476Y-84142190D02*
X105014095Y-84046952D01*
X105014095Y-84046952D02*
X105061714Y-83999333D01*
X105061714Y-83999333D02*
X105156952Y-83951714D01*
X105156952Y-83951714D02*
X105299809Y-83951714D01*
X105299809Y-83951714D02*
X105395047Y-83999333D01*
X105395047Y-83999333D02*
X105442666Y-84046952D01*
X105442666Y-84046952D02*
X105490285Y-84142190D01*
X105490285Y-84142190D02*
X105490285Y-84427904D01*
X105490285Y-84427904D02*
X105442666Y-84523142D01*
X105442666Y-84523142D02*
X105395047Y-84570761D01*
X105395047Y-84570761D02*
X105299809Y-84618380D01*
X105299809Y-84618380D02*
X105156952Y-84618380D01*
X105871238Y-84570761D02*
X105966476Y-84618380D01*
X105966476Y-84618380D02*
X106156952Y-84618380D01*
X106156952Y-84618380D02*
X106252190Y-84570761D01*
X106252190Y-84570761D02*
X106299809Y-84475523D01*
X106299809Y-84475523D02*
X106299809Y-84427904D01*
X106299809Y-84427904D02*
X106252190Y-84332666D01*
X106252190Y-84332666D02*
X106156952Y-84285047D01*
X106156952Y-84285047D02*
X106014095Y-84285047D01*
X106014095Y-84285047D02*
X105918857Y-84237428D01*
X105918857Y-84237428D02*
X105871238Y-84142190D01*
X105871238Y-84142190D02*
X105871238Y-84094571D01*
X105871238Y-84094571D02*
X105918857Y-83999333D01*
X105918857Y-83999333D02*
X106014095Y-83951714D01*
X106014095Y-83951714D02*
X106156952Y-83951714D01*
X106156952Y-83951714D02*
X106252190Y-83999333D01*
X106680762Y-84570761D02*
X106776000Y-84618380D01*
X106776000Y-84618380D02*
X106966476Y-84618380D01*
X106966476Y-84618380D02*
X107061714Y-84570761D01*
X107061714Y-84570761D02*
X107109333Y-84475523D01*
X107109333Y-84475523D02*
X107109333Y-84427904D01*
X107109333Y-84427904D02*
X107061714Y-84332666D01*
X107061714Y-84332666D02*
X106966476Y-84285047D01*
X106966476Y-84285047D02*
X106823619Y-84285047D01*
X106823619Y-84285047D02*
X106728381Y-84237428D01*
X106728381Y-84237428D02*
X106680762Y-84142190D01*
X106680762Y-84142190D02*
X106680762Y-84094571D01*
X106680762Y-84094571D02*
X106728381Y-83999333D01*
X106728381Y-83999333D02*
X106823619Y-83951714D01*
X106823619Y-83951714D02*
X106966476Y-83951714D01*
X106966476Y-83951714D02*
X107061714Y-83999333D01*
X107395048Y-83951714D02*
X107776000Y-83951714D01*
X107537905Y-83618380D02*
X107537905Y-84475523D01*
X107537905Y-84475523D02*
X107585524Y-84570761D01*
X107585524Y-84570761D02*
X107680762Y-84618380D01*
X107680762Y-84618380D02*
X107776000Y-84618380D01*
X108537905Y-84618380D02*
X108537905Y-84094571D01*
X108537905Y-84094571D02*
X108490286Y-83999333D01*
X108490286Y-83999333D02*
X108395048Y-83951714D01*
X108395048Y-83951714D02*
X108204572Y-83951714D01*
X108204572Y-83951714D02*
X108109334Y-83999333D01*
X108537905Y-84570761D02*
X108442667Y-84618380D01*
X108442667Y-84618380D02*
X108204572Y-84618380D01*
X108204572Y-84618380D02*
X108109334Y-84570761D01*
X108109334Y-84570761D02*
X108061715Y-84475523D01*
X108061715Y-84475523D02*
X108061715Y-84380285D01*
X108061715Y-84380285D02*
X108109334Y-84285047D01*
X108109334Y-84285047D02*
X108204572Y-84237428D01*
X108204572Y-84237428D02*
X108442667Y-84237428D01*
X108442667Y-84237428D02*
X108537905Y-84189809D01*
X109156953Y-84618380D02*
X109061715Y-84570761D01*
X109061715Y-84570761D02*
X109014096Y-84475523D01*
X109014096Y-84475523D02*
X109014096Y-83618380D01*
X109537906Y-84618380D02*
X109537906Y-83618380D01*
X109633144Y-84237428D02*
X109918858Y-84618380D01*
X109918858Y-83951714D02*
X109537906Y-84332666D01*
X110947430Y-84618380D02*
X110947430Y-83618380D01*
X110947430Y-83618380D02*
X111185525Y-83618380D01*
X111185525Y-83618380D02*
X111328382Y-83666000D01*
X111328382Y-83666000D02*
X111423620Y-83761238D01*
X111423620Y-83761238D02*
X111471239Y-83856476D01*
X111471239Y-83856476D02*
X111518858Y-84046952D01*
X111518858Y-84046952D02*
X111518858Y-84189809D01*
X111518858Y-84189809D02*
X111471239Y-84380285D01*
X111471239Y-84380285D02*
X111423620Y-84475523D01*
X111423620Y-84475523D02*
X111328382Y-84570761D01*
X111328382Y-84570761D02*
X111185525Y-84618380D01*
X111185525Y-84618380D02*
X110947430Y-84618380D01*
X112328382Y-84570761D02*
X112233144Y-84618380D01*
X112233144Y-84618380D02*
X112042668Y-84618380D01*
X112042668Y-84618380D02*
X111947430Y-84570761D01*
X111947430Y-84570761D02*
X111899811Y-84475523D01*
X111899811Y-84475523D02*
X111899811Y-84094571D01*
X111899811Y-84094571D02*
X111947430Y-83999333D01*
X111947430Y-83999333D02*
X112042668Y-83951714D01*
X112042668Y-83951714D02*
X112233144Y-83951714D01*
X112233144Y-83951714D02*
X112328382Y-83999333D01*
X112328382Y-83999333D02*
X112376001Y-84094571D01*
X112376001Y-84094571D02*
X112376001Y-84189809D01*
X112376001Y-84189809D02*
X111899811Y-84285047D01*
X112756954Y-84570761D02*
X112852192Y-84618380D01*
X112852192Y-84618380D02*
X113042668Y-84618380D01*
X113042668Y-84618380D02*
X113137906Y-84570761D01*
X113137906Y-84570761D02*
X113185525Y-84475523D01*
X113185525Y-84475523D02*
X113185525Y-84427904D01*
X113185525Y-84427904D02*
X113137906Y-84332666D01*
X113137906Y-84332666D02*
X113042668Y-84285047D01*
X113042668Y-84285047D02*
X112899811Y-84285047D01*
X112899811Y-84285047D02*
X112804573Y-84237428D01*
X112804573Y-84237428D02*
X112756954Y-84142190D01*
X112756954Y-84142190D02*
X112756954Y-84094571D01*
X112756954Y-84094571D02*
X112804573Y-83999333D01*
X112804573Y-83999333D02*
X112899811Y-83951714D01*
X112899811Y-83951714D02*
X113042668Y-83951714D01*
X113042668Y-83951714D02*
X113137906Y-83999333D01*
X113614097Y-84618380D02*
X113614097Y-83951714D01*
X113614097Y-83618380D02*
X113566478Y-83666000D01*
X113566478Y-83666000D02*
X113614097Y-83713619D01*
X113614097Y-83713619D02*
X113661716Y-83666000D01*
X113661716Y-83666000D02*
X113614097Y-83618380D01*
X113614097Y-83618380D02*
X113614097Y-83713619D01*
X114518858Y-83951714D02*
X114518858Y-84761238D01*
X114518858Y-84761238D02*
X114471239Y-84856476D01*
X114471239Y-84856476D02*
X114423620Y-84904095D01*
X114423620Y-84904095D02*
X114328382Y-84951714D01*
X114328382Y-84951714D02*
X114185525Y-84951714D01*
X114185525Y-84951714D02*
X114090287Y-84904095D01*
X114518858Y-84570761D02*
X114423620Y-84618380D01*
X114423620Y-84618380D02*
X114233144Y-84618380D01*
X114233144Y-84618380D02*
X114137906Y-84570761D01*
X114137906Y-84570761D02*
X114090287Y-84523142D01*
X114090287Y-84523142D02*
X114042668Y-84427904D01*
X114042668Y-84427904D02*
X114042668Y-84142190D01*
X114042668Y-84142190D02*
X114090287Y-84046952D01*
X114090287Y-84046952D02*
X114137906Y-83999333D01*
X114137906Y-83999333D02*
X114233144Y-83951714D01*
X114233144Y-83951714D02*
X114423620Y-83951714D01*
X114423620Y-83951714D02*
X114518858Y-83999333D01*
X114995049Y-83951714D02*
X114995049Y-84618380D01*
X114995049Y-84046952D02*
X115042668Y-83999333D01*
X115042668Y-83999333D02*
X115137906Y-83951714D01*
X115137906Y-83951714D02*
X115280763Y-83951714D01*
X115280763Y-83951714D02*
X115376001Y-83999333D01*
X115376001Y-83999333D02*
X115423620Y-84094571D01*
X115423620Y-84094571D02*
X115423620Y-84618380D01*
X115852192Y-84570761D02*
X115947430Y-84618380D01*
X115947430Y-84618380D02*
X116137906Y-84618380D01*
X116137906Y-84618380D02*
X116233144Y-84570761D01*
X116233144Y-84570761D02*
X116280763Y-84475523D01*
X116280763Y-84475523D02*
X116280763Y-84427904D01*
X116280763Y-84427904D02*
X116233144Y-84332666D01*
X116233144Y-84332666D02*
X116137906Y-84285047D01*
X116137906Y-84285047D02*
X115995049Y-84285047D01*
X115995049Y-84285047D02*
X115899811Y-84237428D01*
X115899811Y-84237428D02*
X115852192Y-84142190D01*
X115852192Y-84142190D02*
X115852192Y-84094571D01*
X115852192Y-84094571D02*
X115899811Y-83999333D01*
X115899811Y-83999333D02*
X115995049Y-83951714D01*
X115995049Y-83951714D02*
X116137906Y-83951714D01*
X116137906Y-83951714D02*
X116233144Y-83999333D01*
X116709335Y-84523142D02*
X116756954Y-84570761D01*
X116756954Y-84570761D02*
X116709335Y-84618380D01*
X116709335Y-84618380D02*
X116661716Y-84570761D01*
X116661716Y-84570761D02*
X116709335Y-84523142D01*
X116709335Y-84523142D02*
X116709335Y-84618380D01*
X117737906Y-83713619D02*
X117785525Y-83666000D01*
X117785525Y-83666000D02*
X117880763Y-83618380D01*
X117880763Y-83618380D02*
X118118858Y-83618380D01*
X118118858Y-83618380D02*
X118214096Y-83666000D01*
X118214096Y-83666000D02*
X118261715Y-83713619D01*
X118261715Y-83713619D02*
X118309334Y-83808857D01*
X118309334Y-83808857D02*
X118309334Y-83904095D01*
X118309334Y-83904095D02*
X118261715Y-84046952D01*
X118261715Y-84046952D02*
X117690287Y-84618380D01*
X117690287Y-84618380D02*
X118309334Y-84618380D01*
X118928382Y-83618380D02*
X119023620Y-83618380D01*
X119023620Y-83618380D02*
X119118858Y-83666000D01*
X119118858Y-83666000D02*
X119166477Y-83713619D01*
X119166477Y-83713619D02*
X119214096Y-83808857D01*
X119214096Y-83808857D02*
X119261715Y-83999333D01*
X119261715Y-83999333D02*
X119261715Y-84237428D01*
X119261715Y-84237428D02*
X119214096Y-84427904D01*
X119214096Y-84427904D02*
X119166477Y-84523142D01*
X119166477Y-84523142D02*
X119118858Y-84570761D01*
X119118858Y-84570761D02*
X119023620Y-84618380D01*
X119023620Y-84618380D02*
X118928382Y-84618380D01*
X118928382Y-84618380D02*
X118833144Y-84570761D01*
X118833144Y-84570761D02*
X118785525Y-84523142D01*
X118785525Y-84523142D02*
X118737906Y-84427904D01*
X118737906Y-84427904D02*
X118690287Y-84237428D01*
X118690287Y-84237428D02*
X118690287Y-83999333D01*
X118690287Y-83999333D02*
X118737906Y-83808857D01*
X118737906Y-83808857D02*
X118785525Y-83713619D01*
X118785525Y-83713619D02*
X118833144Y-83666000D01*
X118833144Y-83666000D02*
X118928382Y-83618380D01*
X119642668Y-83713619D02*
X119690287Y-83666000D01*
X119690287Y-83666000D02*
X119785525Y-83618380D01*
X119785525Y-83618380D02*
X120023620Y-83618380D01*
X120023620Y-83618380D02*
X120118858Y-83666000D01*
X120118858Y-83666000D02*
X120166477Y-83713619D01*
X120166477Y-83713619D02*
X120214096Y-83808857D01*
X120214096Y-83808857D02*
X120214096Y-83904095D01*
X120214096Y-83904095D02*
X120166477Y-84046952D01*
X120166477Y-84046952D02*
X119595049Y-84618380D01*
X119595049Y-84618380D02*
X120214096Y-84618380D01*
X120547430Y-83618380D02*
X121166477Y-83618380D01*
X121166477Y-83618380D02*
X120833144Y-83999333D01*
X120833144Y-83999333D02*
X120976001Y-83999333D01*
X120976001Y-83999333D02*
X121071239Y-84046952D01*
X121071239Y-84046952D02*
X121118858Y-84094571D01*
X121118858Y-84094571D02*
X121166477Y-84189809D01*
X121166477Y-84189809D02*
X121166477Y-84427904D01*
X121166477Y-84427904D02*
X121118858Y-84523142D01*
X121118858Y-84523142D02*
X121071239Y-84570761D01*
X121071239Y-84570761D02*
X120976001Y-84618380D01*
X120976001Y-84618380D02*
X120690287Y-84618380D01*
X120690287Y-84618380D02*
X120595049Y-84570761D01*
X120595049Y-84570761D02*
X120547430Y-84523142D01*
X129524095Y-84872380D02*
X129524095Y-83872380D01*
X129524095Y-83872380D02*
X129905047Y-83872380D01*
X129905047Y-83872380D02*
X130000285Y-83920000D01*
X130000285Y-83920000D02*
X130047904Y-83967619D01*
X130047904Y-83967619D02*
X130095523Y-84062857D01*
X130095523Y-84062857D02*
X130095523Y-84205714D01*
X130095523Y-84205714D02*
X130047904Y-84300952D01*
X130047904Y-84300952D02*
X130000285Y-84348571D01*
X130000285Y-84348571D02*
X129905047Y-84396190D01*
X129905047Y-84396190D02*
X129524095Y-84396190D01*
X131095523Y-84777142D02*
X131047904Y-84824761D01*
X131047904Y-84824761D02*
X130905047Y-84872380D01*
X130905047Y-84872380D02*
X130809809Y-84872380D01*
X130809809Y-84872380D02*
X130666952Y-84824761D01*
X130666952Y-84824761D02*
X130571714Y-84729523D01*
X130571714Y-84729523D02*
X130524095Y-84634285D01*
X130524095Y-84634285D02*
X130476476Y-84443809D01*
X130476476Y-84443809D02*
X130476476Y-84300952D01*
X130476476Y-84300952D02*
X130524095Y-84110476D01*
X130524095Y-84110476D02*
X130571714Y-84015238D01*
X130571714Y-84015238D02*
X130666952Y-83920000D01*
X130666952Y-83920000D02*
X130809809Y-83872380D01*
X130809809Y-83872380D02*
X130905047Y-83872380D01*
X130905047Y-83872380D02*
X131047904Y-83920000D01*
X131047904Y-83920000D02*
X131095523Y-83967619D01*
X131857428Y-84348571D02*
X132000285Y-84396190D01*
X132000285Y-84396190D02*
X132047904Y-84443809D01*
X132047904Y-84443809D02*
X132095523Y-84539047D01*
X132095523Y-84539047D02*
X132095523Y-84681904D01*
X132095523Y-84681904D02*
X132047904Y-84777142D01*
X132047904Y-84777142D02*
X132000285Y-84824761D01*
X132000285Y-84824761D02*
X131905047Y-84872380D01*
X131905047Y-84872380D02*
X131524095Y-84872380D01*
X131524095Y-84872380D02*
X131524095Y-83872380D01*
X131524095Y-83872380D02*
X131857428Y-83872380D01*
X131857428Y-83872380D02*
X131952666Y-83920000D01*
X131952666Y-83920000D02*
X132000285Y-83967619D01*
X132000285Y-83967619D02*
X132047904Y-84062857D01*
X132047904Y-84062857D02*
X132047904Y-84158095D01*
X132047904Y-84158095D02*
X132000285Y-84253333D01*
X132000285Y-84253333D02*
X131952666Y-84300952D01*
X131952666Y-84300952D02*
X131857428Y-84348571D01*
X131857428Y-84348571D02*
X131524095Y-84348571D01*
X133695523Y-84872380D02*
X133362190Y-84396190D01*
X133124095Y-84872380D02*
X133124095Y-83872380D01*
X133124095Y-83872380D02*
X133505047Y-83872380D01*
X133505047Y-83872380D02*
X133600285Y-83920000D01*
X133600285Y-83920000D02*
X133647904Y-83967619D01*
X133647904Y-83967619D02*
X133695523Y-84062857D01*
X133695523Y-84062857D02*
X133695523Y-84205714D01*
X133695523Y-84205714D02*
X133647904Y-84300952D01*
X133647904Y-84300952D02*
X133600285Y-84348571D01*
X133600285Y-84348571D02*
X133505047Y-84396190D01*
X133505047Y-84396190D02*
X133124095Y-84396190D01*
X134505047Y-84824761D02*
X134409809Y-84872380D01*
X134409809Y-84872380D02*
X134219333Y-84872380D01*
X134219333Y-84872380D02*
X134124095Y-84824761D01*
X134124095Y-84824761D02*
X134076476Y-84729523D01*
X134076476Y-84729523D02*
X134076476Y-84348571D01*
X134076476Y-84348571D02*
X134124095Y-84253333D01*
X134124095Y-84253333D02*
X134219333Y-84205714D01*
X134219333Y-84205714D02*
X134409809Y-84205714D01*
X134409809Y-84205714D02*
X134505047Y-84253333D01*
X134505047Y-84253333D02*
X134552666Y-84348571D01*
X134552666Y-84348571D02*
X134552666Y-84443809D01*
X134552666Y-84443809D02*
X134076476Y-84539047D01*
X134886000Y-84205714D02*
X135124095Y-84872380D01*
X135124095Y-84872380D02*
X135362190Y-84205714D01*
X135743143Y-84777142D02*
X135790762Y-84824761D01*
X135790762Y-84824761D02*
X135743143Y-84872380D01*
X135743143Y-84872380D02*
X135695524Y-84824761D01*
X135695524Y-84824761D02*
X135743143Y-84777142D01*
X135743143Y-84777142D02*
X135743143Y-84872380D01*
X137009809Y-83872380D02*
X137105047Y-83872380D01*
X137105047Y-83872380D02*
X137200285Y-83920000D01*
X137200285Y-83920000D02*
X137247904Y-83967619D01*
X137247904Y-83967619D02*
X137295523Y-84062857D01*
X137295523Y-84062857D02*
X137343142Y-84253333D01*
X137343142Y-84253333D02*
X137343142Y-84491428D01*
X137343142Y-84491428D02*
X137295523Y-84681904D01*
X137295523Y-84681904D02*
X137247904Y-84777142D01*
X137247904Y-84777142D02*
X137200285Y-84824761D01*
X137200285Y-84824761D02*
X137105047Y-84872380D01*
X137105047Y-84872380D02*
X137009809Y-84872380D01*
X137009809Y-84872380D02*
X136914571Y-84824761D01*
X136914571Y-84824761D02*
X136866952Y-84777142D01*
X136866952Y-84777142D02*
X136819333Y-84681904D01*
X136819333Y-84681904D02*
X136771714Y-84491428D01*
X136771714Y-84491428D02*
X136771714Y-84253333D01*
X136771714Y-84253333D02*
X136819333Y-84062857D01*
X136819333Y-84062857D02*
X136866952Y-83967619D01*
X136866952Y-83967619D02*
X136914571Y-83920000D01*
X136914571Y-83920000D02*
X137009809Y-83872380D01*
X137771714Y-84777142D02*
X137819333Y-84824761D01*
X137819333Y-84824761D02*
X137771714Y-84872380D01*
X137771714Y-84872380D02*
X137724095Y-84824761D01*
X137724095Y-84824761D02*
X137771714Y-84777142D01*
X137771714Y-84777142D02*
X137771714Y-84872380D01*
X138200285Y-83967619D02*
X138247904Y-83920000D01*
X138247904Y-83920000D02*
X138343142Y-83872380D01*
X138343142Y-83872380D02*
X138581237Y-83872380D01*
X138581237Y-83872380D02*
X138676475Y-83920000D01*
X138676475Y-83920000D02*
X138724094Y-83967619D01*
X138724094Y-83967619D02*
X138771713Y-84062857D01*
X138771713Y-84062857D02*
X138771713Y-84158095D01*
X138771713Y-84158095D02*
X138724094Y-84300952D01*
X138724094Y-84300952D02*
X138152666Y-84872380D01*
X138152666Y-84872380D02*
X138771713Y-84872380D01*
D11*
%TO.C,D4*%
X93090000Y-91694000D03*
X89790000Y-91694000D03*
%TD*%
D12*
%TO.C,N4*%
X107940000Y-69120000D03*
X109800000Y-68660000D03*
X111230000Y-67390000D03*
X111910000Y-65600000D03*
X111680000Y-63700000D03*
X110590000Y-62130000D03*
X108900000Y-61240000D03*
X106980000Y-61240000D03*
X105290000Y-62130000D03*
X104200000Y-63700000D03*
D13*
X103970000Y-65600000D03*
D12*
X104650000Y-67390000D03*
X106080000Y-68660000D03*
%TD*%
D14*
%TO.C,N9*%
X119990818Y-67524000D03*
X119990818Y-62524000D03*
%TD*%
D12*
%TO.C,N1*%
X132040000Y-69160000D03*
X133900000Y-68700000D03*
X135330000Y-67430000D03*
X136010000Y-65640000D03*
X135780000Y-63740000D03*
X134690000Y-62170000D03*
X133000000Y-61280000D03*
X131080000Y-61280000D03*
X129390000Y-62170000D03*
X128300000Y-63740000D03*
D13*
X128070000Y-65640000D03*
D12*
X128750000Y-67430000D03*
X130180000Y-68700000D03*
%TD*%
D15*
%TO.C,C2*%
X61722000Y-106400000D03*
X61722000Y-107950000D03*
%TD*%
%TO.C,C1*%
X63246000Y-106413000D03*
X63246000Y-107963000D03*
%TD*%
D16*
%TO.C,C4*%
X103645000Y-91440000D03*
X102095000Y-91440000D03*
%TD*%
D12*
%TO.C,N8*%
X68000000Y-69100000D03*
X69860000Y-68640000D03*
X71290000Y-67370000D03*
X71970000Y-65580000D03*
X71740000Y-63680000D03*
X70650000Y-62110000D03*
X68960000Y-61220000D03*
X67040000Y-61220000D03*
X65350000Y-62110000D03*
X64260000Y-63680000D03*
D13*
X64030000Y-65580000D03*
D12*
X64710000Y-67370000D03*
X66140000Y-68640000D03*
%TD*%
D17*
%TO.C,U4*%
X121289000Y-101531500D03*
X120639000Y-101531500D03*
X119989000Y-101531500D03*
X119339000Y-101531500D03*
X118689000Y-101531500D03*
X118039000Y-101531500D03*
X117389000Y-101531500D03*
X116739000Y-101531500D03*
X116089000Y-101531500D03*
X115439000Y-101531500D03*
X115439000Y-107256500D03*
X116089000Y-107256500D03*
X116739000Y-107256500D03*
X117389000Y-107256500D03*
X118039000Y-107256500D03*
X118689000Y-107256500D03*
X119339000Y-107256500D03*
X119989000Y-107256500D03*
X120639000Y-107256500D03*
X121289000Y-107256500D03*
%TD*%
D18*
%TO.C,R24*%
X75184000Y-106363000D03*
X75184000Y-108013000D03*
%TD*%
D12*
%TO.C,N2*%
X148000000Y-69100000D03*
X149860000Y-68640000D03*
X151290000Y-67370000D03*
X151970000Y-65580000D03*
X151740000Y-63680000D03*
X150650000Y-62110000D03*
X148960000Y-61220000D03*
X147040000Y-61220000D03*
X145350000Y-62110000D03*
X144260000Y-63680000D03*
D13*
X144030000Y-65580000D03*
D12*
X144710000Y-67370000D03*
X146140000Y-68640000D03*
%TD*%
D15*
%TO.C,C9*%
X122682000Y-105918000D03*
X122682000Y-107468000D03*
%TD*%
D19*
%TO.C,J3*%
X147199999Y-112499999D03*
D20*
X144659999Y-112499999D03*
X142119999Y-112499999D03*
X139579999Y-112499999D03*
X137039999Y-112499999D03*
X134499999Y-112499999D03*
X131959999Y-112499999D03*
X129419999Y-112499999D03*
X126879999Y-112499999D03*
X124339999Y-112499999D03*
X121799999Y-112499999D03*
X119259999Y-112499999D03*
X116719999Y-112499999D03*
X114179999Y-112499999D03*
%TD*%
D21*
%TO.C,C7*%
X122682000Y-102883000D03*
X122682000Y-101333000D03*
%TD*%
D22*
%TO.C,R8*%
X120079000Y-90678000D03*
X121729000Y-90678000D03*
%TD*%
D23*
%TO.C,J5*%
X84110000Y-109720000D03*
X89890000Y-109720000D03*
D24*
X83799999Y-108649999D03*
X84599999Y-108649999D03*
D25*
X85749999Y-108649999D03*
X86749999Y-108649999D03*
X87249999Y-108649999D03*
X88249999Y-108649999D03*
D24*
X90199999Y-108649999D03*
X89399999Y-108649999D03*
D25*
X88749999Y-108649999D03*
X87749999Y-108649999D03*
X86249999Y-108649999D03*
X85249999Y-108649999D03*
D26*
X82679999Y-109219999D03*
D27*
X82679999Y-113399999D03*
D26*
X91319999Y-109219999D03*
D27*
X91319999Y-113399999D03*
%TD*%
D28*
%TO.C,Y1*%
X96760999Y-90657999D03*
X96760999Y-88157999D03*
%TD*%
D29*
%TO.C,C13*%
X100330000Y-90170000D03*
X98780000Y-90170000D03*
%TD*%
D15*
%TO.C,C3*%
X66802000Y-106426000D03*
X66802000Y-107976000D03*
%TD*%
D22*
%TO.C,R20*%
X82487000Y-84836000D03*
X84137000Y-84836000D03*
%TD*%
D29*
%TO.C,C15*%
X92469000Y-93726000D03*
X90919000Y-93726000D03*
%TD*%
D30*
%TO.C,F1*%
X96396000Y-108712000D03*
X93596000Y-108712000D03*
%TD*%
D29*
%TO.C,C14*%
X98780000Y-88646000D03*
X100330000Y-88646000D03*
%TD*%
D31*
%TO.C,U3*%
X129972000Y-87824000D03*
X129972000Y-105824000D03*
X146972000Y-87824000D03*
X146972000Y-105824000D03*
D32*
X147971999Y-89223999D03*
D33*
X138371999Y-86823999D03*
D32*
X132871999Y-106823999D03*
X147971999Y-104623999D03*
%TD*%
D34*
%TO.C,U8*%
X62339999Y-103344999D03*
X63609999Y-103344999D03*
X64879999Y-103344999D03*
X66149999Y-103344999D03*
X67419999Y-103344999D03*
X68689999Y-103344999D03*
X69959999Y-103344999D03*
X71229999Y-103344999D03*
X72499999Y-103344999D03*
X73769999Y-103344999D03*
X75039999Y-103344999D03*
X76309999Y-103344999D03*
X77579999Y-103344999D03*
X78849999Y-103344999D03*
D35*
X80099999Y-101579999D03*
X80099999Y-100309999D03*
X80099999Y-99039999D03*
X80099999Y-97769999D03*
X80099999Y-96499999D03*
X80099999Y-95229999D03*
X80099999Y-93959999D03*
X80099999Y-92689999D03*
X80099999Y-91419999D03*
X80099999Y-90149999D03*
X80099999Y-88879999D03*
X80099999Y-87609999D03*
D34*
X78849999Y-85844999D03*
X77579999Y-85844999D03*
X76309999Y-85844999D03*
X75039999Y-85844999D03*
X73769999Y-85844999D03*
X72499999Y-85844999D03*
X71229999Y-85844999D03*
X69959999Y-85844999D03*
X68689999Y-85844999D03*
X67419999Y-85844999D03*
X66149999Y-85844999D03*
X64879999Y-85844999D03*
X63609999Y-85844999D03*
X62339999Y-85844999D03*
D36*
X68659999Y-97494999D03*
X70059999Y-97494999D03*
X71459999Y-97494999D03*
X71459999Y-97494999D03*
X68659999Y-96094999D03*
X68659999Y-96094999D03*
X70059999Y-96094999D03*
X71459999Y-96094999D03*
X68659999Y-94694999D03*
X70059999Y-94694999D03*
X71459999Y-94694999D03*
%TD*%
D22*
%TO.C,R18*%
X79439000Y-111028000D03*
X81089000Y-111028000D03*
%TD*%
D37*
%TO.C,U7*%
X90051999Y-89620999D03*
X90051999Y-88970999D03*
X90051999Y-88320999D03*
X90051999Y-87670999D03*
X94351999Y-87670999D03*
X94351999Y-88320999D03*
X94351999Y-88970999D03*
X94351999Y-89620999D03*
%TD*%
D22*
%TO.C,R7*%
X120079000Y-87884000D03*
X121729000Y-87884000D03*
%TD*%
D12*
%TO.C,N3*%
X91970000Y-69120000D03*
X93830000Y-68660000D03*
X95260000Y-67390000D03*
X95940000Y-65600000D03*
X95710000Y-63700000D03*
X94620000Y-62130000D03*
X92930000Y-61240000D03*
X91010000Y-61240000D03*
X89320000Y-62130000D03*
X88230000Y-63700000D03*
D13*
X88000000Y-65600000D03*
D12*
X88680000Y-67390000D03*
X90110000Y-68660000D03*
%TD*%
D22*
%TO.C,R19*%
X79439000Y-112776000D03*
X81089000Y-112776000D03*
%TD*%
D18*
%TO.C,R23*%
X73406000Y-106363000D03*
X73406000Y-108013000D03*
%TD*%
D16*
%TO.C,C12*%
X103645000Y-93726000D03*
X102095000Y-93726000D03*
%TD*%
D12*
%TO.C,N7*%
X52040000Y-69120000D03*
X53900000Y-68660000D03*
X55330000Y-67390000D03*
X56010000Y-65600000D03*
X55780000Y-63700000D03*
X54690000Y-62130000D03*
X53000000Y-61240000D03*
X51080000Y-61240000D03*
X49390000Y-62130000D03*
X48300000Y-63700000D03*
D13*
X48070000Y-65600000D03*
D12*
X48750000Y-67390000D03*
X50180000Y-68660000D03*
%TD*%
D29*
%TO.C,C6*%
X99047000Y-111760000D03*
X100597000Y-111760000D03*
%TD*%
D38*
%TO.C,C5*%
X98347000Y-109220000D03*
X101297000Y-109220000D03*
%TD*%
D39*
%TO.C,R21*%
X65024000Y-108076000D03*
X65024000Y-106426000D03*
%TD*%
D22*
%TO.C,R22*%
X82233000Y-92710000D03*
X83883000Y-92710000D03*
%TD*%
D14*
%TO.C,N5*%
X80019183Y-67500000D03*
X80019183Y-62500000D03*
%TD*%
D40*
%TO.C,U2*%
X105998999Y-89088999D03*
X105998999Y-91388999D03*
D41*
X112298999Y-91388999D03*
D40*
X105998999Y-93688999D03*
%TD*%
D19*
%TO.C,J2*%
X124708999Y-85597999D03*
D20*
X127248999Y-85597999D03*
%TD*%
D42*
%TO.C,SW3*%
X111250000Y-100750000D03*
X104750000Y-100750000D03*
X111250000Y-105250000D03*
X104750000Y-105250000D03*
%TD*%
%TO.C,SW2*%
X101250000Y-100750000D03*
X94750000Y-100750000D03*
X101250000Y-105250000D03*
X94750000Y-105250000D03*
%TD*%
%TO.C,SW1*%
X91250000Y-100750000D03*
X84750000Y-100750000D03*
X91250000Y-105250000D03*
X84750000Y-105250000D03*
%TD*%
D19*
%TO.C,J4*%
X147199999Y-77499999D03*
D20*
X144659999Y-77499999D03*
X142119999Y-77499999D03*
X139579999Y-77499999D03*
X137039999Y-77499999D03*
X134499999Y-77499999D03*
X131959999Y-77499999D03*
X129419999Y-77499999D03*
X126879999Y-77499999D03*
X124339999Y-77499999D03*
X121799999Y-77499999D03*
X119259999Y-77499999D03*
X116719999Y-77499999D03*
X114179999Y-77499999D03*
%TD*%
D19*
%TO.C,J1*%
X117093999Y-88137999D03*
D20*
X117093999Y-90677999D03*
X117093999Y-93217999D03*
X117093999Y-95757999D03*
%TD*%
M02*
