%TF.GenerationSoftware,KiCad,Pcbnew,(7.0.0)*%
%TF.CreationDate,2023-08-29T20:45:16+09:00*%
%TF.ProjectId,IN-16_Nixie_Clock,494e2d31-365f-44e6-9978-69655f436c6f,rev?*%
%TF.SameCoordinates,Original*%
%TF.FileFunction,Paste,Bot*%
%TF.FilePolarity,Positive*%
%FSLAX46Y46*%
G04 Gerber Fmt 4.6, Leading zero omitted, Abs format (unit mm)*
G04 Created by KiCad (PCBNEW (7.0.0)) date 2023-08-29 20:45:16*
%MOMM*%
%LPD*%
G01*
G04 APERTURE LIST*
G04 Aperture macros list*
%AMRoundRect*
0 Rectangle with rounded corners*
0 $1 Rounding radius*
0 $2 $3 $4 $5 $6 $7 $8 $9 X,Y pos of 4 corners*
0 Add a 4 corners polygon primitive as box body*
4,1,4,$2,$3,$4,$5,$6,$7,$8,$9,$2,$3,0*
0 Add four circle primitives for the rounded corners*
1,1,$1+$1,$2,$3*
1,1,$1+$1,$4,$5*
1,1,$1+$1,$6,$7*
1,1,$1+$1,$8,$9*
0 Add four rect primitives between the rounded corners*
20,1,$1+$1,$2,$3,$4,$5,0*
20,1,$1+$1,$4,$5,$6,$7,0*
20,1,$1+$1,$6,$7,$8,$9,0*
20,1,$1+$1,$8,$9,$2,$3,0*%
G04 Aperture macros list end*
%ADD10R,2.500000X0.800000*%
%ADD11R,1.050000X0.650000*%
%ADD12RoundRect,0.250000X-0.625000X0.312500X-0.625000X-0.312500X0.625000X-0.312500X0.625000X0.312500X0*%
%ADD13RoundRect,0.250000X0.650000X-1.000000X0.650000X1.000000X-0.650000X1.000000X-0.650000X-1.000000X0*%
%ADD14RoundRect,0.150000X-0.587500X-0.150000X0.587500X-0.150000X0.587500X0.150000X-0.587500X0.150000X0*%
%ADD15RoundRect,0.150000X0.150000X-0.875000X0.150000X0.875000X-0.150000X0.875000X-0.150000X-0.875000X0*%
%ADD16RoundRect,0.225000X-0.250000X0.225000X-0.250000X-0.225000X0.250000X-0.225000X0.250000X0.225000X0*%
%ADD17RoundRect,0.250000X-0.312500X-0.625000X0.312500X-0.625000X0.312500X0.625000X-0.312500X0.625000X0*%
%ADD18RoundRect,0.250000X-0.450000X0.262500X-0.450000X-0.262500X0.450000X-0.262500X0.450000X0.262500X0*%
%ADD19RoundRect,0.200000X-0.275000X0.200000X-0.275000X-0.200000X0.275000X-0.200000X0.275000X0.200000X0*%
G04 APERTURE END LIST*
D10*
%TO.C,BT1*%
X91619999Y-88911999D03*
X91619999Y-90411999D03*
%TD*%
D11*
%TO.C,SW4*%
X74124999Y-112834999D03*
X78274999Y-112834999D03*
X74124999Y-110684999D03*
X78274999Y-110684999D03*
%TD*%
D12*
%TO.C,R2*%
X147828000Y-71689500D03*
X147828000Y-74614500D03*
%TD*%
D13*
%TO.C,D3*%
X134620000Y-58388000D03*
X134620000Y-54388000D03*
%TD*%
D14*
%TO.C,Q1*%
X78262500Y-66150000D03*
X78262500Y-64250000D03*
X80137500Y-65200000D03*
%TD*%
D15*
%TO.C,U1*%
X85090000Y-58650000D03*
X83820000Y-58650000D03*
X82550000Y-58650000D03*
X81280000Y-58650000D03*
X80010000Y-58650000D03*
X78740000Y-58650000D03*
X77470000Y-58650000D03*
X76200000Y-58650000D03*
X74930000Y-58650000D03*
X73660000Y-58650000D03*
X72390000Y-58650000D03*
X71120000Y-58650000D03*
X69850000Y-58650000D03*
X68580000Y-58650000D03*
X68580000Y-49350000D03*
X69850000Y-49350000D03*
X71120000Y-49350000D03*
X72390000Y-49350000D03*
X73660000Y-49350000D03*
X74930000Y-49350000D03*
X76200000Y-49350000D03*
X77470000Y-49350000D03*
X78740000Y-49350000D03*
X80010000Y-49350000D03*
X81280000Y-49350000D03*
X82550000Y-49350000D03*
X83820000Y-49350000D03*
X85090000Y-49350000D03*
%TD*%
D12*
%TO.C,R4*%
X91948000Y-72959500D03*
X91948000Y-75884500D03*
%TD*%
D16*
%TO.C,C8*%
X87122000Y-49263000D03*
X87122000Y-50813000D03*
%TD*%
D17*
%TO.C,R12*%
X51877500Y-72898000D03*
X54802500Y-72898000D03*
%TD*%
D15*
%TO.C,U5*%
X108300000Y-58600000D03*
X107030000Y-58600000D03*
X105760000Y-58600000D03*
X104490000Y-58600000D03*
X103220000Y-58600000D03*
X101950000Y-58600000D03*
X100680000Y-58600000D03*
X99410000Y-58600000D03*
X98140000Y-58600000D03*
X96870000Y-58600000D03*
X95600000Y-58600000D03*
X94330000Y-58600000D03*
X93060000Y-58600000D03*
X91790000Y-58600000D03*
X91790000Y-49300000D03*
X93060000Y-49300000D03*
X94330000Y-49300000D03*
X95600000Y-49300000D03*
X96870000Y-49300000D03*
X98140000Y-49300000D03*
X99410000Y-49300000D03*
X100680000Y-49300000D03*
X101950000Y-49300000D03*
X103220000Y-49300000D03*
X104490000Y-49300000D03*
X105760000Y-49300000D03*
X107030000Y-49300000D03*
X108300000Y-49300000D03*
%TD*%
D13*
%TO.C,D1*%
X87859000Y-58388000D03*
X87859000Y-54388000D03*
%TD*%
D14*
%TO.C,Q2*%
X117759000Y-66228000D03*
X117759000Y-64328000D03*
X119634000Y-65278000D03*
%TD*%
D12*
%TO.C,R5*%
X105664000Y-72959500D03*
X105664000Y-75884500D03*
%TD*%
D11*
%TO.C,SW5*%
X66758999Y-112834999D03*
X70908999Y-112834999D03*
X66758999Y-110684999D03*
X70908999Y-110684999D03*
%TD*%
D18*
%TO.C,R13*%
X144272000Y-71882000D03*
X144272000Y-73707000D03*
%TD*%
D16*
%TO.C,C11*%
X133604000Y-49263000D03*
X133604000Y-50813000D03*
%TD*%
D19*
%TO.C,R15*%
X100076000Y-70675000D03*
X100076000Y-72325000D03*
%TD*%
%TO.C,R3*%
X77800000Y-69175000D03*
X77800000Y-70825000D03*
%TD*%
D16*
%TO.C,C10*%
X110236000Y-49009000D03*
X110236000Y-50559000D03*
%TD*%
D18*
%TO.C,R10*%
X113030000Y-70715500D03*
X113030000Y-72540500D03*
%TD*%
%TO.C,R17*%
X131572000Y-71731500D03*
X131572000Y-73556500D03*
%TD*%
D13*
%TO.C,D2*%
X111252000Y-58388000D03*
X111252000Y-54388000D03*
%TD*%
D18*
%TO.C,R9*%
X86106000Y-74271500D03*
X86106000Y-76096500D03*
%TD*%
D12*
%TO.C,R1*%
X136652000Y-71689500D03*
X136652000Y-74614500D03*
%TD*%
%TO.C,R14*%
X67310000Y-72705500D03*
X67310000Y-75630500D03*
%TD*%
D15*
%TO.C,U6*%
X131572000Y-58674000D03*
X130302000Y-58674000D03*
X129032000Y-58674000D03*
X127762000Y-58674000D03*
X126492000Y-58674000D03*
X125222000Y-58674000D03*
X123952000Y-58674000D03*
X122682000Y-58674000D03*
X121412000Y-58674000D03*
X120142000Y-58674000D03*
X118872000Y-58674000D03*
X117602000Y-58674000D03*
X116332000Y-58674000D03*
X115062000Y-58674000D03*
X115062000Y-49374000D03*
X116332000Y-49374000D03*
X117602000Y-49374000D03*
X118872000Y-49374000D03*
X120142000Y-49374000D03*
X121412000Y-49374000D03*
X122682000Y-49374000D03*
X123952000Y-49374000D03*
X125222000Y-49374000D03*
X126492000Y-49374000D03*
X127762000Y-49374000D03*
X129032000Y-49374000D03*
X130302000Y-49374000D03*
X131572000Y-49374000D03*
%TD*%
D18*
%TO.C,R11*%
X83820000Y-74271500D03*
X83820000Y-76096500D03*
%TD*%
M02*
